M48
; DRILL file {KiCad 8.0.1} date 2024-04-29T22:00:16+0200
; FORMAT={-:-/ absolute / inch / decimal}
; #@! TF.CreationDate,2024-04-29T22:00:16+02:00
; #@! TF.GenerationSoftware,Kicad,Pcbnew,8.0.1
; #@! TF.FileFunction,Plated,1,2,PTH
FMAT,2
INCH
; #@! TA.AperFunction,Plated,PTH,ViaDrill
T1C0.0118
; #@! TA.AperFunction,Plated,PTH,ComponentDrill
T2C0.0197
; #@! TA.AperFunction,Plated,PTH,ComponentDrill
T3C0.0256
; #@! TA.AperFunction,Plated,PTH,ComponentDrill
T4C0.1260
%
G90
G05
T1
X4.4783Y-2.6969
X4.4783Y-2.7264
X4.4783Y-2.7559
X4.4783Y-2.7854
X4.4882Y-2.9331
X4.4882Y-2.9626
X4.4882Y-2.9921
X4.4882Y-3.0217
X4.5079Y-2.6181
X4.5079Y-2.7264
X4.5079Y-2.7559
X4.5079Y-2.7854
X4.5079Y-3.1004
X4.5079Y-3.1299
X4.5177Y-2.9331
X4.5177Y-2.9626
X4.5177Y-2.9921
X4.5374Y-2.6181
X4.5374Y-2.6476
X4.5374Y-2.7559
X4.5374Y-2.7854
X4.5374Y-3.0709
X4.5374Y-3.1004
X4.5374Y-3.1299
X4.5472Y-2.9331
X4.5472Y-2.9626
X4.5669Y-2.6181
X4.5669Y-2.6476
X4.5669Y-2.6772
X4.5669Y-2.7559
X4.5669Y-2.7854
X4.5669Y-3.0413
X4.5669Y-3.0709
X4.5669Y-3.1004
X4.5669Y-3.1299
X4.5768Y-2.9331
X4.5768Y-2.9626
X4.5965Y-2.6181
X4.5965Y-2.6476
X4.5965Y-2.6772
X4.5965Y-2.7067
X4.5965Y-2.7559
X4.5965Y-2.7854
X4.5965Y-3.0118
X4.5965Y-3.0413
X4.5965Y-3.0709
X4.5965Y-3.1004
X4.5965Y-3.1299
X4.6063Y-2.9331
X4.6063Y-2.9626
X4.6555Y-2.2835
X4.6555Y-2.313
X4.6555Y-2.3425
X4.6555Y-2.372
X4.6555Y-2.4016
X4.6614Y-2.6207
X4.6614Y-2.8457
X4.6614Y-2.8707
X4.6614Y-3.0957
X4.685Y-2.2835
X4.685Y-2.313
X4.685Y-2.3425
X4.685Y-2.372
X4.685Y-2.4016
X4.685Y-2.6207
X4.685Y-2.8457
X4.685Y-2.8707
X4.685Y-3.0957
X4.7087Y-2.6207
X4.7087Y-2.8457
X4.7087Y-2.8707
X4.7087Y-3.0957
X4.7146Y-2.2835
X4.7146Y-2.313
X4.7146Y-2.3425
X4.7146Y-2.372
X4.7146Y-2.4016
X4.7323Y-2.5039
X4.8504Y-2.7165
X4.8504Y-2.748
X4.8504Y-2.7795
X4.8504Y-2.811
X4.8504Y-2.8425
X4.8504Y-2.874
X4.8504Y-2.9055
X4.8504Y-2.937
X4.8504Y-2.9685
X4.8504Y-3.0
X4.8819Y-2.7165
X4.8819Y-2.748
X4.8819Y-2.7795
X4.8819Y-2.811
X4.8819Y-2.8425
X4.8819Y-2.874
X4.8819Y-2.9055
X4.8819Y-2.937
X4.8819Y-2.9685
X4.8819Y-3.0
X4.9134Y-2.7165
X4.9134Y-2.748
X4.9134Y-2.7795
X4.9134Y-2.811
X4.9134Y-2.8425
X4.9134Y-2.874
X4.9134Y-2.9055
X4.9134Y-2.937
X4.9134Y-2.9685
X4.9134Y-3.0
X4.9449Y-2.7165
X4.9449Y-2.748
X4.9449Y-2.7795
X4.9449Y-2.811
X4.9449Y-2.8425
X4.9449Y-2.874
X4.9449Y-2.9055
X4.9449Y-2.937
X4.9449Y-2.9685
X4.9449Y-3.0
X4.9764Y-2.7165
X4.9764Y-2.748
X4.9764Y-2.7795
X4.9764Y-2.811
X4.9764Y-2.8425
X4.9764Y-2.874
X4.9764Y-2.9055
X4.9764Y-2.937
X4.9764Y-2.9685
X4.9764Y-3.0
X5.1339Y-2.622
X5.1339Y-3.0
X5.1575Y-2.6693
X5.1811Y-3.0945
X5.1969Y-2.6693
X5.2362Y-2.6693
X5.252Y-3.0945
X5.2756Y-2.6693
X5.2913Y-3.189
X5.3307Y-2.9528
X5.3543Y-2.2953
X5.3543Y-2.3268
X5.3543Y-2.3583
X5.3543Y-2.3898
X5.3543Y-2.4213
X5.3543Y-2.4528
X5.3543Y-2.4843
X5.3543Y-2.5157
X5.3543Y-2.5472
X5.3543Y-2.5787
X5.3543Y-2.6102
X5.3543Y-2.6417
X5.3543Y-2.6732
X5.3543Y-2.8819
X5.3937Y-2.2953
X5.3937Y-2.3268
X5.3937Y-2.3583
X5.3937Y-2.3898
X5.3937Y-2.4213
X5.3937Y-2.4528
X5.3937Y-2.4843
X5.3937Y-2.5157
X5.3937Y-2.5472
X5.3937Y-2.5787
X5.3937Y-2.6102
X5.3937Y-2.6417
X5.3937Y-2.6732
X5.4331Y-2.2953
X5.4331Y-2.3268
X5.4331Y-2.3583
X5.4331Y-2.3898
X5.4331Y-2.4213
X5.4331Y-2.4528
X5.4331Y-2.4843
X5.4331Y-2.5157
X5.4331Y-2.5472
X5.4331Y-2.5787
X5.4331Y-2.6102
X5.4331Y-2.6417
X5.4331Y-2.6732
X5.4488Y-3.2441
X5.4724Y-2.2953
X5.4724Y-2.3268
X5.4724Y-2.3583
X5.4724Y-2.3898
X5.4724Y-2.4213
X5.4724Y-2.4528
X5.4724Y-2.4843
X5.4724Y-2.5157
X5.4724Y-2.5472
X5.4724Y-2.5787
X5.4724Y-2.6102
X5.4724Y-2.6417
X5.4724Y-2.6732
X5.4882Y-3.2441
X5.5118Y-2.2953
X5.5118Y-2.3268
X5.5118Y-2.3583
X5.5118Y-2.3898
X5.5118Y-2.4213
X5.5118Y-2.4528
X5.5118Y-2.4843
X5.5118Y-2.5157
X5.5118Y-2.5472
X5.5118Y-2.5787
X5.5118Y-2.6102
X5.5118Y-2.6417
X5.5118Y-2.6732
X5.5276Y-3.2441
X5.5512Y-2.2953
X5.5512Y-2.3268
X5.5512Y-2.3583
X5.5512Y-2.3898
X5.5512Y-2.4213
X5.5512Y-2.4528
X5.5512Y-2.4843
X5.5512Y-2.5157
X5.5512Y-2.5472
X5.5512Y-2.5787
X5.5512Y-2.6102
X5.5512Y-2.6417
X5.5512Y-2.6732
X5.5669Y-3.2441
X5.5906Y-2.2953
X5.5906Y-2.3268
X5.5906Y-2.3583
X5.5906Y-2.3898
X5.5906Y-2.4213
X5.5906Y-2.4528
X5.5906Y-2.4843
X5.5906Y-2.5157
X5.5906Y-2.5472
X5.5906Y-2.5787
X5.5906Y-2.6102
X5.5906Y-2.6417
X5.5906Y-2.6732
X5.6299Y-2.2953
X5.6299Y-2.3268
X5.6299Y-2.3583
X5.6299Y-2.3898
X5.6299Y-2.4213
X5.6299Y-2.4528
X5.6299Y-2.4843
X5.6299Y-2.5157
X5.6299Y-2.5472
X5.6299Y-2.5787
X5.6299Y-2.6102
X5.6299Y-2.6417
X5.6299Y-2.6732
X5.7205Y-2.9094
X5.8425Y-3.2047
X6.0315Y-2.3012
X6.0315Y-2.3327
X6.0315Y-2.3642
X6.0315Y-2.3957
X6.0315Y-2.4272
X6.0315Y-2.4587
X6.0315Y-2.4902
X6.0315Y-2.5217
X6.0315Y-2.5531
X6.0315Y-2.5846
X6.0315Y-2.6161
X6.0315Y-2.6476
X6.0315Y-2.6791
X6.0315Y-2.8189
X6.0315Y-2.8504
X6.0315Y-2.8819
X6.0315Y-2.9134
X6.0315Y-2.9449
X6.0315Y-2.9764
X6.0315Y-3.0079
X6.0315Y-3.0394
X6.0315Y-3.0709
X6.0315Y-3.1024
X6.0315Y-3.1339
X6.0315Y-3.1654
X6.0315Y-3.1969
X6.063Y-2.3012
X6.063Y-2.3327
X6.063Y-2.3642
X6.063Y-2.3957
X6.063Y-2.4272
X6.063Y-2.4587
X6.063Y-2.4902
X6.063Y-2.5217
X6.063Y-2.5531
X6.063Y-2.5846
X6.063Y-2.6161
X6.063Y-2.6476
X6.063Y-2.6791
X6.063Y-2.8189
X6.063Y-2.8504
X6.063Y-2.8819
X6.063Y-2.9134
X6.063Y-2.9449
X6.063Y-2.9764
X6.063Y-3.0079
X6.063Y-3.0394
X6.063Y-3.0709
X6.063Y-3.1024
X6.063Y-3.1339
X6.063Y-3.1654
X6.063Y-3.1969
X6.0945Y-2.3012
X6.0945Y-2.3327
X6.0945Y-2.3642
X6.0945Y-2.3957
X6.0945Y-2.4272
X6.0945Y-2.4587
X6.0945Y-2.4902
X6.0945Y-2.5217
X6.0945Y-2.5531
X6.0945Y-2.5846
X6.0945Y-2.6161
X6.0945Y-2.6476
X6.0945Y-2.6791
X6.0945Y-2.8189
X6.0945Y-2.8504
X6.0945Y-2.8819
X6.0945Y-2.9134
X6.0945Y-2.9449
X6.0945Y-2.9764
X6.0945Y-3.0079
X6.0945Y-3.0394
X6.0945Y-3.0709
X6.0945Y-3.1024
X6.0945Y-3.1339
X6.0945Y-3.1654
X6.0945Y-3.1969
X6.126Y-2.3012
X6.126Y-2.3327
X6.126Y-2.3642
X6.126Y-2.3957
X6.126Y-2.4272
X6.126Y-2.4587
X6.126Y-2.4902
X6.126Y-2.5217
X6.126Y-2.5531
X6.126Y-2.5846
X6.126Y-2.6161
X6.126Y-2.6476
X6.126Y-2.6791
X6.126Y-2.8189
X6.126Y-2.8504
X6.126Y-2.8819
X6.126Y-2.9134
X6.126Y-2.9449
X6.126Y-2.9764
X6.126Y-3.0079
X6.126Y-3.0394
X6.126Y-3.0709
X6.126Y-3.1024
X6.126Y-3.1339
X6.126Y-3.1654
X6.126Y-3.1969
X6.1575Y-2.3012
X6.1575Y-2.3327
X6.1575Y-2.3642
X6.1575Y-2.3957
X6.1575Y-2.4272
X6.1575Y-2.4587
X6.1575Y-2.4902
X6.1575Y-2.5217
X6.1575Y-2.5531
X6.1575Y-2.5846
X6.1575Y-2.6161
X6.1575Y-2.6476
X6.1575Y-2.6791
X6.1575Y-2.8189
X6.1575Y-2.8504
X6.1575Y-2.8819
X6.1575Y-2.9134
X6.1575Y-2.9449
X6.1575Y-2.9764
X6.1575Y-3.0079
X6.1575Y-3.0394
X6.1575Y-3.0709
X6.1575Y-3.1024
X6.1575Y-3.1339
X6.1575Y-3.1654
X6.1575Y-3.1969
X6.189Y-2.3012
X6.189Y-2.3327
X6.189Y-2.3642
X6.189Y-2.3957
X6.189Y-2.4272
X6.189Y-2.4587
X6.189Y-2.4902
X6.189Y-2.5217
X6.189Y-2.5531
X6.189Y-2.5846
X6.189Y-2.6161
X6.189Y-2.6476
X6.189Y-2.6791
X6.189Y-2.8189
X6.189Y-2.8504
X6.189Y-2.8819
X6.189Y-2.9134
X6.189Y-2.9449
X6.189Y-2.9764
X6.189Y-3.0079
X6.189Y-3.0394
X6.189Y-3.0709
X6.189Y-3.1024
X6.189Y-3.1339
X6.189Y-3.1654
X6.189Y-3.1969
X6.2205Y-2.3012
X6.2205Y-2.3327
X6.2205Y-2.3642
X6.2205Y-2.3957
X6.2205Y-2.4272
X6.2205Y-2.4587
X6.2205Y-2.4902
X6.2205Y-2.5217
X6.2205Y-2.5531
X6.2205Y-2.5846
X6.2205Y-2.6161
X6.2205Y-2.6476
X6.2205Y-2.6791
X6.2205Y-2.8189
X6.2205Y-2.8504
X6.2205Y-2.8819
X6.2205Y-2.9134
X6.2205Y-2.9449
X6.2205Y-2.9764
X6.2205Y-3.0079
X6.2205Y-3.0394
X6.2205Y-3.0709
X6.2205Y-3.1024
X6.2205Y-3.1339
X6.2205Y-3.1654
X6.2205Y-3.1969
X6.252Y-2.3012
X6.252Y-2.3327
X6.252Y-2.3642
X6.252Y-2.3957
X6.252Y-2.4272
X6.252Y-2.4587
X6.252Y-2.4902
X6.252Y-2.5217
X6.252Y-2.5531
X6.252Y-2.5846
X6.252Y-2.6161
X6.252Y-2.6476
X6.252Y-2.6791
X6.252Y-2.8189
X6.252Y-2.8504
X6.252Y-2.8819
X6.252Y-2.9134
X6.252Y-2.9449
X6.252Y-2.9764
X6.252Y-3.0079
X6.252Y-3.0394
X6.252Y-3.0709
X6.252Y-3.1024
X6.252Y-3.1339
X6.252Y-3.1654
X6.252Y-3.1969
X6.2835Y-2.3012
X6.2835Y-2.3327
X6.2835Y-2.3642
X6.2835Y-2.3957
X6.2835Y-2.4272
X6.2835Y-2.4587
X6.2835Y-2.4902
X6.2835Y-2.5217
X6.2835Y-2.5531
X6.2835Y-2.5846
X6.2835Y-2.6161
X6.2835Y-2.6476
X6.2835Y-2.6791
X6.2835Y-2.8189
X6.2835Y-2.8504
X6.2835Y-2.8819
X6.2835Y-2.9134
X6.2835Y-2.9449
X6.2835Y-2.9764
X6.2835Y-3.0079
X6.2835Y-3.0394
X6.2835Y-3.0709
X6.2835Y-3.1024
X6.2835Y-3.1339
X6.2835Y-3.1654
X6.2835Y-3.1969
X6.2992Y-3.435
X6.2992Y-3.4646
X6.2992Y-3.4941
X6.3287Y-3.435
X6.3287Y-3.4646
X6.3287Y-3.4941
X6.3583Y-3.435
X6.3583Y-3.4646
X6.3583Y-3.4941
X6.3878Y-3.435
X6.3878Y-3.4646
X6.3878Y-3.4941
X6.4173Y-3.435
X6.4173Y-3.4646
X6.4173Y-3.4941
X6.4469Y-3.435
X6.4469Y-3.4646
X6.4469Y-3.4941
X6.4724Y-2.7559
X6.4724Y-2.7874
X6.4724Y-2.8189
X6.4724Y-2.8504
X6.4764Y-3.435
X6.4764Y-3.4646
X6.4764Y-3.4941
X6.5039Y-2.7559
X6.5039Y-2.7874
X6.5039Y-2.8189
X6.5039Y-2.8504
X6.5059Y-3.435
X6.5059Y-3.4646
X6.5059Y-3.4941
X6.5354Y-2.7559
X6.5354Y-2.7874
X6.5354Y-2.8189
X6.5354Y-2.8504
X6.5354Y-3.435
X6.5354Y-3.4646
X6.5354Y-3.4941
X6.565Y-3.435
X6.565Y-3.4646
X6.565Y-3.4941
X6.5669Y-2.7559
X6.5669Y-2.7874
X6.5669Y-2.8189
X6.5669Y-2.8504
X6.5945Y-3.435
X6.5945Y-3.4646
X6.5945Y-3.4941
X6.5984Y-2.7559
X6.5984Y-2.7874
X6.5984Y-2.8189
X6.5984Y-2.8504
X6.6299Y-2.7559
X6.6299Y-2.7874
X6.6299Y-2.8189
X6.6299Y-2.8504
X6.6614Y-2.7559
X6.6614Y-2.7874
X6.6614Y-2.8189
X6.6614Y-2.8504
X6.8504Y-2.378
X6.8504Y-2.4252
X6.8504Y-2.8976
X6.8504Y-2.9449
X7.0866Y-2.4409
X7.0866Y-2.9528
X7.2953Y-3.3346
X7.2953Y-3.3642
X7.2953Y-3.3937
X7.2953Y-3.4232
X7.2953Y-3.4528
X7.2953Y-3.4823
X7.3248Y-3.3346
X7.3248Y-3.3642
X7.3248Y-3.3937
X7.3248Y-3.4232
X7.3248Y-3.4528
X7.3248Y-3.4823
X7.3543Y-3.3346
X7.3543Y-3.3642
X7.3543Y-3.3937
X7.3543Y-3.4232
X7.3543Y-3.4528
X7.3543Y-3.4823
T2
X5.6299Y-2.8661
T3
X5.8319Y-3.0181
X5.8319Y-3.0681
X5.8319Y-3.1181
X5.8819Y-3.0181
X5.8819Y-3.0681
X5.8819Y-3.1181
T4
X4.063Y-2.3465
X4.063Y-2.6877
X4.063Y-3.0289
X4.063Y-3.3701
X4.9139Y-3.3701
X6.8189Y-3.3701
X7.1024Y-3.3701
X7.315Y-2.3465
X7.315Y-2.6772
M30
