%TF.GenerationSoftware,KiCad,Pcbnew,8.0.1*%
%TF.CreationDate,2024-04-28T13:56:50+02:00*%
%TF.ProjectId,ECU_proj,4543555f-7072-46f6-9a2e-6b696361645f,rev?*%
%TF.SameCoordinates,Original*%
%TF.FileFunction,Soldermask,Top*%
%TF.FilePolarity,Negative*%
%FSLAX46Y46*%
G04 Gerber Fmt 4.6, Leading zero omitted, Abs format (unit mm)*
G04 Created by KiCad (PCBNEW 8.0.1) date 2024-04-28 13:56:50*
%MOMM*%
%LPD*%
G01*
G04 APERTURE LIST*
G04 Aperture macros list*
%AMRoundRect*
0 Rectangle with rounded corners*
0 $1 Rounding radius*
0 $2 $3 $4 $5 $6 $7 $8 $9 X,Y pos of 4 corners*
0 Add a 4 corners polygon primitive as box body*
4,1,4,$2,$3,$4,$5,$6,$7,$8,$9,$2,$3,0*
0 Add four circle primitives for the rounded corners*
1,1,$1+$1,$2,$3*
1,1,$1+$1,$4,$5*
1,1,$1+$1,$6,$7*
1,1,$1+$1,$8,$9*
0 Add four rect primitives between the rounded corners*
20,1,$1+$1,$2,$3,$4,$5,0*
20,1,$1+$1,$4,$5,$6,$7,0*
20,1,$1+$1,$6,$7,$8,$9,0*
20,1,$1+$1,$8,$9,$2,$3,0*%
G04 Aperture macros list end*
%ADD10C,3.600000*%
%ADD11C,5.700000*%
%ADD12RoundRect,0.140000X0.140000X0.170000X-0.140000X0.170000X-0.140000X-0.170000X0.140000X-0.170000X0*%
%ADD13R,4.600000X1.350000*%
%ADD14R,9.500000X10.900000*%
%ADD15RoundRect,0.150000X0.150000X-0.825000X0.150000X0.825000X-0.150000X0.825000X-0.150000X-0.825000X0*%
%ADD16RoundRect,0.140000X0.170000X-0.140000X0.170000X0.140000X-0.170000X0.140000X-0.170000X-0.140000X0*%
%ADD17RoundRect,0.140000X-0.140000X-0.170000X0.140000X-0.170000X0.140000X0.170000X-0.140000X0.170000X0*%
%ADD18RoundRect,0.140000X-0.170000X0.140000X-0.170000X-0.140000X0.170000X-0.140000X0.170000X0.140000X0*%
%ADD19R,1.000000X1.000000*%
%ADD20O,1.000000X1.000000*%
%ADD21R,1.550000X0.700000*%
%ADD22RoundRect,0.250000X-1.825000X-0.700000X1.825000X-0.700000X1.825000X0.700000X-1.825000X0.700000X0*%
%ADD23R,3.050000X2.030000*%
%ADD24R,8.380000X10.660000*%
%ADD25R,1.475000X0.435000*%
%ADD26R,3.800000X8.000000*%
%ADD27R,0.850000X0.850000*%
G04 APERTURE END LIST*
D10*
%TO.C,J1*%
X103200000Y-59600000D03*
D11*
X103200000Y-59600000D03*
%TD*%
D12*
%TO.C,C12*%
X176000000Y-61645000D03*
X175040000Y-61645000D03*
%TD*%
D13*
%TO.C,Q1*%
X166600000Y-78925000D03*
D14*
X157450000Y-76385000D03*
D13*
X166600000Y-73845000D03*
%TD*%
D12*
%TO.C,C13*%
X176000000Y-73645000D03*
X175040000Y-73645000D03*
%TD*%
D10*
%TO.C,J9*%
X185800000Y-68000000D03*
D11*
X185800000Y-68000000D03*
%TD*%
D15*
%TO.C,U1*%
X136650000Y-80750000D03*
X137920000Y-80750000D03*
X139190000Y-80750000D03*
X140460000Y-80750000D03*
X141730000Y-80750000D03*
X143000000Y-80750000D03*
X144270000Y-80750000D03*
X144270000Y-75800000D03*
X143000000Y-75800000D03*
X141730000Y-75800000D03*
X140460000Y-75800000D03*
X139190000Y-75800000D03*
X137920000Y-75800000D03*
X136650000Y-75800000D03*
%TD*%
D13*
%TO.C,Q2*%
X166600000Y-65785000D03*
D14*
X157450000Y-63245000D03*
D13*
X166600000Y-60705000D03*
%TD*%
D12*
%TO.C,C23*%
X129210000Y-80750000D03*
X128250000Y-80750000D03*
%TD*%
%TO.C,C14*%
X176000000Y-74845000D03*
X175040000Y-74845000D03*
%TD*%
D16*
%TO.C,C17*%
X132000000Y-64480000D03*
X132000000Y-63520000D03*
%TD*%
D17*
%TO.C,C11*%
X175040000Y-59245000D03*
X176000000Y-59245000D03*
%TD*%
D18*
%TO.C,R6*%
X135000000Y-73120000D03*
X135000000Y-74080000D03*
%TD*%
D19*
%TO.C,J10*%
X148130000Y-76660000D03*
D20*
X149400000Y-76660000D03*
X148130000Y-77930000D03*
X149400000Y-77930000D03*
X148130000Y-79200000D03*
X149400000Y-79200000D03*
%TD*%
D12*
%TO.C,C20*%
X150680000Y-81400000D03*
X149720000Y-81400000D03*
%TD*%
D17*
%TO.C,C5*%
X118320000Y-80200000D03*
X119280000Y-80200000D03*
%TD*%
D10*
%TO.C,J2*%
X103200000Y-68266666D03*
D11*
X103200000Y-68266666D03*
%TD*%
D18*
%TO.C,C8*%
X109400000Y-79520000D03*
X109400000Y-80480000D03*
%TD*%
D10*
%TO.C,J5*%
X180400000Y-85600000D03*
D11*
X180400000Y-85600000D03*
%TD*%
D10*
%TO.C,J7*%
X173200000Y-85600000D03*
D11*
X173200000Y-85600000D03*
%TD*%
D16*
%TO.C,C1*%
X117400000Y-73000000D03*
X117400000Y-72040000D03*
%TD*%
D17*
%TO.C,C15*%
X175000000Y-72445000D03*
X175960000Y-72445000D03*
%TD*%
D21*
%TO.C,IC2*%
X180000000Y-67055000D03*
X180000000Y-65785000D03*
X180000000Y-64515000D03*
X180000000Y-63245000D03*
X174600000Y-63245000D03*
X174600000Y-64515000D03*
X174600000Y-65785000D03*
X174600000Y-67055000D03*
%TD*%
D12*
%TO.C,C3*%
X119360000Y-65000000D03*
X118400000Y-65000000D03*
%TD*%
D22*
%TO.C,C22*%
X122525000Y-59500000D03*
X129475000Y-59500000D03*
%TD*%
D16*
%TO.C,C16*%
X131000000Y-64480000D03*
X131000000Y-63520000D03*
%TD*%
D10*
%TO.C,J3*%
X103200000Y-76933332D03*
D11*
X103200000Y-76933332D03*
%TD*%
D12*
%TO.C,C9*%
X129280000Y-64600000D03*
X128320000Y-64600000D03*
%TD*%
D10*
%TO.C,J4*%
X103200000Y-85600000D03*
D11*
X103200000Y-85600000D03*
%TD*%
D18*
%TO.C,C7*%
X109400000Y-63320000D03*
X109400000Y-64280000D03*
%TD*%
D23*
%TO.C,D1*%
X148400000Y-65645000D03*
X148400000Y-60565000D03*
D24*
X139785000Y-63105000D03*
%TD*%
D10*
%TO.C,J8*%
X185800000Y-59600000D03*
D11*
X185800000Y-59600000D03*
%TD*%
D12*
%TO.C,C10*%
X176000000Y-60445000D03*
X175040000Y-60445000D03*
%TD*%
D16*
%TO.C,C19*%
X134000000Y-64480000D03*
X134000000Y-63520000D03*
%TD*%
%TO.C,C4*%
X115600000Y-74280000D03*
X115600000Y-73320000D03*
%TD*%
D12*
%TO.C,R3*%
X172800000Y-78340000D03*
X171840000Y-78340000D03*
%TD*%
D25*
%TO.C,IC1*%
X121024000Y-65930000D03*
X121024000Y-66566000D03*
X121024000Y-67200000D03*
X121024000Y-67836000D03*
X121024000Y-68470000D03*
X121024000Y-69106000D03*
X121024000Y-69740000D03*
X121024000Y-70376000D03*
X121024000Y-71010000D03*
X121024000Y-71646000D03*
X121024000Y-72280000D03*
X121024000Y-72916000D03*
X121024000Y-73550000D03*
X121024000Y-74186000D03*
X121024000Y-74820000D03*
X121024000Y-75456000D03*
X121024000Y-76090000D03*
X121024000Y-76726000D03*
X121024000Y-77360000D03*
X121024000Y-77996000D03*
X121024000Y-78630000D03*
X121024000Y-79266000D03*
X128600000Y-79266000D03*
X128600000Y-78630000D03*
X128600000Y-77996000D03*
X128600000Y-77360000D03*
X128600000Y-76726000D03*
X128600000Y-76090000D03*
X128600000Y-75456000D03*
X128600000Y-74820000D03*
X128600000Y-74186000D03*
X128600000Y-73550000D03*
X128600000Y-72916000D03*
X128600000Y-72280000D03*
X128600000Y-71646000D03*
X128600000Y-71010000D03*
X128600000Y-70376000D03*
X128600000Y-69740000D03*
X128600000Y-69106000D03*
X128600000Y-68470000D03*
X128600000Y-67836000D03*
X128600000Y-67200000D03*
X128600000Y-66566000D03*
X128600000Y-65930000D03*
D26*
X124812000Y-72598000D03*
%TD*%
D21*
%TO.C,IC3*%
X180000000Y-80150000D03*
X180000000Y-78880000D03*
X180000000Y-77610000D03*
X180000000Y-76340000D03*
X174600000Y-76340000D03*
X174600000Y-77610000D03*
X174600000Y-78880000D03*
X174600000Y-80150000D03*
%TD*%
D16*
%TO.C,C18*%
X133000000Y-64480000D03*
X133000000Y-63520000D03*
%TD*%
%TO.C,C2*%
X115600000Y-71880000D03*
X115600000Y-70920000D03*
%TD*%
D12*
%TO.C,R1*%
X172800000Y-65245000D03*
X171840000Y-65245000D03*
%TD*%
D18*
%TO.C,R5*%
X134000000Y-73120000D03*
X134000000Y-74080000D03*
%TD*%
D17*
%TO.C,C21*%
X146240000Y-81400000D03*
X147200000Y-81400000D03*
%TD*%
D27*
%TO.C,J11*%
X143000000Y-72800000D03*
%TD*%
D10*
%TO.C,J6*%
X124812000Y-85600000D03*
D11*
X124812000Y-85600000D03*
%TD*%
D17*
%TO.C,C6*%
X118400000Y-63600000D03*
X119360000Y-63600000D03*
%TD*%
%TO.C,R2*%
X171840000Y-67045000D03*
X172800000Y-67045000D03*
%TD*%
D16*
%TO.C,R4*%
X171400000Y-76725000D03*
X171400000Y-75765000D03*
%TD*%
D12*
%TO.C,R7*%
X132480000Y-77400000D03*
X131520000Y-77400000D03*
%TD*%
M02*
