%TF.GenerationSoftware,KiCad,Pcbnew,8.0.1*%
%TF.CreationDate,2024-04-29T22:00:20+02:00*%
%TF.ProjectId,ECU_proj,4543555f-7072-46f6-9a2e-6b696361645f,rev?*%
%TF.SameCoordinates,Original*%
%TF.FileFunction,Drillmap*%
%TF.FilePolarity,Positive*%
%FSLAX45Y45*%
G04 Gerber Fmt 4.5, Leading zero omitted, Abs format (unit mm)*
G04 Created by KiCad (PCBNEW 8.0.1) date 2024-04-29 22:00:20*
%MOMM*%
%LPD*%
G01*
G04 APERTURE LIST*
%ADD10C,0.050000*%
%ADD11C,0.200000*%
G04 APERTURE END LIST*
D10*
X19000000Y-8600000D02*
X19000000Y-5900000D01*
X9900000Y-5900000D02*
X9900000Y-8600000D01*
X9900000Y-5900000D02*
G75*
G02*
X10300000Y-5500000I400000J0D01*
G01*
X19000000Y-8600000D02*
G75*
G02*
X18600000Y-9000000I-400000J0D01*
G01*
X10300000Y-9000000D02*
G75*
G02*
X9900000Y-8600000I0J400000D01*
G01*
X18600000Y-5500000D02*
G75*
G02*
X19000000Y-5900000I0J-400000D01*
G01*
X18600000Y-5500000D02*
X10300000Y-5500000D01*
X10300000Y-9000000D02*
X18600000Y-9000000D01*
D11*
X10158277Y-9313984D02*
X10158277Y-9113984D01*
X10158277Y-9113984D02*
X10205896Y-9113984D01*
X10205896Y-9113984D02*
X10234467Y-9123508D01*
X10234467Y-9123508D02*
X10253515Y-9142555D01*
X10253515Y-9142555D02*
X10263039Y-9161603D01*
X10263039Y-9161603D02*
X10272563Y-9199698D01*
X10272563Y-9199698D02*
X10272563Y-9228270D01*
X10272563Y-9228270D02*
X10263039Y-9266365D01*
X10263039Y-9266365D02*
X10253515Y-9285412D01*
X10253515Y-9285412D02*
X10234467Y-9304460D01*
X10234467Y-9304460D02*
X10205896Y-9313984D01*
X10205896Y-9313984D02*
X10158277Y-9313984D01*
X10358277Y-9313984D02*
X10358277Y-9180650D01*
X10358277Y-9218746D02*
X10367801Y-9199698D01*
X10367801Y-9199698D02*
X10377324Y-9190174D01*
X10377324Y-9190174D02*
X10396372Y-9180650D01*
X10396372Y-9180650D02*
X10415420Y-9180650D01*
X10482086Y-9313984D02*
X10482086Y-9180650D01*
X10482086Y-9113984D02*
X10472563Y-9123508D01*
X10472563Y-9123508D02*
X10482086Y-9133031D01*
X10482086Y-9133031D02*
X10491610Y-9123508D01*
X10491610Y-9123508D02*
X10482086Y-9113984D01*
X10482086Y-9113984D02*
X10482086Y-9133031D01*
X10605896Y-9313984D02*
X10586848Y-9304460D01*
X10586848Y-9304460D02*
X10577324Y-9285412D01*
X10577324Y-9285412D02*
X10577324Y-9113984D01*
X10710658Y-9313984D02*
X10691610Y-9304460D01*
X10691610Y-9304460D02*
X10682086Y-9285412D01*
X10682086Y-9285412D02*
X10682086Y-9113984D01*
X10939229Y-9313984D02*
X10939229Y-9113984D01*
X10939229Y-9113984D02*
X11005896Y-9256841D01*
X11005896Y-9256841D02*
X11072563Y-9113984D01*
X11072563Y-9113984D02*
X11072563Y-9313984D01*
X11253515Y-9313984D02*
X11253515Y-9209222D01*
X11253515Y-9209222D02*
X11243991Y-9190174D01*
X11243991Y-9190174D02*
X11224943Y-9180650D01*
X11224943Y-9180650D02*
X11186848Y-9180650D01*
X11186848Y-9180650D02*
X11167801Y-9190174D01*
X11253515Y-9304460D02*
X11234467Y-9313984D01*
X11234467Y-9313984D02*
X11186848Y-9313984D01*
X11186848Y-9313984D02*
X11167801Y-9304460D01*
X11167801Y-9304460D02*
X11158277Y-9285412D01*
X11158277Y-9285412D02*
X11158277Y-9266365D01*
X11158277Y-9266365D02*
X11167801Y-9247317D01*
X11167801Y-9247317D02*
X11186848Y-9237793D01*
X11186848Y-9237793D02*
X11234467Y-9237793D01*
X11234467Y-9237793D02*
X11253515Y-9228270D01*
X11348753Y-9180650D02*
X11348753Y-9380650D01*
X11348753Y-9190174D02*
X11367801Y-9180650D01*
X11367801Y-9180650D02*
X11405896Y-9180650D01*
X11405896Y-9180650D02*
X11424943Y-9190174D01*
X11424943Y-9190174D02*
X11434467Y-9199698D01*
X11434467Y-9199698D02*
X11443991Y-9218746D01*
X11443991Y-9218746D02*
X11443991Y-9275889D01*
X11443991Y-9275889D02*
X11434467Y-9294936D01*
X11434467Y-9294936D02*
X11424943Y-9304460D01*
X11424943Y-9304460D02*
X11405896Y-9313984D01*
X11405896Y-9313984D02*
X11367801Y-9313984D01*
X11367801Y-9313984D02*
X11348753Y-9304460D01*
X11529705Y-9294936D02*
X11539229Y-9304460D01*
X11539229Y-9304460D02*
X11529705Y-9313984D01*
X11529705Y-9313984D02*
X11520182Y-9304460D01*
X11520182Y-9304460D02*
X11529705Y-9294936D01*
X11529705Y-9294936D02*
X11529705Y-9313984D01*
X11529705Y-9190174D02*
X11539229Y-9199698D01*
X11539229Y-9199698D02*
X11529705Y-9209222D01*
X11529705Y-9209222D02*
X11520182Y-9199698D01*
X11520182Y-9199698D02*
X11529705Y-9190174D01*
X11529705Y-9190174D02*
X11529705Y-9209222D01*
M02*
