%TF.GenerationSoftware,KiCad,Pcbnew,8.0.1*%
%TF.CreationDate,2024-04-30T22:48:43+02:00*%
%TF.ProjectId,ECU_proj,4543555f-7072-46f6-9a2e-6b696361645f,rev?*%
%TF.SameCoordinates,Original*%
%TF.FileFunction,Drillmap*%
%TF.FilePolarity,Positive*%
%FSLAX45Y45*%
G04 Gerber Fmt 4.5, Leading zero omitted, Abs format (unit mm)*
G04 Created by KiCad (PCBNEW 8.0.1) date 2024-04-30 22:48:43*
%MOMM*%
%LPD*%
G01*
G04 APERTURE LIST*
%ADD10C,0.050000*%
%ADD11C,0.200000*%
%ADD12C,0.100000*%
%ADD13C,0.320000*%
G04 APERTURE END LIST*
D10*
X19000000Y-8600000D02*
X19000000Y-5900000D01*
X9900000Y-5900000D02*
X9900000Y-8600000D01*
X9900000Y-5900000D02*
G75*
G02*
X10300000Y-5500000I400000J0D01*
G01*
X19000000Y-8600000D02*
G75*
G02*
X18600000Y-9000000I-400000J0D01*
G01*
X10300000Y-9000000D02*
G75*
G02*
X9900000Y-8600000I0J400000D01*
G01*
X18600000Y-5500000D02*
G75*
G02*
X19000000Y-5900000I0J-400000D01*
G01*
X18600000Y-5500000D02*
X10300000Y-5500000D01*
X10300000Y-9000000D02*
X18600000Y-9000000D01*
D11*
D12*
X11210000Y-7055000D02*
X11240000Y-7085000D01*
X11240000Y-7055000D02*
X11210000Y-7085000D01*
X11285000Y-7055000D02*
X11315000Y-7085000D01*
X11315000Y-7055000D02*
X11285000Y-7085000D01*
X11315000Y-7435000D02*
X11345000Y-7465000D01*
X11345000Y-7435000D02*
X11315000Y-7465000D01*
X11360000Y-6835000D02*
X11390000Y-6865000D01*
X11390000Y-6835000D02*
X11360000Y-6865000D01*
X11360000Y-6910000D02*
X11390000Y-6940000D01*
X11390000Y-6910000D02*
X11360000Y-6940000D01*
X11360000Y-6985000D02*
X11390000Y-7015000D01*
X11390000Y-6985000D02*
X11360000Y-7015000D01*
X11360000Y-7060000D02*
X11390000Y-7090000D01*
X11390000Y-7060000D02*
X11360000Y-7090000D01*
X11385000Y-7435000D02*
X11415000Y-7465000D01*
X11415000Y-7435000D02*
X11385000Y-7465000D01*
X11385000Y-7510000D02*
X11415000Y-7540000D01*
X11415000Y-7510000D02*
X11385000Y-7540000D01*
X11385000Y-7585000D02*
X11415000Y-7615000D01*
X11415000Y-7585000D02*
X11385000Y-7615000D01*
X11385000Y-7660000D02*
X11415000Y-7690000D01*
X11415000Y-7660000D02*
X11385000Y-7690000D01*
X11435000Y-6635000D02*
X11465000Y-6665000D01*
X11465000Y-6635000D02*
X11435000Y-6665000D01*
X11435000Y-6910000D02*
X11465000Y-6940000D01*
X11465000Y-6910000D02*
X11435000Y-6940000D01*
X11435000Y-6985000D02*
X11465000Y-7015000D01*
X11465000Y-6985000D02*
X11435000Y-7015000D01*
X11435000Y-7060000D02*
X11465000Y-7090000D01*
X11465000Y-7060000D02*
X11435000Y-7090000D01*
X11435000Y-7860000D02*
X11465000Y-7890000D01*
X11465000Y-7860000D02*
X11435000Y-7890000D01*
X11435000Y-7935000D02*
X11465000Y-7965000D01*
X11465000Y-7935000D02*
X11435000Y-7965000D01*
X11460000Y-7435000D02*
X11490000Y-7465000D01*
X11490000Y-7435000D02*
X11460000Y-7465000D01*
X11460000Y-7510000D02*
X11490000Y-7540000D01*
X11490000Y-7510000D02*
X11460000Y-7540000D01*
X11460000Y-7585000D02*
X11490000Y-7615000D01*
X11490000Y-7585000D02*
X11460000Y-7615000D01*
X11510000Y-6635000D02*
X11540000Y-6665000D01*
X11540000Y-6635000D02*
X11510000Y-6665000D01*
X11510000Y-6710000D02*
X11540000Y-6740000D01*
X11540000Y-6710000D02*
X11510000Y-6740000D01*
X11510000Y-6985000D02*
X11540000Y-7015000D01*
X11540000Y-6985000D02*
X11510000Y-7015000D01*
X11510000Y-7785000D02*
X11540000Y-7815000D01*
X11540000Y-7785000D02*
X11510000Y-7815000D01*
X11510000Y-7860000D02*
X11540000Y-7890000D01*
X11540000Y-7860000D02*
X11510000Y-7890000D01*
X11510000Y-7935000D02*
X11540000Y-7965000D01*
X11540000Y-7935000D02*
X11510000Y-7965000D01*
X11535000Y-7510000D02*
X11565000Y-7540000D01*
X11565000Y-7510000D02*
X11535000Y-7540000D01*
X11585000Y-6635000D02*
X11615000Y-6665000D01*
X11615000Y-6635000D02*
X11585000Y-6665000D01*
X11585000Y-6710000D02*
X11615000Y-6740000D01*
X11615000Y-6710000D02*
X11585000Y-6740000D01*
X11585000Y-6785000D02*
X11615000Y-6815000D01*
X11615000Y-6785000D02*
X11585000Y-6815000D01*
X11585000Y-6985000D02*
X11615000Y-7015000D01*
X11615000Y-6985000D02*
X11585000Y-7015000D01*
X11585000Y-7710000D02*
X11615000Y-7740000D01*
X11615000Y-7710000D02*
X11585000Y-7740000D01*
X11585000Y-7785000D02*
X11615000Y-7815000D01*
X11615000Y-7785000D02*
X11585000Y-7815000D01*
X11585000Y-7860000D02*
X11615000Y-7890000D01*
X11615000Y-7860000D02*
X11585000Y-7890000D01*
X11585000Y-7935000D02*
X11615000Y-7965000D01*
X11615000Y-7935000D02*
X11585000Y-7965000D01*
X11610000Y-7435000D02*
X11640000Y-7465000D01*
X11640000Y-7435000D02*
X11610000Y-7465000D01*
X11610000Y-7510000D02*
X11640000Y-7540000D01*
X11640000Y-7510000D02*
X11610000Y-7540000D01*
X11660000Y-6635000D02*
X11690000Y-6665000D01*
X11690000Y-6635000D02*
X11660000Y-6665000D01*
X11660000Y-6710000D02*
X11690000Y-6740000D01*
X11690000Y-6710000D02*
X11660000Y-6740000D01*
X11660000Y-6785000D02*
X11690000Y-6815000D01*
X11690000Y-6785000D02*
X11660000Y-6815000D01*
X11660000Y-6860000D02*
X11690000Y-6890000D01*
X11690000Y-6860000D02*
X11660000Y-6890000D01*
X11660000Y-6985000D02*
X11690000Y-7015000D01*
X11690000Y-6985000D02*
X11660000Y-7015000D01*
X11660000Y-7060000D02*
X11690000Y-7090000D01*
X11690000Y-7060000D02*
X11660000Y-7090000D01*
X11660000Y-7635000D02*
X11690000Y-7665000D01*
X11690000Y-7635000D02*
X11660000Y-7665000D01*
X11660000Y-7710000D02*
X11690000Y-7740000D01*
X11690000Y-7710000D02*
X11660000Y-7740000D01*
X11660000Y-7785000D02*
X11690000Y-7815000D01*
X11690000Y-7785000D02*
X11660000Y-7815000D01*
X11660000Y-7860000D02*
X11690000Y-7890000D01*
X11690000Y-7860000D02*
X11660000Y-7890000D01*
X11660000Y-7935000D02*
X11690000Y-7965000D01*
X11690000Y-7935000D02*
X11660000Y-7965000D01*
X11685000Y-7435000D02*
X11715000Y-7465000D01*
X11715000Y-7435000D02*
X11685000Y-7465000D01*
X11685000Y-7510000D02*
X11715000Y-7540000D01*
X11715000Y-7510000D02*
X11685000Y-7540000D01*
X11810000Y-5785000D02*
X11840000Y-5815000D01*
X11840000Y-5785000D02*
X11810000Y-5815000D01*
X11810000Y-5860000D02*
X11840000Y-5890000D01*
X11840000Y-5860000D02*
X11810000Y-5890000D01*
X11810000Y-5935000D02*
X11840000Y-5965000D01*
X11840000Y-5935000D02*
X11810000Y-5965000D01*
X11810000Y-6010000D02*
X11840000Y-6040000D01*
X11840000Y-6010000D02*
X11810000Y-6040000D01*
X11810000Y-6085000D02*
X11840000Y-6115000D01*
X11840000Y-6085000D02*
X11810000Y-6115000D01*
X11825000Y-6641600D02*
X11855000Y-6671600D01*
X11855000Y-6641600D02*
X11825000Y-6671600D01*
X11825000Y-7213000D02*
X11855000Y-7243000D01*
X11855000Y-7213000D02*
X11825000Y-7243000D01*
X11825000Y-7276600D02*
X11855000Y-7306600D01*
X11855000Y-7276600D02*
X11825000Y-7306600D01*
X11825000Y-7848000D02*
X11855000Y-7878000D01*
X11855000Y-7848000D02*
X11825000Y-7878000D01*
X11885000Y-5785000D02*
X11915000Y-5815000D01*
X11915000Y-5785000D02*
X11885000Y-5815000D01*
X11885000Y-5860000D02*
X11915000Y-5890000D01*
X11915000Y-5860000D02*
X11885000Y-5890000D01*
X11885000Y-5935000D02*
X11915000Y-5965000D01*
X11915000Y-5935000D02*
X11885000Y-5965000D01*
X11885000Y-6010000D02*
X11915000Y-6040000D01*
X11915000Y-6010000D02*
X11885000Y-6040000D01*
X11885000Y-6085000D02*
X11915000Y-6115000D01*
X11915000Y-6085000D02*
X11885000Y-6115000D01*
X11885000Y-6641600D02*
X11915000Y-6671600D01*
X11915000Y-6641600D02*
X11885000Y-6671600D01*
X11885000Y-7213000D02*
X11915000Y-7243000D01*
X11915000Y-7213000D02*
X11885000Y-7243000D01*
X11885000Y-7276600D02*
X11915000Y-7306600D01*
X11915000Y-7276600D02*
X11885000Y-7306600D01*
X11885000Y-7848000D02*
X11915000Y-7878000D01*
X11915000Y-7848000D02*
X11885000Y-7878000D01*
X11945000Y-6641600D02*
X11975000Y-6671600D01*
X11975000Y-6641600D02*
X11945000Y-6671600D01*
X11945000Y-7213000D02*
X11975000Y-7243000D01*
X11975000Y-7213000D02*
X11945000Y-7243000D01*
X11945000Y-7276600D02*
X11975000Y-7306600D01*
X11975000Y-7276600D02*
X11945000Y-7306600D01*
X11945000Y-7848000D02*
X11975000Y-7878000D01*
X11975000Y-7848000D02*
X11945000Y-7878000D01*
X11960000Y-5785000D02*
X11990000Y-5815000D01*
X11990000Y-5785000D02*
X11960000Y-5815000D01*
X11960000Y-5860000D02*
X11990000Y-5890000D01*
X11990000Y-5860000D02*
X11960000Y-5890000D01*
X11960000Y-5935000D02*
X11990000Y-5965000D01*
X11990000Y-5935000D02*
X11960000Y-5965000D01*
X11960000Y-6010000D02*
X11990000Y-6040000D01*
X11990000Y-6010000D02*
X11960000Y-6040000D01*
X11960000Y-6085000D02*
X11990000Y-6115000D01*
X11990000Y-6085000D02*
X11960000Y-6115000D01*
X12005000Y-6345000D02*
X12035000Y-6375000D01*
X12035000Y-6345000D02*
X12005000Y-6375000D01*
X12305000Y-6885000D02*
X12335000Y-6915000D01*
X12335000Y-6885000D02*
X12305000Y-6915000D01*
X12305000Y-6965000D02*
X12335000Y-6995000D01*
X12335000Y-6965000D02*
X12305000Y-6995000D01*
X12305000Y-7045000D02*
X12335000Y-7075000D01*
X12335000Y-7045000D02*
X12305000Y-7075000D01*
X12305000Y-7125000D02*
X12335000Y-7155000D01*
X12335000Y-7125000D02*
X12305000Y-7155000D01*
X12305000Y-7205000D02*
X12335000Y-7235000D01*
X12335000Y-7205000D02*
X12305000Y-7235000D01*
X12305000Y-7285000D02*
X12335000Y-7315000D01*
X12335000Y-7285000D02*
X12305000Y-7315000D01*
X12305000Y-7365000D02*
X12335000Y-7395000D01*
X12335000Y-7365000D02*
X12305000Y-7395000D01*
X12305000Y-7445000D02*
X12335000Y-7475000D01*
X12335000Y-7445000D02*
X12305000Y-7475000D01*
X12305000Y-7525000D02*
X12335000Y-7555000D01*
X12335000Y-7525000D02*
X12305000Y-7555000D01*
X12305000Y-7605000D02*
X12335000Y-7635000D01*
X12335000Y-7605000D02*
X12305000Y-7635000D01*
X12385000Y-6885000D02*
X12415000Y-6915000D01*
X12415000Y-6885000D02*
X12385000Y-6915000D01*
X12385000Y-6965000D02*
X12415000Y-6995000D01*
X12415000Y-6965000D02*
X12385000Y-6995000D01*
X12385000Y-7045000D02*
X12415000Y-7075000D01*
X12415000Y-7045000D02*
X12385000Y-7075000D01*
X12385000Y-7125000D02*
X12415000Y-7155000D01*
X12415000Y-7125000D02*
X12385000Y-7155000D01*
X12385000Y-7205000D02*
X12415000Y-7235000D01*
X12415000Y-7205000D02*
X12385000Y-7235000D01*
X12385000Y-7285000D02*
X12415000Y-7315000D01*
X12415000Y-7285000D02*
X12385000Y-7315000D01*
X12385000Y-7365000D02*
X12415000Y-7395000D01*
X12415000Y-7365000D02*
X12385000Y-7395000D01*
X12385000Y-7445000D02*
X12415000Y-7475000D01*
X12415000Y-7445000D02*
X12385000Y-7475000D01*
X12385000Y-7525000D02*
X12415000Y-7555000D01*
X12415000Y-7525000D02*
X12385000Y-7555000D01*
X12385000Y-7605000D02*
X12415000Y-7635000D01*
X12415000Y-7605000D02*
X12385000Y-7635000D01*
X12465000Y-6885000D02*
X12495000Y-6915000D01*
X12495000Y-6885000D02*
X12465000Y-6915000D01*
X12465000Y-6965000D02*
X12495000Y-6995000D01*
X12495000Y-6965000D02*
X12465000Y-6995000D01*
X12465000Y-7045000D02*
X12495000Y-7075000D01*
X12495000Y-7045000D02*
X12465000Y-7075000D01*
X12465000Y-7125000D02*
X12495000Y-7155000D01*
X12495000Y-7125000D02*
X12465000Y-7155000D01*
X12465000Y-7205000D02*
X12495000Y-7235000D01*
X12495000Y-7205000D02*
X12465000Y-7235000D01*
X12465000Y-7285000D02*
X12495000Y-7315000D01*
X12495000Y-7285000D02*
X12465000Y-7315000D01*
X12465000Y-7365000D02*
X12495000Y-7395000D01*
X12495000Y-7365000D02*
X12465000Y-7395000D01*
X12465000Y-7445000D02*
X12495000Y-7475000D01*
X12495000Y-7445000D02*
X12465000Y-7475000D01*
X12465000Y-7525000D02*
X12495000Y-7555000D01*
X12495000Y-7525000D02*
X12465000Y-7555000D01*
X12465000Y-7605000D02*
X12495000Y-7635000D01*
X12495000Y-7605000D02*
X12465000Y-7635000D01*
X12545000Y-6885000D02*
X12575000Y-6915000D01*
X12575000Y-6885000D02*
X12545000Y-6915000D01*
X12545000Y-6965000D02*
X12575000Y-6995000D01*
X12575000Y-6965000D02*
X12545000Y-6995000D01*
X12545000Y-7045000D02*
X12575000Y-7075000D01*
X12575000Y-7045000D02*
X12545000Y-7075000D01*
X12545000Y-7125000D02*
X12575000Y-7155000D01*
X12575000Y-7125000D02*
X12545000Y-7155000D01*
X12545000Y-7205000D02*
X12575000Y-7235000D01*
X12575000Y-7205000D02*
X12545000Y-7235000D01*
X12545000Y-7285000D02*
X12575000Y-7315000D01*
X12575000Y-7285000D02*
X12545000Y-7315000D01*
X12545000Y-7365000D02*
X12575000Y-7395000D01*
X12575000Y-7365000D02*
X12545000Y-7395000D01*
X12545000Y-7445000D02*
X12575000Y-7475000D01*
X12575000Y-7445000D02*
X12545000Y-7475000D01*
X12545000Y-7525000D02*
X12575000Y-7555000D01*
X12575000Y-7525000D02*
X12545000Y-7555000D01*
X12545000Y-7605000D02*
X12575000Y-7635000D01*
X12575000Y-7605000D02*
X12545000Y-7635000D01*
X12625000Y-6885000D02*
X12655000Y-6915000D01*
X12655000Y-6885000D02*
X12625000Y-6915000D01*
X12625000Y-6965000D02*
X12655000Y-6995000D01*
X12655000Y-6965000D02*
X12625000Y-6995000D01*
X12625000Y-7045000D02*
X12655000Y-7075000D01*
X12655000Y-7045000D02*
X12625000Y-7075000D01*
X12625000Y-7125000D02*
X12655000Y-7155000D01*
X12655000Y-7125000D02*
X12625000Y-7155000D01*
X12625000Y-7205000D02*
X12655000Y-7235000D01*
X12655000Y-7205000D02*
X12625000Y-7235000D01*
X12625000Y-7285000D02*
X12655000Y-7315000D01*
X12655000Y-7285000D02*
X12625000Y-7315000D01*
X12625000Y-7365000D02*
X12655000Y-7395000D01*
X12655000Y-7365000D02*
X12625000Y-7395000D01*
X12625000Y-7445000D02*
X12655000Y-7475000D01*
X12655000Y-7445000D02*
X12625000Y-7475000D01*
X12625000Y-7525000D02*
X12655000Y-7555000D01*
X12655000Y-7525000D02*
X12625000Y-7555000D01*
X12625000Y-7605000D02*
X12655000Y-7635000D01*
X12655000Y-7605000D02*
X12625000Y-7635000D01*
X13025000Y-6645000D02*
X13055000Y-6675000D01*
X13055000Y-6645000D02*
X13025000Y-6675000D01*
X13025000Y-7605000D02*
X13055000Y-7635000D01*
X13055000Y-7605000D02*
X13025000Y-7635000D01*
X13035000Y-7215000D02*
X13065000Y-7245000D01*
X13065000Y-7215000D02*
X13035000Y-7245000D01*
X13035000Y-7275000D02*
X13065000Y-7305000D01*
X13065000Y-7275000D02*
X13035000Y-7305000D01*
X13075000Y-7535000D02*
X13105000Y-7565000D01*
X13105000Y-7535000D02*
X13075000Y-7565000D01*
X13085000Y-6765000D02*
X13115000Y-6795000D01*
X13115000Y-6765000D02*
X13085000Y-6795000D01*
X13185000Y-6765000D02*
X13215000Y-6795000D01*
X13215000Y-6765000D02*
X13185000Y-6795000D01*
X13285000Y-6765000D02*
X13315000Y-6795000D01*
X13315000Y-6765000D02*
X13285000Y-6795000D01*
X13340000Y-7845000D02*
X13370000Y-7875000D01*
X13370000Y-7845000D02*
X13340000Y-7875000D01*
X13385000Y-6765000D02*
X13415000Y-6795000D01*
X13415000Y-6765000D02*
X13385000Y-6795000D01*
X13525000Y-7485000D02*
X13555000Y-7515000D01*
X13555000Y-7485000D02*
X13525000Y-7515000D01*
X13585000Y-5815000D02*
X13615000Y-5845000D01*
X13615000Y-5815000D02*
X13585000Y-5845000D01*
X13585000Y-5895000D02*
X13615000Y-5925000D01*
X13615000Y-5895000D02*
X13585000Y-5925000D01*
X13585000Y-5975000D02*
X13615000Y-6005000D01*
X13615000Y-5975000D02*
X13585000Y-6005000D01*
X13585000Y-6055000D02*
X13615000Y-6085000D01*
X13615000Y-6055000D02*
X13585000Y-6085000D01*
X13585000Y-6135000D02*
X13615000Y-6165000D01*
X13615000Y-6135000D02*
X13585000Y-6165000D01*
X13585000Y-6215000D02*
X13615000Y-6245000D01*
X13615000Y-6215000D02*
X13585000Y-6245000D01*
X13585000Y-6295000D02*
X13615000Y-6325000D01*
X13615000Y-6295000D02*
X13585000Y-6325000D01*
X13585000Y-6375000D02*
X13615000Y-6405000D01*
X13615000Y-6375000D02*
X13585000Y-6405000D01*
X13585000Y-6455000D02*
X13615000Y-6485000D01*
X13615000Y-6455000D02*
X13585000Y-6485000D01*
X13585000Y-6535000D02*
X13615000Y-6565000D01*
X13615000Y-6535000D02*
X13585000Y-6565000D01*
X13585000Y-6615000D02*
X13615000Y-6645000D01*
X13615000Y-6615000D02*
X13585000Y-6645000D01*
X13585000Y-6695000D02*
X13615000Y-6725000D01*
X13615000Y-6695000D02*
X13585000Y-6725000D01*
X13585000Y-6775000D02*
X13615000Y-6805000D01*
X13615000Y-6775000D02*
X13585000Y-6805000D01*
X13585000Y-7305000D02*
X13615000Y-7335000D01*
X13615000Y-7305000D02*
X13585000Y-7335000D01*
X13685000Y-5815000D02*
X13715000Y-5845000D01*
X13715000Y-5815000D02*
X13685000Y-5845000D01*
X13685000Y-5895000D02*
X13715000Y-5925000D01*
X13715000Y-5895000D02*
X13685000Y-5925000D01*
X13685000Y-5975000D02*
X13715000Y-6005000D01*
X13715000Y-5975000D02*
X13685000Y-6005000D01*
X13685000Y-6055000D02*
X13715000Y-6085000D01*
X13715000Y-6055000D02*
X13685000Y-6085000D01*
X13685000Y-6135000D02*
X13715000Y-6165000D01*
X13715000Y-6135000D02*
X13685000Y-6165000D01*
X13685000Y-6215000D02*
X13715000Y-6245000D01*
X13715000Y-6215000D02*
X13685000Y-6245000D01*
X13685000Y-6295000D02*
X13715000Y-6325000D01*
X13715000Y-6295000D02*
X13685000Y-6325000D01*
X13685000Y-6375000D02*
X13715000Y-6405000D01*
X13715000Y-6375000D02*
X13685000Y-6405000D01*
X13685000Y-6455000D02*
X13715000Y-6485000D01*
X13715000Y-6455000D02*
X13685000Y-6485000D01*
X13685000Y-6535000D02*
X13715000Y-6565000D01*
X13715000Y-6535000D02*
X13685000Y-6565000D01*
X13685000Y-6615000D02*
X13715000Y-6645000D01*
X13715000Y-6615000D02*
X13685000Y-6645000D01*
X13685000Y-6695000D02*
X13715000Y-6725000D01*
X13715000Y-6695000D02*
X13685000Y-6725000D01*
X13685000Y-6775000D02*
X13715000Y-6805000D01*
X13715000Y-6775000D02*
X13685000Y-6805000D01*
X13785000Y-5815000D02*
X13815000Y-5845000D01*
X13815000Y-5815000D02*
X13785000Y-5845000D01*
X13785000Y-5895000D02*
X13815000Y-5925000D01*
X13815000Y-5895000D02*
X13785000Y-5925000D01*
X13785000Y-5975000D02*
X13815000Y-6005000D01*
X13815000Y-5975000D02*
X13785000Y-6005000D01*
X13785000Y-6055000D02*
X13815000Y-6085000D01*
X13815000Y-6055000D02*
X13785000Y-6085000D01*
X13785000Y-6135000D02*
X13815000Y-6165000D01*
X13815000Y-6135000D02*
X13785000Y-6165000D01*
X13785000Y-6215000D02*
X13815000Y-6245000D01*
X13815000Y-6215000D02*
X13785000Y-6245000D01*
X13785000Y-6295000D02*
X13815000Y-6325000D01*
X13815000Y-6295000D02*
X13785000Y-6325000D01*
X13785000Y-6375000D02*
X13815000Y-6405000D01*
X13815000Y-6375000D02*
X13785000Y-6405000D01*
X13785000Y-6455000D02*
X13815000Y-6485000D01*
X13815000Y-6455000D02*
X13785000Y-6485000D01*
X13785000Y-6535000D02*
X13815000Y-6565000D01*
X13815000Y-6535000D02*
X13785000Y-6565000D01*
X13785000Y-6615000D02*
X13815000Y-6645000D01*
X13815000Y-6615000D02*
X13785000Y-6645000D01*
X13785000Y-6695000D02*
X13815000Y-6725000D01*
X13815000Y-6695000D02*
X13785000Y-6725000D01*
X13785000Y-6775000D02*
X13815000Y-6805000D01*
X13815000Y-6775000D02*
X13785000Y-6805000D01*
X13825000Y-8225000D02*
X13855000Y-8255000D01*
X13855000Y-8225000D02*
X13825000Y-8255000D01*
X13885000Y-5815000D02*
X13915000Y-5845000D01*
X13915000Y-5815000D02*
X13885000Y-5845000D01*
X13885000Y-5895000D02*
X13915000Y-5925000D01*
X13915000Y-5895000D02*
X13885000Y-5925000D01*
X13885000Y-5975000D02*
X13915000Y-6005000D01*
X13915000Y-5975000D02*
X13885000Y-6005000D01*
X13885000Y-6055000D02*
X13915000Y-6085000D01*
X13915000Y-6055000D02*
X13885000Y-6085000D01*
X13885000Y-6135000D02*
X13915000Y-6165000D01*
X13915000Y-6135000D02*
X13885000Y-6165000D01*
X13885000Y-6215000D02*
X13915000Y-6245000D01*
X13915000Y-6215000D02*
X13885000Y-6245000D01*
X13885000Y-6295000D02*
X13915000Y-6325000D01*
X13915000Y-6295000D02*
X13885000Y-6325000D01*
X13885000Y-6375000D02*
X13915000Y-6405000D01*
X13915000Y-6375000D02*
X13885000Y-6405000D01*
X13885000Y-6455000D02*
X13915000Y-6485000D01*
X13915000Y-6455000D02*
X13885000Y-6485000D01*
X13885000Y-6535000D02*
X13915000Y-6565000D01*
X13915000Y-6535000D02*
X13885000Y-6565000D01*
X13885000Y-6615000D02*
X13915000Y-6645000D01*
X13915000Y-6615000D02*
X13885000Y-6645000D01*
X13885000Y-6695000D02*
X13915000Y-6725000D01*
X13915000Y-6695000D02*
X13885000Y-6725000D01*
X13885000Y-6775000D02*
X13915000Y-6805000D01*
X13915000Y-6775000D02*
X13885000Y-6805000D01*
X13925000Y-8225000D02*
X13955000Y-8255000D01*
X13955000Y-8225000D02*
X13925000Y-8255000D01*
X13985000Y-5815000D02*
X14015000Y-5845000D01*
X14015000Y-5815000D02*
X13985000Y-5845000D01*
X13985000Y-5895000D02*
X14015000Y-5925000D01*
X14015000Y-5895000D02*
X13985000Y-5925000D01*
X13985000Y-5975000D02*
X14015000Y-6005000D01*
X14015000Y-5975000D02*
X13985000Y-6005000D01*
X13985000Y-6055000D02*
X14015000Y-6085000D01*
X14015000Y-6055000D02*
X13985000Y-6085000D01*
X13985000Y-6135000D02*
X14015000Y-6165000D01*
X14015000Y-6135000D02*
X13985000Y-6165000D01*
X13985000Y-6215000D02*
X14015000Y-6245000D01*
X14015000Y-6215000D02*
X13985000Y-6245000D01*
X13985000Y-6295000D02*
X14015000Y-6325000D01*
X14015000Y-6295000D02*
X13985000Y-6325000D01*
X13985000Y-6375000D02*
X14015000Y-6405000D01*
X14015000Y-6375000D02*
X13985000Y-6405000D01*
X13985000Y-6455000D02*
X14015000Y-6485000D01*
X14015000Y-6455000D02*
X13985000Y-6485000D01*
X13985000Y-6535000D02*
X14015000Y-6565000D01*
X14015000Y-6535000D02*
X13985000Y-6565000D01*
X13985000Y-6615000D02*
X14015000Y-6645000D01*
X14015000Y-6615000D02*
X13985000Y-6645000D01*
X13985000Y-6695000D02*
X14015000Y-6725000D01*
X14015000Y-6695000D02*
X13985000Y-6725000D01*
X13985000Y-6775000D02*
X14015000Y-6805000D01*
X14015000Y-6775000D02*
X13985000Y-6805000D01*
X14025000Y-8225000D02*
X14055000Y-8255000D01*
X14055000Y-8225000D02*
X14025000Y-8255000D01*
X14085000Y-5815000D02*
X14115000Y-5845000D01*
X14115000Y-5815000D02*
X14085000Y-5845000D01*
X14085000Y-5895000D02*
X14115000Y-5925000D01*
X14115000Y-5895000D02*
X14085000Y-5925000D01*
X14085000Y-5975000D02*
X14115000Y-6005000D01*
X14115000Y-5975000D02*
X14085000Y-6005000D01*
X14085000Y-6055000D02*
X14115000Y-6085000D01*
X14115000Y-6055000D02*
X14085000Y-6085000D01*
X14085000Y-6135000D02*
X14115000Y-6165000D01*
X14115000Y-6135000D02*
X14085000Y-6165000D01*
X14085000Y-6215000D02*
X14115000Y-6245000D01*
X14115000Y-6215000D02*
X14085000Y-6245000D01*
X14085000Y-6295000D02*
X14115000Y-6325000D01*
X14115000Y-6295000D02*
X14085000Y-6325000D01*
X14085000Y-6375000D02*
X14115000Y-6405000D01*
X14115000Y-6375000D02*
X14085000Y-6405000D01*
X14085000Y-6455000D02*
X14115000Y-6485000D01*
X14115000Y-6455000D02*
X14085000Y-6485000D01*
X14085000Y-6535000D02*
X14115000Y-6565000D01*
X14115000Y-6535000D02*
X14085000Y-6565000D01*
X14085000Y-6615000D02*
X14115000Y-6645000D01*
X14115000Y-6615000D02*
X14085000Y-6645000D01*
X14085000Y-6695000D02*
X14115000Y-6725000D01*
X14115000Y-6695000D02*
X14085000Y-6725000D01*
X14085000Y-6775000D02*
X14115000Y-6805000D01*
X14115000Y-6775000D02*
X14085000Y-6805000D01*
X14125000Y-8225000D02*
X14155000Y-8255000D01*
X14155000Y-8225000D02*
X14125000Y-8255000D01*
X14185000Y-5815000D02*
X14215000Y-5845000D01*
X14215000Y-5815000D02*
X14185000Y-5845000D01*
X14185000Y-5895000D02*
X14215000Y-5925000D01*
X14215000Y-5895000D02*
X14185000Y-5925000D01*
X14185000Y-5975000D02*
X14215000Y-6005000D01*
X14215000Y-5975000D02*
X14185000Y-6005000D01*
X14185000Y-6055000D02*
X14215000Y-6085000D01*
X14215000Y-6055000D02*
X14185000Y-6085000D01*
X14185000Y-6135000D02*
X14215000Y-6165000D01*
X14215000Y-6135000D02*
X14185000Y-6165000D01*
X14185000Y-6215000D02*
X14215000Y-6245000D01*
X14215000Y-6215000D02*
X14185000Y-6245000D01*
X14185000Y-6295000D02*
X14215000Y-6325000D01*
X14215000Y-6295000D02*
X14185000Y-6325000D01*
X14185000Y-6375000D02*
X14215000Y-6405000D01*
X14215000Y-6375000D02*
X14185000Y-6405000D01*
X14185000Y-6455000D02*
X14215000Y-6485000D01*
X14215000Y-6455000D02*
X14185000Y-6485000D01*
X14185000Y-6535000D02*
X14215000Y-6565000D01*
X14215000Y-6535000D02*
X14185000Y-6565000D01*
X14185000Y-6615000D02*
X14215000Y-6645000D01*
X14215000Y-6615000D02*
X14185000Y-6645000D01*
X14185000Y-6695000D02*
X14215000Y-6725000D01*
X14215000Y-6695000D02*
X14185000Y-6725000D01*
X14185000Y-6775000D02*
X14215000Y-6805000D01*
X14215000Y-6775000D02*
X14185000Y-6805000D01*
X14285000Y-5815000D02*
X14315000Y-5845000D01*
X14315000Y-5815000D02*
X14285000Y-5845000D01*
X14285000Y-5895000D02*
X14315000Y-5925000D01*
X14315000Y-5895000D02*
X14285000Y-5925000D01*
X14285000Y-5975000D02*
X14315000Y-6005000D01*
X14315000Y-5975000D02*
X14285000Y-6005000D01*
X14285000Y-6055000D02*
X14315000Y-6085000D01*
X14315000Y-6055000D02*
X14285000Y-6085000D01*
X14285000Y-6135000D02*
X14315000Y-6165000D01*
X14315000Y-6135000D02*
X14285000Y-6165000D01*
X14285000Y-6215000D02*
X14315000Y-6245000D01*
X14315000Y-6215000D02*
X14285000Y-6245000D01*
X14285000Y-6295000D02*
X14315000Y-6325000D01*
X14315000Y-6295000D02*
X14285000Y-6325000D01*
X14285000Y-6375000D02*
X14315000Y-6405000D01*
X14315000Y-6375000D02*
X14285000Y-6405000D01*
X14285000Y-6455000D02*
X14315000Y-6485000D01*
X14315000Y-6455000D02*
X14285000Y-6485000D01*
X14285000Y-6535000D02*
X14315000Y-6565000D01*
X14315000Y-6535000D02*
X14285000Y-6565000D01*
X14285000Y-6615000D02*
X14315000Y-6645000D01*
X14315000Y-6615000D02*
X14285000Y-6645000D01*
X14285000Y-6695000D02*
X14315000Y-6725000D01*
X14315000Y-6695000D02*
X14285000Y-6725000D01*
X14285000Y-6775000D02*
X14315000Y-6805000D01*
X14315000Y-6775000D02*
X14285000Y-6805000D01*
X14515000Y-7375000D02*
X14545000Y-7405000D01*
X14545000Y-7375000D02*
X14515000Y-7405000D01*
X14825000Y-8125000D02*
X14855000Y-8155000D01*
X14855000Y-8125000D02*
X14825000Y-8155000D01*
X15305000Y-5830000D02*
X15335000Y-5860000D01*
X15335000Y-5830000D02*
X15305000Y-5860000D01*
X15305000Y-5910000D02*
X15335000Y-5940000D01*
X15335000Y-5910000D02*
X15305000Y-5940000D01*
X15305000Y-5990000D02*
X15335000Y-6020000D01*
X15335000Y-5990000D02*
X15305000Y-6020000D01*
X15305000Y-6070000D02*
X15335000Y-6100000D01*
X15335000Y-6070000D02*
X15305000Y-6100000D01*
X15305000Y-6150000D02*
X15335000Y-6180000D01*
X15335000Y-6150000D02*
X15305000Y-6180000D01*
X15305000Y-6230000D02*
X15335000Y-6260000D01*
X15335000Y-6230000D02*
X15305000Y-6260000D01*
X15305000Y-6310000D02*
X15335000Y-6340000D01*
X15335000Y-6310000D02*
X15305000Y-6340000D01*
X15305000Y-6390000D02*
X15335000Y-6420000D01*
X15335000Y-6390000D02*
X15305000Y-6420000D01*
X15305000Y-6470000D02*
X15335000Y-6500000D01*
X15335000Y-6470000D02*
X15305000Y-6500000D01*
X15305000Y-6550000D02*
X15335000Y-6580000D01*
X15335000Y-6550000D02*
X15305000Y-6580000D01*
X15305000Y-6630000D02*
X15335000Y-6660000D01*
X15335000Y-6630000D02*
X15305000Y-6660000D01*
X15305000Y-6710000D02*
X15335000Y-6740000D01*
X15335000Y-6710000D02*
X15305000Y-6740000D01*
X15305000Y-6790000D02*
X15335000Y-6820000D01*
X15335000Y-6790000D02*
X15305000Y-6820000D01*
X15305000Y-7145000D02*
X15335000Y-7175000D01*
X15335000Y-7145000D02*
X15305000Y-7175000D01*
X15305000Y-7225000D02*
X15335000Y-7255000D01*
X15335000Y-7225000D02*
X15305000Y-7255000D01*
X15305000Y-7305000D02*
X15335000Y-7335000D01*
X15335000Y-7305000D02*
X15305000Y-7335000D01*
X15305000Y-7385000D02*
X15335000Y-7415000D01*
X15335000Y-7385000D02*
X15305000Y-7415000D01*
X15305000Y-7465000D02*
X15335000Y-7495000D01*
X15335000Y-7465000D02*
X15305000Y-7495000D01*
X15305000Y-7545000D02*
X15335000Y-7575000D01*
X15335000Y-7545000D02*
X15305000Y-7575000D01*
X15305000Y-7625000D02*
X15335000Y-7655000D01*
X15335000Y-7625000D02*
X15305000Y-7655000D01*
X15305000Y-7705000D02*
X15335000Y-7735000D01*
X15335000Y-7705000D02*
X15305000Y-7735000D01*
X15305000Y-7785000D02*
X15335000Y-7815000D01*
X15335000Y-7785000D02*
X15305000Y-7815000D01*
X15305000Y-7865000D02*
X15335000Y-7895000D01*
X15335000Y-7865000D02*
X15305000Y-7895000D01*
X15305000Y-7945000D02*
X15335000Y-7975000D01*
X15335000Y-7945000D02*
X15305000Y-7975000D01*
X15305000Y-8025000D02*
X15335000Y-8055000D01*
X15335000Y-8025000D02*
X15305000Y-8055000D01*
X15305000Y-8105000D02*
X15335000Y-8135000D01*
X15335000Y-8105000D02*
X15305000Y-8135000D01*
X15385000Y-5830000D02*
X15415000Y-5860000D01*
X15415000Y-5830000D02*
X15385000Y-5860000D01*
X15385000Y-5910000D02*
X15415000Y-5940000D01*
X15415000Y-5910000D02*
X15385000Y-5940000D01*
X15385000Y-5990000D02*
X15415000Y-6020000D01*
X15415000Y-5990000D02*
X15385000Y-6020000D01*
X15385000Y-6070000D02*
X15415000Y-6100000D01*
X15415000Y-6070000D02*
X15385000Y-6100000D01*
X15385000Y-6150000D02*
X15415000Y-6180000D01*
X15415000Y-6150000D02*
X15385000Y-6180000D01*
X15385000Y-6230000D02*
X15415000Y-6260000D01*
X15415000Y-6230000D02*
X15385000Y-6260000D01*
X15385000Y-6310000D02*
X15415000Y-6340000D01*
X15415000Y-6310000D02*
X15385000Y-6340000D01*
X15385000Y-6390000D02*
X15415000Y-6420000D01*
X15415000Y-6390000D02*
X15385000Y-6420000D01*
X15385000Y-6470000D02*
X15415000Y-6500000D01*
X15415000Y-6470000D02*
X15385000Y-6500000D01*
X15385000Y-6550000D02*
X15415000Y-6580000D01*
X15415000Y-6550000D02*
X15385000Y-6580000D01*
X15385000Y-6630000D02*
X15415000Y-6660000D01*
X15415000Y-6630000D02*
X15385000Y-6660000D01*
X15385000Y-6710000D02*
X15415000Y-6740000D01*
X15415000Y-6710000D02*
X15385000Y-6740000D01*
X15385000Y-6790000D02*
X15415000Y-6820000D01*
X15415000Y-6790000D02*
X15385000Y-6820000D01*
X15385000Y-7145000D02*
X15415000Y-7175000D01*
X15415000Y-7145000D02*
X15385000Y-7175000D01*
X15385000Y-7225000D02*
X15415000Y-7255000D01*
X15415000Y-7225000D02*
X15385000Y-7255000D01*
X15385000Y-7305000D02*
X15415000Y-7335000D01*
X15415000Y-7305000D02*
X15385000Y-7335000D01*
X15385000Y-7385000D02*
X15415000Y-7415000D01*
X15415000Y-7385000D02*
X15385000Y-7415000D01*
X15385000Y-7465000D02*
X15415000Y-7495000D01*
X15415000Y-7465000D02*
X15385000Y-7495000D01*
X15385000Y-7545000D02*
X15415000Y-7575000D01*
X15415000Y-7545000D02*
X15385000Y-7575000D01*
X15385000Y-7625000D02*
X15415000Y-7655000D01*
X15415000Y-7625000D02*
X15385000Y-7655000D01*
X15385000Y-7705000D02*
X15415000Y-7735000D01*
X15415000Y-7705000D02*
X15385000Y-7735000D01*
X15385000Y-7785000D02*
X15415000Y-7815000D01*
X15415000Y-7785000D02*
X15385000Y-7815000D01*
X15385000Y-7865000D02*
X15415000Y-7895000D01*
X15415000Y-7865000D02*
X15385000Y-7895000D01*
X15385000Y-7945000D02*
X15415000Y-7975000D01*
X15415000Y-7945000D02*
X15385000Y-7975000D01*
X15385000Y-8025000D02*
X15415000Y-8055000D01*
X15415000Y-8025000D02*
X15385000Y-8055000D01*
X15385000Y-8105000D02*
X15415000Y-8135000D01*
X15415000Y-8105000D02*
X15385000Y-8135000D01*
X15465000Y-5830000D02*
X15495000Y-5860000D01*
X15495000Y-5830000D02*
X15465000Y-5860000D01*
X15465000Y-5910000D02*
X15495000Y-5940000D01*
X15495000Y-5910000D02*
X15465000Y-5940000D01*
X15465000Y-5990000D02*
X15495000Y-6020000D01*
X15495000Y-5990000D02*
X15465000Y-6020000D01*
X15465000Y-6070000D02*
X15495000Y-6100000D01*
X15495000Y-6070000D02*
X15465000Y-6100000D01*
X15465000Y-6150000D02*
X15495000Y-6180000D01*
X15495000Y-6150000D02*
X15465000Y-6180000D01*
X15465000Y-6230000D02*
X15495000Y-6260000D01*
X15495000Y-6230000D02*
X15465000Y-6260000D01*
X15465000Y-6310000D02*
X15495000Y-6340000D01*
X15495000Y-6310000D02*
X15465000Y-6340000D01*
X15465000Y-6390000D02*
X15495000Y-6420000D01*
X15495000Y-6390000D02*
X15465000Y-6420000D01*
X15465000Y-6470000D02*
X15495000Y-6500000D01*
X15495000Y-6470000D02*
X15465000Y-6500000D01*
X15465000Y-6550000D02*
X15495000Y-6580000D01*
X15495000Y-6550000D02*
X15465000Y-6580000D01*
X15465000Y-6630000D02*
X15495000Y-6660000D01*
X15495000Y-6630000D02*
X15465000Y-6660000D01*
X15465000Y-6710000D02*
X15495000Y-6740000D01*
X15495000Y-6710000D02*
X15465000Y-6740000D01*
X15465000Y-6790000D02*
X15495000Y-6820000D01*
X15495000Y-6790000D02*
X15465000Y-6820000D01*
X15465000Y-7145000D02*
X15495000Y-7175000D01*
X15495000Y-7145000D02*
X15465000Y-7175000D01*
X15465000Y-7225000D02*
X15495000Y-7255000D01*
X15495000Y-7225000D02*
X15465000Y-7255000D01*
X15465000Y-7305000D02*
X15495000Y-7335000D01*
X15495000Y-7305000D02*
X15465000Y-7335000D01*
X15465000Y-7385000D02*
X15495000Y-7415000D01*
X15495000Y-7385000D02*
X15465000Y-7415000D01*
X15465000Y-7465000D02*
X15495000Y-7495000D01*
X15495000Y-7465000D02*
X15465000Y-7495000D01*
X15465000Y-7545000D02*
X15495000Y-7575000D01*
X15495000Y-7545000D02*
X15465000Y-7575000D01*
X15465000Y-7625000D02*
X15495000Y-7655000D01*
X15495000Y-7625000D02*
X15465000Y-7655000D01*
X15465000Y-7705000D02*
X15495000Y-7735000D01*
X15495000Y-7705000D02*
X15465000Y-7735000D01*
X15465000Y-7785000D02*
X15495000Y-7815000D01*
X15495000Y-7785000D02*
X15465000Y-7815000D01*
X15465000Y-7865000D02*
X15495000Y-7895000D01*
X15495000Y-7865000D02*
X15465000Y-7895000D01*
X15465000Y-7945000D02*
X15495000Y-7975000D01*
X15495000Y-7945000D02*
X15465000Y-7975000D01*
X15465000Y-8025000D02*
X15495000Y-8055000D01*
X15495000Y-8025000D02*
X15465000Y-8055000D01*
X15465000Y-8105000D02*
X15495000Y-8135000D01*
X15495000Y-8105000D02*
X15465000Y-8135000D01*
X15545000Y-5830000D02*
X15575000Y-5860000D01*
X15575000Y-5830000D02*
X15545000Y-5860000D01*
X15545000Y-5910000D02*
X15575000Y-5940000D01*
X15575000Y-5910000D02*
X15545000Y-5940000D01*
X15545000Y-5990000D02*
X15575000Y-6020000D01*
X15575000Y-5990000D02*
X15545000Y-6020000D01*
X15545000Y-6070000D02*
X15575000Y-6100000D01*
X15575000Y-6070000D02*
X15545000Y-6100000D01*
X15545000Y-6150000D02*
X15575000Y-6180000D01*
X15575000Y-6150000D02*
X15545000Y-6180000D01*
X15545000Y-6230000D02*
X15575000Y-6260000D01*
X15575000Y-6230000D02*
X15545000Y-6260000D01*
X15545000Y-6310000D02*
X15575000Y-6340000D01*
X15575000Y-6310000D02*
X15545000Y-6340000D01*
X15545000Y-6390000D02*
X15575000Y-6420000D01*
X15575000Y-6390000D02*
X15545000Y-6420000D01*
X15545000Y-6470000D02*
X15575000Y-6500000D01*
X15575000Y-6470000D02*
X15545000Y-6500000D01*
X15545000Y-6550000D02*
X15575000Y-6580000D01*
X15575000Y-6550000D02*
X15545000Y-6580000D01*
X15545000Y-6630000D02*
X15575000Y-6660000D01*
X15575000Y-6630000D02*
X15545000Y-6660000D01*
X15545000Y-6710000D02*
X15575000Y-6740000D01*
X15575000Y-6710000D02*
X15545000Y-6740000D01*
X15545000Y-6790000D02*
X15575000Y-6820000D01*
X15575000Y-6790000D02*
X15545000Y-6820000D01*
X15545000Y-7145000D02*
X15575000Y-7175000D01*
X15575000Y-7145000D02*
X15545000Y-7175000D01*
X15545000Y-7225000D02*
X15575000Y-7255000D01*
X15575000Y-7225000D02*
X15545000Y-7255000D01*
X15545000Y-7305000D02*
X15575000Y-7335000D01*
X15575000Y-7305000D02*
X15545000Y-7335000D01*
X15545000Y-7385000D02*
X15575000Y-7415000D01*
X15575000Y-7385000D02*
X15545000Y-7415000D01*
X15545000Y-7465000D02*
X15575000Y-7495000D01*
X15575000Y-7465000D02*
X15545000Y-7495000D01*
X15545000Y-7545000D02*
X15575000Y-7575000D01*
X15575000Y-7545000D02*
X15545000Y-7575000D01*
X15545000Y-7625000D02*
X15575000Y-7655000D01*
X15575000Y-7625000D02*
X15545000Y-7655000D01*
X15545000Y-7705000D02*
X15575000Y-7735000D01*
X15575000Y-7705000D02*
X15545000Y-7735000D01*
X15545000Y-7785000D02*
X15575000Y-7815000D01*
X15575000Y-7785000D02*
X15545000Y-7815000D01*
X15545000Y-7865000D02*
X15575000Y-7895000D01*
X15575000Y-7865000D02*
X15545000Y-7895000D01*
X15545000Y-7945000D02*
X15575000Y-7975000D01*
X15575000Y-7945000D02*
X15545000Y-7975000D01*
X15545000Y-8025000D02*
X15575000Y-8055000D01*
X15575000Y-8025000D02*
X15545000Y-8055000D01*
X15545000Y-8105000D02*
X15575000Y-8135000D01*
X15575000Y-8105000D02*
X15545000Y-8135000D01*
X15625000Y-5830000D02*
X15655000Y-5860000D01*
X15655000Y-5830000D02*
X15625000Y-5860000D01*
X15625000Y-5910000D02*
X15655000Y-5940000D01*
X15655000Y-5910000D02*
X15625000Y-5940000D01*
X15625000Y-5990000D02*
X15655000Y-6020000D01*
X15655000Y-5990000D02*
X15625000Y-6020000D01*
X15625000Y-6070000D02*
X15655000Y-6100000D01*
X15655000Y-6070000D02*
X15625000Y-6100000D01*
X15625000Y-6150000D02*
X15655000Y-6180000D01*
X15655000Y-6150000D02*
X15625000Y-6180000D01*
X15625000Y-6230000D02*
X15655000Y-6260000D01*
X15655000Y-6230000D02*
X15625000Y-6260000D01*
X15625000Y-6310000D02*
X15655000Y-6340000D01*
X15655000Y-6310000D02*
X15625000Y-6340000D01*
X15625000Y-6390000D02*
X15655000Y-6420000D01*
X15655000Y-6390000D02*
X15625000Y-6420000D01*
X15625000Y-6470000D02*
X15655000Y-6500000D01*
X15655000Y-6470000D02*
X15625000Y-6500000D01*
X15625000Y-6550000D02*
X15655000Y-6580000D01*
X15655000Y-6550000D02*
X15625000Y-6580000D01*
X15625000Y-6630000D02*
X15655000Y-6660000D01*
X15655000Y-6630000D02*
X15625000Y-6660000D01*
X15625000Y-6710000D02*
X15655000Y-6740000D01*
X15655000Y-6710000D02*
X15625000Y-6740000D01*
X15625000Y-6790000D02*
X15655000Y-6820000D01*
X15655000Y-6790000D02*
X15625000Y-6820000D01*
X15625000Y-7145000D02*
X15655000Y-7175000D01*
X15655000Y-7145000D02*
X15625000Y-7175000D01*
X15625000Y-7225000D02*
X15655000Y-7255000D01*
X15655000Y-7225000D02*
X15625000Y-7255000D01*
X15625000Y-7305000D02*
X15655000Y-7335000D01*
X15655000Y-7305000D02*
X15625000Y-7335000D01*
X15625000Y-7385000D02*
X15655000Y-7415000D01*
X15655000Y-7385000D02*
X15625000Y-7415000D01*
X15625000Y-7465000D02*
X15655000Y-7495000D01*
X15655000Y-7465000D02*
X15625000Y-7495000D01*
X15625000Y-7545000D02*
X15655000Y-7575000D01*
X15655000Y-7545000D02*
X15625000Y-7575000D01*
X15625000Y-7625000D02*
X15655000Y-7655000D01*
X15655000Y-7625000D02*
X15625000Y-7655000D01*
X15625000Y-7705000D02*
X15655000Y-7735000D01*
X15655000Y-7705000D02*
X15625000Y-7735000D01*
X15625000Y-7785000D02*
X15655000Y-7815000D01*
X15655000Y-7785000D02*
X15625000Y-7815000D01*
X15625000Y-7865000D02*
X15655000Y-7895000D01*
X15655000Y-7865000D02*
X15625000Y-7895000D01*
X15625000Y-7945000D02*
X15655000Y-7975000D01*
X15655000Y-7945000D02*
X15625000Y-7975000D01*
X15625000Y-8025000D02*
X15655000Y-8055000D01*
X15655000Y-8025000D02*
X15625000Y-8055000D01*
X15625000Y-8105000D02*
X15655000Y-8135000D01*
X15655000Y-8105000D02*
X15625000Y-8135000D01*
X15705000Y-5830000D02*
X15735000Y-5860000D01*
X15735000Y-5830000D02*
X15705000Y-5860000D01*
X15705000Y-5910000D02*
X15735000Y-5940000D01*
X15735000Y-5910000D02*
X15705000Y-5940000D01*
X15705000Y-5990000D02*
X15735000Y-6020000D01*
X15735000Y-5990000D02*
X15705000Y-6020000D01*
X15705000Y-6070000D02*
X15735000Y-6100000D01*
X15735000Y-6070000D02*
X15705000Y-6100000D01*
X15705000Y-6150000D02*
X15735000Y-6180000D01*
X15735000Y-6150000D02*
X15705000Y-6180000D01*
X15705000Y-6230000D02*
X15735000Y-6260000D01*
X15735000Y-6230000D02*
X15705000Y-6260000D01*
X15705000Y-6310000D02*
X15735000Y-6340000D01*
X15735000Y-6310000D02*
X15705000Y-6340000D01*
X15705000Y-6390000D02*
X15735000Y-6420000D01*
X15735000Y-6390000D02*
X15705000Y-6420000D01*
X15705000Y-6470000D02*
X15735000Y-6500000D01*
X15735000Y-6470000D02*
X15705000Y-6500000D01*
X15705000Y-6550000D02*
X15735000Y-6580000D01*
X15735000Y-6550000D02*
X15705000Y-6580000D01*
X15705000Y-6630000D02*
X15735000Y-6660000D01*
X15735000Y-6630000D02*
X15705000Y-6660000D01*
X15705000Y-6710000D02*
X15735000Y-6740000D01*
X15735000Y-6710000D02*
X15705000Y-6740000D01*
X15705000Y-6790000D02*
X15735000Y-6820000D01*
X15735000Y-6790000D02*
X15705000Y-6820000D01*
X15705000Y-7145000D02*
X15735000Y-7175000D01*
X15735000Y-7145000D02*
X15705000Y-7175000D01*
X15705000Y-7225000D02*
X15735000Y-7255000D01*
X15735000Y-7225000D02*
X15705000Y-7255000D01*
X15705000Y-7305000D02*
X15735000Y-7335000D01*
X15735000Y-7305000D02*
X15705000Y-7335000D01*
X15705000Y-7385000D02*
X15735000Y-7415000D01*
X15735000Y-7385000D02*
X15705000Y-7415000D01*
X15705000Y-7465000D02*
X15735000Y-7495000D01*
X15735000Y-7465000D02*
X15705000Y-7495000D01*
X15705000Y-7545000D02*
X15735000Y-7575000D01*
X15735000Y-7545000D02*
X15705000Y-7575000D01*
X15705000Y-7625000D02*
X15735000Y-7655000D01*
X15735000Y-7625000D02*
X15705000Y-7655000D01*
X15705000Y-7705000D02*
X15735000Y-7735000D01*
X15735000Y-7705000D02*
X15705000Y-7735000D01*
X15705000Y-7785000D02*
X15735000Y-7815000D01*
X15735000Y-7785000D02*
X15705000Y-7815000D01*
X15705000Y-7865000D02*
X15735000Y-7895000D01*
X15735000Y-7865000D02*
X15705000Y-7895000D01*
X15705000Y-7945000D02*
X15735000Y-7975000D01*
X15735000Y-7945000D02*
X15705000Y-7975000D01*
X15705000Y-8025000D02*
X15735000Y-8055000D01*
X15735000Y-8025000D02*
X15705000Y-8055000D01*
X15705000Y-8105000D02*
X15735000Y-8135000D01*
X15735000Y-8105000D02*
X15705000Y-8135000D01*
X15785000Y-5830000D02*
X15815000Y-5860000D01*
X15815000Y-5830000D02*
X15785000Y-5860000D01*
X15785000Y-5910000D02*
X15815000Y-5940000D01*
X15815000Y-5910000D02*
X15785000Y-5940000D01*
X15785000Y-5990000D02*
X15815000Y-6020000D01*
X15815000Y-5990000D02*
X15785000Y-6020000D01*
X15785000Y-6070000D02*
X15815000Y-6100000D01*
X15815000Y-6070000D02*
X15785000Y-6100000D01*
X15785000Y-6150000D02*
X15815000Y-6180000D01*
X15815000Y-6150000D02*
X15785000Y-6180000D01*
X15785000Y-6230000D02*
X15815000Y-6260000D01*
X15815000Y-6230000D02*
X15785000Y-6260000D01*
X15785000Y-6310000D02*
X15815000Y-6340000D01*
X15815000Y-6310000D02*
X15785000Y-6340000D01*
X15785000Y-6390000D02*
X15815000Y-6420000D01*
X15815000Y-6390000D02*
X15785000Y-6420000D01*
X15785000Y-6470000D02*
X15815000Y-6500000D01*
X15815000Y-6470000D02*
X15785000Y-6500000D01*
X15785000Y-6550000D02*
X15815000Y-6580000D01*
X15815000Y-6550000D02*
X15785000Y-6580000D01*
X15785000Y-6630000D02*
X15815000Y-6660000D01*
X15815000Y-6630000D02*
X15785000Y-6660000D01*
X15785000Y-6710000D02*
X15815000Y-6740000D01*
X15815000Y-6710000D02*
X15785000Y-6740000D01*
X15785000Y-6790000D02*
X15815000Y-6820000D01*
X15815000Y-6790000D02*
X15785000Y-6820000D01*
X15785000Y-7145000D02*
X15815000Y-7175000D01*
X15815000Y-7145000D02*
X15785000Y-7175000D01*
X15785000Y-7225000D02*
X15815000Y-7255000D01*
X15815000Y-7225000D02*
X15785000Y-7255000D01*
X15785000Y-7305000D02*
X15815000Y-7335000D01*
X15815000Y-7305000D02*
X15785000Y-7335000D01*
X15785000Y-7385000D02*
X15815000Y-7415000D01*
X15815000Y-7385000D02*
X15785000Y-7415000D01*
X15785000Y-7465000D02*
X15815000Y-7495000D01*
X15815000Y-7465000D02*
X15785000Y-7495000D01*
X15785000Y-7545000D02*
X15815000Y-7575000D01*
X15815000Y-7545000D02*
X15785000Y-7575000D01*
X15785000Y-7625000D02*
X15815000Y-7655000D01*
X15815000Y-7625000D02*
X15785000Y-7655000D01*
X15785000Y-7705000D02*
X15815000Y-7735000D01*
X15815000Y-7705000D02*
X15785000Y-7735000D01*
X15785000Y-7785000D02*
X15815000Y-7815000D01*
X15815000Y-7785000D02*
X15785000Y-7815000D01*
X15785000Y-7865000D02*
X15815000Y-7895000D01*
X15815000Y-7865000D02*
X15785000Y-7895000D01*
X15785000Y-7945000D02*
X15815000Y-7975000D01*
X15815000Y-7945000D02*
X15785000Y-7975000D01*
X15785000Y-8025000D02*
X15815000Y-8055000D01*
X15815000Y-8025000D02*
X15785000Y-8055000D01*
X15785000Y-8105000D02*
X15815000Y-8135000D01*
X15815000Y-8105000D02*
X15785000Y-8135000D01*
X15865000Y-5830000D02*
X15895000Y-5860000D01*
X15895000Y-5830000D02*
X15865000Y-5860000D01*
X15865000Y-5910000D02*
X15895000Y-5940000D01*
X15895000Y-5910000D02*
X15865000Y-5940000D01*
X15865000Y-5990000D02*
X15895000Y-6020000D01*
X15895000Y-5990000D02*
X15865000Y-6020000D01*
X15865000Y-6070000D02*
X15895000Y-6100000D01*
X15895000Y-6070000D02*
X15865000Y-6100000D01*
X15865000Y-6150000D02*
X15895000Y-6180000D01*
X15895000Y-6150000D02*
X15865000Y-6180000D01*
X15865000Y-6230000D02*
X15895000Y-6260000D01*
X15895000Y-6230000D02*
X15865000Y-6260000D01*
X15865000Y-6310000D02*
X15895000Y-6340000D01*
X15895000Y-6310000D02*
X15865000Y-6340000D01*
X15865000Y-6390000D02*
X15895000Y-6420000D01*
X15895000Y-6390000D02*
X15865000Y-6420000D01*
X15865000Y-6470000D02*
X15895000Y-6500000D01*
X15895000Y-6470000D02*
X15865000Y-6500000D01*
X15865000Y-6550000D02*
X15895000Y-6580000D01*
X15895000Y-6550000D02*
X15865000Y-6580000D01*
X15865000Y-6630000D02*
X15895000Y-6660000D01*
X15895000Y-6630000D02*
X15865000Y-6660000D01*
X15865000Y-6710000D02*
X15895000Y-6740000D01*
X15895000Y-6710000D02*
X15865000Y-6740000D01*
X15865000Y-6790000D02*
X15895000Y-6820000D01*
X15895000Y-6790000D02*
X15865000Y-6820000D01*
X15865000Y-7145000D02*
X15895000Y-7175000D01*
X15895000Y-7145000D02*
X15865000Y-7175000D01*
X15865000Y-7225000D02*
X15895000Y-7255000D01*
X15895000Y-7225000D02*
X15865000Y-7255000D01*
X15865000Y-7305000D02*
X15895000Y-7335000D01*
X15895000Y-7305000D02*
X15865000Y-7335000D01*
X15865000Y-7385000D02*
X15895000Y-7415000D01*
X15895000Y-7385000D02*
X15865000Y-7415000D01*
X15865000Y-7465000D02*
X15895000Y-7495000D01*
X15895000Y-7465000D02*
X15865000Y-7495000D01*
X15865000Y-7545000D02*
X15895000Y-7575000D01*
X15895000Y-7545000D02*
X15865000Y-7575000D01*
X15865000Y-7625000D02*
X15895000Y-7655000D01*
X15895000Y-7625000D02*
X15865000Y-7655000D01*
X15865000Y-7705000D02*
X15895000Y-7735000D01*
X15895000Y-7705000D02*
X15865000Y-7735000D01*
X15865000Y-7785000D02*
X15895000Y-7815000D01*
X15895000Y-7785000D02*
X15865000Y-7815000D01*
X15865000Y-7865000D02*
X15895000Y-7895000D01*
X15895000Y-7865000D02*
X15865000Y-7895000D01*
X15865000Y-7945000D02*
X15895000Y-7975000D01*
X15895000Y-7945000D02*
X15865000Y-7975000D01*
X15865000Y-8025000D02*
X15895000Y-8055000D01*
X15895000Y-8025000D02*
X15865000Y-8055000D01*
X15865000Y-8105000D02*
X15895000Y-8135000D01*
X15895000Y-8105000D02*
X15865000Y-8135000D01*
X15945000Y-5830000D02*
X15975000Y-5860000D01*
X15975000Y-5830000D02*
X15945000Y-5860000D01*
X15945000Y-5910000D02*
X15975000Y-5940000D01*
X15975000Y-5910000D02*
X15945000Y-5940000D01*
X15945000Y-5990000D02*
X15975000Y-6020000D01*
X15975000Y-5990000D02*
X15945000Y-6020000D01*
X15945000Y-6070000D02*
X15975000Y-6100000D01*
X15975000Y-6070000D02*
X15945000Y-6100000D01*
X15945000Y-6150000D02*
X15975000Y-6180000D01*
X15975000Y-6150000D02*
X15945000Y-6180000D01*
X15945000Y-6230000D02*
X15975000Y-6260000D01*
X15975000Y-6230000D02*
X15945000Y-6260000D01*
X15945000Y-6310000D02*
X15975000Y-6340000D01*
X15975000Y-6310000D02*
X15945000Y-6340000D01*
X15945000Y-6390000D02*
X15975000Y-6420000D01*
X15975000Y-6390000D02*
X15945000Y-6420000D01*
X15945000Y-6470000D02*
X15975000Y-6500000D01*
X15975000Y-6470000D02*
X15945000Y-6500000D01*
X15945000Y-6550000D02*
X15975000Y-6580000D01*
X15975000Y-6550000D02*
X15945000Y-6580000D01*
X15945000Y-6630000D02*
X15975000Y-6660000D01*
X15975000Y-6630000D02*
X15945000Y-6660000D01*
X15945000Y-6710000D02*
X15975000Y-6740000D01*
X15975000Y-6710000D02*
X15945000Y-6740000D01*
X15945000Y-6790000D02*
X15975000Y-6820000D01*
X15975000Y-6790000D02*
X15945000Y-6820000D01*
X15945000Y-7145000D02*
X15975000Y-7175000D01*
X15975000Y-7145000D02*
X15945000Y-7175000D01*
X15945000Y-7225000D02*
X15975000Y-7255000D01*
X15975000Y-7225000D02*
X15945000Y-7255000D01*
X15945000Y-7305000D02*
X15975000Y-7335000D01*
X15975000Y-7305000D02*
X15945000Y-7335000D01*
X15945000Y-7385000D02*
X15975000Y-7415000D01*
X15975000Y-7385000D02*
X15945000Y-7415000D01*
X15945000Y-7465000D02*
X15975000Y-7495000D01*
X15975000Y-7465000D02*
X15945000Y-7495000D01*
X15945000Y-7545000D02*
X15975000Y-7575000D01*
X15975000Y-7545000D02*
X15945000Y-7575000D01*
X15945000Y-7625000D02*
X15975000Y-7655000D01*
X15975000Y-7625000D02*
X15945000Y-7655000D01*
X15945000Y-7705000D02*
X15975000Y-7735000D01*
X15975000Y-7705000D02*
X15945000Y-7735000D01*
X15945000Y-7785000D02*
X15975000Y-7815000D01*
X15975000Y-7785000D02*
X15945000Y-7815000D01*
X15945000Y-7865000D02*
X15975000Y-7895000D01*
X15975000Y-7865000D02*
X15945000Y-7895000D01*
X15945000Y-7945000D02*
X15975000Y-7975000D01*
X15975000Y-7945000D02*
X15945000Y-7975000D01*
X15945000Y-8025000D02*
X15975000Y-8055000D01*
X15975000Y-8025000D02*
X15945000Y-8055000D01*
X15945000Y-8105000D02*
X15975000Y-8135000D01*
X15975000Y-8105000D02*
X15945000Y-8135000D01*
X15985000Y-8710000D02*
X16015000Y-8740000D01*
X16015000Y-8710000D02*
X15985000Y-8740000D01*
X15985000Y-8785000D02*
X16015000Y-8815000D01*
X16015000Y-8785000D02*
X15985000Y-8815000D01*
X15985000Y-8860000D02*
X16015000Y-8890000D01*
X16015000Y-8860000D02*
X15985000Y-8890000D01*
X16060000Y-8710000D02*
X16090000Y-8740000D01*
X16090000Y-8710000D02*
X16060000Y-8740000D01*
X16060000Y-8785000D02*
X16090000Y-8815000D01*
X16090000Y-8785000D02*
X16060000Y-8815000D01*
X16060000Y-8860000D02*
X16090000Y-8890000D01*
X16090000Y-8860000D02*
X16060000Y-8890000D01*
X16135000Y-8710000D02*
X16165000Y-8740000D01*
X16165000Y-8710000D02*
X16135000Y-8740000D01*
X16135000Y-8785000D02*
X16165000Y-8815000D01*
X16165000Y-8785000D02*
X16135000Y-8815000D01*
X16135000Y-8860000D02*
X16165000Y-8890000D01*
X16165000Y-8860000D02*
X16135000Y-8890000D01*
X16210000Y-8710000D02*
X16240000Y-8740000D01*
X16240000Y-8710000D02*
X16210000Y-8740000D01*
X16210000Y-8785000D02*
X16240000Y-8815000D01*
X16240000Y-8785000D02*
X16210000Y-8815000D01*
X16210000Y-8860000D02*
X16240000Y-8890000D01*
X16240000Y-8860000D02*
X16210000Y-8890000D01*
X16285000Y-8710000D02*
X16315000Y-8740000D01*
X16315000Y-8710000D02*
X16285000Y-8740000D01*
X16285000Y-8785000D02*
X16315000Y-8815000D01*
X16315000Y-8785000D02*
X16285000Y-8815000D01*
X16285000Y-8860000D02*
X16315000Y-8890000D01*
X16315000Y-8860000D02*
X16285000Y-8890000D01*
X16360000Y-8710000D02*
X16390000Y-8740000D01*
X16390000Y-8710000D02*
X16360000Y-8740000D01*
X16360000Y-8785000D02*
X16390000Y-8815000D01*
X16390000Y-8785000D02*
X16360000Y-8815000D01*
X16360000Y-8860000D02*
X16390000Y-8890000D01*
X16390000Y-8860000D02*
X16360000Y-8890000D01*
X16425000Y-6985000D02*
X16455000Y-7015000D01*
X16455000Y-6985000D02*
X16425000Y-7015000D01*
X16425000Y-7065000D02*
X16455000Y-7095000D01*
X16455000Y-7065000D02*
X16425000Y-7095000D01*
X16425000Y-7145000D02*
X16455000Y-7175000D01*
X16455000Y-7145000D02*
X16425000Y-7175000D01*
X16425000Y-7225000D02*
X16455000Y-7255000D01*
X16455000Y-7225000D02*
X16425000Y-7255000D01*
X16435000Y-8710000D02*
X16465000Y-8740000D01*
X16465000Y-8710000D02*
X16435000Y-8740000D01*
X16435000Y-8785000D02*
X16465000Y-8815000D01*
X16465000Y-8785000D02*
X16435000Y-8815000D01*
X16435000Y-8860000D02*
X16465000Y-8890000D01*
X16465000Y-8860000D02*
X16435000Y-8890000D01*
X16505000Y-6985000D02*
X16535000Y-7015000D01*
X16535000Y-6985000D02*
X16505000Y-7015000D01*
X16505000Y-7065000D02*
X16535000Y-7095000D01*
X16535000Y-7065000D02*
X16505000Y-7095000D01*
X16505000Y-7145000D02*
X16535000Y-7175000D01*
X16535000Y-7145000D02*
X16505000Y-7175000D01*
X16505000Y-7225000D02*
X16535000Y-7255000D01*
X16535000Y-7225000D02*
X16505000Y-7255000D01*
X16510000Y-8710000D02*
X16540000Y-8740000D01*
X16540000Y-8710000D02*
X16510000Y-8740000D01*
X16510000Y-8785000D02*
X16540000Y-8815000D01*
X16540000Y-8785000D02*
X16510000Y-8815000D01*
X16510000Y-8860000D02*
X16540000Y-8890000D01*
X16540000Y-8860000D02*
X16510000Y-8890000D01*
X16585000Y-6985000D02*
X16615000Y-7015000D01*
X16615000Y-6985000D02*
X16585000Y-7015000D01*
X16585000Y-7065000D02*
X16615000Y-7095000D01*
X16615000Y-7065000D02*
X16585000Y-7095000D01*
X16585000Y-7145000D02*
X16615000Y-7175000D01*
X16615000Y-7145000D02*
X16585000Y-7175000D01*
X16585000Y-7225000D02*
X16615000Y-7255000D01*
X16615000Y-7225000D02*
X16585000Y-7255000D01*
X16585000Y-8710000D02*
X16615000Y-8740000D01*
X16615000Y-8710000D02*
X16585000Y-8740000D01*
X16585000Y-8785000D02*
X16615000Y-8815000D01*
X16615000Y-8785000D02*
X16585000Y-8815000D01*
X16585000Y-8860000D02*
X16615000Y-8890000D01*
X16615000Y-8860000D02*
X16585000Y-8890000D01*
X16660000Y-8710000D02*
X16690000Y-8740000D01*
X16690000Y-8710000D02*
X16660000Y-8740000D01*
X16660000Y-8785000D02*
X16690000Y-8815000D01*
X16690000Y-8785000D02*
X16660000Y-8815000D01*
X16660000Y-8860000D02*
X16690000Y-8890000D01*
X16690000Y-8860000D02*
X16660000Y-8890000D01*
X16665000Y-6985000D02*
X16695000Y-7015000D01*
X16695000Y-6985000D02*
X16665000Y-7015000D01*
X16665000Y-7065000D02*
X16695000Y-7095000D01*
X16695000Y-7065000D02*
X16665000Y-7095000D01*
X16665000Y-7145000D02*
X16695000Y-7175000D01*
X16695000Y-7145000D02*
X16665000Y-7175000D01*
X16665000Y-7225000D02*
X16695000Y-7255000D01*
X16695000Y-7225000D02*
X16665000Y-7255000D01*
X16735000Y-8710000D02*
X16765000Y-8740000D01*
X16765000Y-8710000D02*
X16735000Y-8740000D01*
X16735000Y-8785000D02*
X16765000Y-8815000D01*
X16765000Y-8785000D02*
X16735000Y-8815000D01*
X16735000Y-8860000D02*
X16765000Y-8890000D01*
X16765000Y-8860000D02*
X16735000Y-8890000D01*
X16745000Y-6985000D02*
X16775000Y-7015000D01*
X16775000Y-6985000D02*
X16745000Y-7015000D01*
X16745000Y-7065000D02*
X16775000Y-7095000D01*
X16775000Y-7065000D02*
X16745000Y-7095000D01*
X16745000Y-7145000D02*
X16775000Y-7175000D01*
X16775000Y-7145000D02*
X16745000Y-7175000D01*
X16745000Y-7225000D02*
X16775000Y-7255000D01*
X16775000Y-7225000D02*
X16745000Y-7255000D01*
X16825000Y-6985000D02*
X16855000Y-7015000D01*
X16855000Y-6985000D02*
X16825000Y-7015000D01*
X16825000Y-7065000D02*
X16855000Y-7095000D01*
X16855000Y-7065000D02*
X16825000Y-7095000D01*
X16825000Y-7145000D02*
X16855000Y-7175000D01*
X16855000Y-7145000D02*
X16825000Y-7175000D01*
X16825000Y-7225000D02*
X16855000Y-7255000D01*
X16855000Y-7225000D02*
X16825000Y-7255000D01*
X16905000Y-6985000D02*
X16935000Y-7015000D01*
X16935000Y-6985000D02*
X16905000Y-7015000D01*
X16905000Y-7065000D02*
X16935000Y-7095000D01*
X16935000Y-7065000D02*
X16905000Y-7095000D01*
X16905000Y-7145000D02*
X16935000Y-7175000D01*
X16935000Y-7145000D02*
X16905000Y-7175000D01*
X16905000Y-7225000D02*
X16935000Y-7255000D01*
X16935000Y-7225000D02*
X16905000Y-7255000D01*
X17385000Y-6025000D02*
X17415000Y-6055000D01*
X17415000Y-6025000D02*
X17385000Y-6055000D01*
X17385000Y-6145000D02*
X17415000Y-6175000D01*
X17415000Y-6145000D02*
X17385000Y-6175000D01*
X17385000Y-7345000D02*
X17415000Y-7375000D01*
X17415000Y-7345000D02*
X17385000Y-7375000D01*
X17385000Y-7465000D02*
X17415000Y-7495000D01*
X17415000Y-7465000D02*
X17385000Y-7495000D01*
X17585000Y-7055000D02*
X17615000Y-7085000D01*
X17615000Y-7055000D02*
X17585000Y-7085000D01*
X17585000Y-7135000D02*
X17615000Y-7165000D01*
X17615000Y-7135000D02*
X17585000Y-7165000D01*
X17985000Y-5985000D02*
X18015000Y-6015000D01*
X18015000Y-5985000D02*
X17985000Y-6015000D01*
X17985000Y-6085000D02*
X18015000Y-6115000D01*
X18015000Y-6085000D02*
X17985000Y-6115000D01*
X17985000Y-6185000D02*
X18015000Y-6215000D01*
X18015000Y-6185000D02*
X17985000Y-6215000D01*
X17985000Y-7485000D02*
X18015000Y-7515000D01*
X18015000Y-7485000D02*
X17985000Y-7515000D01*
X18065000Y-7405000D02*
X18095000Y-7435000D01*
X18095000Y-7405000D02*
X18065000Y-7435000D01*
X18370000Y-8415000D02*
X18400000Y-8445000D01*
X18400000Y-8415000D02*
X18370000Y-8445000D01*
X18370000Y-8490000D02*
X18400000Y-8520000D01*
X18400000Y-8490000D02*
X18370000Y-8520000D01*
X18370000Y-8565000D02*
X18400000Y-8595000D01*
X18400000Y-8565000D02*
X18370000Y-8595000D01*
X18370000Y-8645000D02*
X18400000Y-8675000D01*
X18400000Y-8645000D02*
X18370000Y-8675000D01*
X18370000Y-8720000D02*
X18400000Y-8750000D01*
X18400000Y-8720000D02*
X18370000Y-8750000D01*
X18370000Y-8795000D02*
X18400000Y-8825000D01*
X18400000Y-8795000D02*
X18370000Y-8825000D01*
X18445000Y-8415000D02*
X18475000Y-8445000D01*
X18475000Y-8415000D02*
X18445000Y-8445000D01*
X18445000Y-8490000D02*
X18475000Y-8520000D01*
X18475000Y-8490000D02*
X18445000Y-8520000D01*
X18445000Y-8565000D02*
X18475000Y-8595000D01*
X18475000Y-8565000D02*
X18445000Y-8595000D01*
X18445000Y-8645000D02*
X18475000Y-8675000D01*
X18475000Y-8645000D02*
X18445000Y-8675000D01*
X18445000Y-8720000D02*
X18475000Y-8750000D01*
X18475000Y-8720000D02*
X18445000Y-8750000D01*
X18445000Y-8795000D02*
X18475000Y-8825000D01*
X18475000Y-8795000D02*
X18445000Y-8825000D01*
X18520000Y-8415000D02*
X18550000Y-8445000D01*
X18550000Y-8415000D02*
X18520000Y-8445000D01*
X18520000Y-8490000D02*
X18550000Y-8520000D01*
X18550000Y-8490000D02*
X18520000Y-8520000D01*
X18520000Y-8565000D02*
X18550000Y-8595000D01*
X18550000Y-8565000D02*
X18520000Y-8595000D01*
X18520000Y-8645000D02*
X18550000Y-8675000D01*
X18550000Y-8645000D02*
X18520000Y-8675000D01*
X18520000Y-8720000D02*
X18550000Y-8750000D01*
X18550000Y-8720000D02*
X18520000Y-8750000D01*
X18520000Y-8795000D02*
X18550000Y-8825000D01*
X18550000Y-8795000D02*
X18520000Y-8825000D01*
X18595000Y-8415000D02*
X18625000Y-8445000D01*
X18625000Y-8415000D02*
X18595000Y-8445000D01*
X18595000Y-8490000D02*
X18625000Y-8520000D01*
X18625000Y-8490000D02*
X18595000Y-8520000D01*
X18595000Y-8565000D02*
X18625000Y-8595000D01*
X18625000Y-8565000D02*
X18595000Y-8595000D01*
X18595000Y-8645000D02*
X18625000Y-8675000D01*
X18625000Y-8645000D02*
X18595000Y-8675000D01*
X18595000Y-8720000D02*
X18625000Y-8750000D01*
X18625000Y-8720000D02*
X18595000Y-8750000D01*
X18595000Y-8795000D02*
X18625000Y-8825000D01*
X18625000Y-8795000D02*
X18595000Y-8825000D01*
X18670000Y-8415000D02*
X18700000Y-8445000D01*
X18700000Y-8415000D02*
X18670000Y-8445000D01*
X18670000Y-8490000D02*
X18700000Y-8520000D01*
X18700000Y-8490000D02*
X18670000Y-8520000D01*
X18670000Y-8565000D02*
X18700000Y-8595000D01*
X18700000Y-8565000D02*
X18670000Y-8595000D01*
X18670000Y-8645000D02*
X18700000Y-8675000D01*
X18700000Y-8645000D02*
X18670000Y-8675000D01*
X18670000Y-8720000D02*
X18700000Y-8750000D01*
X18700000Y-8720000D02*
X18670000Y-8750000D01*
X18670000Y-8795000D02*
X18700000Y-8825000D01*
X18700000Y-8795000D02*
X18670000Y-8825000D01*
X18745000Y-8415000D02*
X18775000Y-8445000D01*
X18775000Y-8415000D02*
X18745000Y-8445000D01*
X18745000Y-8490000D02*
X18775000Y-8520000D01*
X18775000Y-8490000D02*
X18745000Y-8520000D01*
X18745000Y-8565000D02*
X18775000Y-8595000D01*
X18775000Y-8565000D02*
X18745000Y-8595000D01*
X18745000Y-8645000D02*
X18775000Y-8675000D01*
X18775000Y-8645000D02*
X18745000Y-8675000D01*
X18745000Y-8720000D02*
X18775000Y-8750000D01*
X18775000Y-8720000D02*
X18745000Y-8750000D01*
X18745000Y-8795000D02*
X18775000Y-8825000D01*
X18775000Y-8795000D02*
X18745000Y-8825000D01*
X14325000Y-7280000D02*
G75*
G02*
X14275000Y-7280000I-25000J0D01*
G01*
X14275000Y-7280000D02*
G75*
G02*
X14325000Y-7280000I25000J0D01*
G01*
X14813000Y-7633500D02*
X14813000Y-7698500D01*
X14780500Y-7666000D02*
X14845500Y-7666000D01*
X14813000Y-7760500D02*
X14813000Y-7825500D01*
X14780500Y-7793000D02*
X14845500Y-7793000D01*
X14813000Y-7887500D02*
X14813000Y-7952500D01*
X14780500Y-7920000D02*
X14845500Y-7920000D01*
X14940000Y-7633500D02*
X14940000Y-7698500D01*
X14907500Y-7666000D02*
X14972500Y-7666000D01*
X14940000Y-7760500D02*
X14940000Y-7825500D01*
X14907500Y-7793000D02*
X14972500Y-7793000D01*
X14940000Y-7887500D02*
X14940000Y-7952500D01*
X14907500Y-7920000D02*
X14972500Y-7920000D01*
D13*
X10433138Y-6073138D02*
X10433138Y-5846862D01*
X10206862Y-5846862D01*
X10206862Y-6073138D01*
X10433138Y-6073138D01*
X10433138Y-6939805D02*
X10433138Y-6713528D01*
X10206862Y-6713528D01*
X10206862Y-6939805D01*
X10433138Y-6939805D01*
X10433138Y-7806471D02*
X10433138Y-7580195D01*
X10206862Y-7580195D01*
X10206862Y-7806471D01*
X10433138Y-7806471D01*
X10433138Y-8673138D02*
X10433138Y-8446862D01*
X10206862Y-8446862D01*
X10206862Y-8673138D01*
X10433138Y-8673138D01*
X12594338Y-8673138D02*
X12594338Y-8446862D01*
X12368062Y-8446862D01*
X12368062Y-8673138D01*
X12594338Y-8673138D01*
X17433138Y-8673138D02*
X17433138Y-8446862D01*
X17206862Y-8446862D01*
X17206862Y-8673138D01*
X17433138Y-8673138D01*
X18153138Y-8673138D02*
X18153138Y-8446862D01*
X17926862Y-8446862D01*
X17926862Y-8673138D01*
X18153138Y-8673138D01*
X18693138Y-6073138D02*
X18693138Y-5846862D01*
X18466862Y-5846862D01*
X18466862Y-6073138D01*
X18693138Y-6073138D01*
X18693138Y-6913138D02*
X18693138Y-6686862D01*
X18466862Y-6686862D01*
X18466862Y-6913138D01*
X18693138Y-6913138D01*
D11*
X10158277Y-9313984D02*
X10158277Y-9113984D01*
X10158277Y-9113984D02*
X10205896Y-9113984D01*
X10205896Y-9113984D02*
X10234467Y-9123508D01*
X10234467Y-9123508D02*
X10253515Y-9142555D01*
X10253515Y-9142555D02*
X10263039Y-9161603D01*
X10263039Y-9161603D02*
X10272563Y-9199698D01*
X10272563Y-9199698D02*
X10272563Y-9228270D01*
X10272563Y-9228270D02*
X10263039Y-9266365D01*
X10263039Y-9266365D02*
X10253515Y-9285412D01*
X10253515Y-9285412D02*
X10234467Y-9304460D01*
X10234467Y-9304460D02*
X10205896Y-9313984D01*
X10205896Y-9313984D02*
X10158277Y-9313984D01*
X10358277Y-9313984D02*
X10358277Y-9180650D01*
X10358277Y-9218746D02*
X10367801Y-9199698D01*
X10367801Y-9199698D02*
X10377324Y-9190174D01*
X10377324Y-9190174D02*
X10396372Y-9180650D01*
X10396372Y-9180650D02*
X10415420Y-9180650D01*
X10482086Y-9313984D02*
X10482086Y-9180650D01*
X10482086Y-9113984D02*
X10472563Y-9123508D01*
X10472563Y-9123508D02*
X10482086Y-9133031D01*
X10482086Y-9133031D02*
X10491610Y-9123508D01*
X10491610Y-9123508D02*
X10482086Y-9113984D01*
X10482086Y-9113984D02*
X10482086Y-9133031D01*
X10605896Y-9313984D02*
X10586848Y-9304460D01*
X10586848Y-9304460D02*
X10577324Y-9285412D01*
X10577324Y-9285412D02*
X10577324Y-9113984D01*
X10710658Y-9313984D02*
X10691610Y-9304460D01*
X10691610Y-9304460D02*
X10682086Y-9285412D01*
X10682086Y-9285412D02*
X10682086Y-9113984D01*
X10939229Y-9313984D02*
X10939229Y-9113984D01*
X10939229Y-9113984D02*
X11005896Y-9256841D01*
X11005896Y-9256841D02*
X11072563Y-9113984D01*
X11072563Y-9113984D02*
X11072563Y-9313984D01*
X11253515Y-9313984D02*
X11253515Y-9209222D01*
X11253515Y-9209222D02*
X11243991Y-9190174D01*
X11243991Y-9190174D02*
X11224943Y-9180650D01*
X11224943Y-9180650D02*
X11186848Y-9180650D01*
X11186848Y-9180650D02*
X11167801Y-9190174D01*
X11253515Y-9304460D02*
X11234467Y-9313984D01*
X11234467Y-9313984D02*
X11186848Y-9313984D01*
X11186848Y-9313984D02*
X11167801Y-9304460D01*
X11167801Y-9304460D02*
X11158277Y-9285412D01*
X11158277Y-9285412D02*
X11158277Y-9266365D01*
X11158277Y-9266365D02*
X11167801Y-9247317D01*
X11167801Y-9247317D02*
X11186848Y-9237793D01*
X11186848Y-9237793D02*
X11234467Y-9237793D01*
X11234467Y-9237793D02*
X11253515Y-9228270D01*
X11348753Y-9180650D02*
X11348753Y-9380650D01*
X11348753Y-9190174D02*
X11367801Y-9180650D01*
X11367801Y-9180650D02*
X11405896Y-9180650D01*
X11405896Y-9180650D02*
X11424943Y-9190174D01*
X11424943Y-9190174D02*
X11434467Y-9199698D01*
X11434467Y-9199698D02*
X11443991Y-9218746D01*
X11443991Y-9218746D02*
X11443991Y-9275889D01*
X11443991Y-9275889D02*
X11434467Y-9294936D01*
X11434467Y-9294936D02*
X11424943Y-9304460D01*
X11424943Y-9304460D02*
X11405896Y-9313984D01*
X11405896Y-9313984D02*
X11367801Y-9313984D01*
X11367801Y-9313984D02*
X11348753Y-9304460D01*
X11529705Y-9294936D02*
X11539229Y-9304460D01*
X11539229Y-9304460D02*
X11529705Y-9313984D01*
X11529705Y-9313984D02*
X11520182Y-9304460D01*
X11520182Y-9304460D02*
X11529705Y-9294936D01*
X11529705Y-9294936D02*
X11529705Y-9313984D01*
X11529705Y-9190174D02*
X11539229Y-9199698D01*
X11539229Y-9199698D02*
X11529705Y-9209222D01*
X11529705Y-9209222D02*
X11520182Y-9199698D01*
X11520182Y-9199698D02*
X11529705Y-9190174D01*
X11529705Y-9190174D02*
X11529705Y-9209222D01*
D12*
X9867500Y-9627500D02*
X9897500Y-9657500D01*
X9897500Y-9627500D02*
X9867500Y-9657500D01*
D11*
X10196372Y-9533984D02*
X10215420Y-9533984D01*
X10215420Y-9533984D02*
X10234467Y-9543508D01*
X10234467Y-9543508D02*
X10243991Y-9553031D01*
X10243991Y-9553031D02*
X10253515Y-9572079D01*
X10253515Y-9572079D02*
X10263039Y-9610174D01*
X10263039Y-9610174D02*
X10263039Y-9657793D01*
X10263039Y-9657793D02*
X10253515Y-9695889D01*
X10253515Y-9695889D02*
X10243991Y-9714936D01*
X10243991Y-9714936D02*
X10234467Y-9724460D01*
X10234467Y-9724460D02*
X10215420Y-9733984D01*
X10215420Y-9733984D02*
X10196372Y-9733984D01*
X10196372Y-9733984D02*
X10177324Y-9724460D01*
X10177324Y-9724460D02*
X10167801Y-9714936D01*
X10167801Y-9714936D02*
X10158277Y-9695889D01*
X10158277Y-9695889D02*
X10148753Y-9657793D01*
X10148753Y-9657793D02*
X10148753Y-9610174D01*
X10148753Y-9610174D02*
X10158277Y-9572079D01*
X10158277Y-9572079D02*
X10167801Y-9553031D01*
X10167801Y-9553031D02*
X10177324Y-9543508D01*
X10177324Y-9543508D02*
X10196372Y-9533984D01*
X10348753Y-9714936D02*
X10358277Y-9724460D01*
X10358277Y-9724460D02*
X10348753Y-9733984D01*
X10348753Y-9733984D02*
X10339229Y-9724460D01*
X10339229Y-9724460D02*
X10348753Y-9714936D01*
X10348753Y-9714936D02*
X10348753Y-9733984D01*
X10424944Y-9533984D02*
X10548753Y-9533984D01*
X10548753Y-9533984D02*
X10482086Y-9610174D01*
X10482086Y-9610174D02*
X10510658Y-9610174D01*
X10510658Y-9610174D02*
X10529705Y-9619698D01*
X10529705Y-9619698D02*
X10539229Y-9629222D01*
X10539229Y-9629222D02*
X10548753Y-9648270D01*
X10548753Y-9648270D02*
X10548753Y-9695889D01*
X10548753Y-9695889D02*
X10539229Y-9714936D01*
X10539229Y-9714936D02*
X10529705Y-9724460D01*
X10529705Y-9724460D02*
X10510658Y-9733984D01*
X10510658Y-9733984D02*
X10453515Y-9733984D01*
X10453515Y-9733984D02*
X10434467Y-9724460D01*
X10434467Y-9724460D02*
X10424944Y-9714936D01*
X10672563Y-9533984D02*
X10691610Y-9533984D01*
X10691610Y-9533984D02*
X10710658Y-9543508D01*
X10710658Y-9543508D02*
X10720182Y-9553031D01*
X10720182Y-9553031D02*
X10729705Y-9572079D01*
X10729705Y-9572079D02*
X10739229Y-9610174D01*
X10739229Y-9610174D02*
X10739229Y-9657793D01*
X10739229Y-9657793D02*
X10729705Y-9695889D01*
X10729705Y-9695889D02*
X10720182Y-9714936D01*
X10720182Y-9714936D02*
X10710658Y-9724460D01*
X10710658Y-9724460D02*
X10691610Y-9733984D01*
X10691610Y-9733984D02*
X10672563Y-9733984D01*
X10672563Y-9733984D02*
X10653515Y-9724460D01*
X10653515Y-9724460D02*
X10643991Y-9714936D01*
X10643991Y-9714936D02*
X10634467Y-9695889D01*
X10634467Y-9695889D02*
X10624944Y-9657793D01*
X10624944Y-9657793D02*
X10624944Y-9610174D01*
X10624944Y-9610174D02*
X10634467Y-9572079D01*
X10634467Y-9572079D02*
X10643991Y-9553031D01*
X10643991Y-9553031D02*
X10653515Y-9543508D01*
X10653515Y-9543508D02*
X10672563Y-9533984D01*
X10863039Y-9533984D02*
X10882086Y-9533984D01*
X10882086Y-9533984D02*
X10901134Y-9543508D01*
X10901134Y-9543508D02*
X10910658Y-9553031D01*
X10910658Y-9553031D02*
X10920182Y-9572079D01*
X10920182Y-9572079D02*
X10929705Y-9610174D01*
X10929705Y-9610174D02*
X10929705Y-9657793D01*
X10929705Y-9657793D02*
X10920182Y-9695889D01*
X10920182Y-9695889D02*
X10910658Y-9714936D01*
X10910658Y-9714936D02*
X10901134Y-9724460D01*
X10901134Y-9724460D02*
X10882086Y-9733984D01*
X10882086Y-9733984D02*
X10863039Y-9733984D01*
X10863039Y-9733984D02*
X10843991Y-9724460D01*
X10843991Y-9724460D02*
X10834467Y-9714936D01*
X10834467Y-9714936D02*
X10824944Y-9695889D01*
X10824944Y-9695889D02*
X10815420Y-9657793D01*
X10815420Y-9657793D02*
X10815420Y-9610174D01*
X10815420Y-9610174D02*
X10824944Y-9572079D01*
X10824944Y-9572079D02*
X10834467Y-9553031D01*
X10834467Y-9553031D02*
X10843991Y-9543508D01*
X10843991Y-9543508D02*
X10863039Y-9533984D01*
X11015420Y-9733984D02*
X11015420Y-9600650D01*
X11015420Y-9619698D02*
X11024944Y-9610174D01*
X11024944Y-9610174D02*
X11043991Y-9600650D01*
X11043991Y-9600650D02*
X11072563Y-9600650D01*
X11072563Y-9600650D02*
X11091610Y-9610174D01*
X11091610Y-9610174D02*
X11101134Y-9629222D01*
X11101134Y-9629222D02*
X11101134Y-9733984D01*
X11101134Y-9629222D02*
X11110658Y-9610174D01*
X11110658Y-9610174D02*
X11129705Y-9600650D01*
X11129705Y-9600650D02*
X11158277Y-9600650D01*
X11158277Y-9600650D02*
X11177325Y-9610174D01*
X11177325Y-9610174D02*
X11186848Y-9629222D01*
X11186848Y-9629222D02*
X11186848Y-9733984D01*
X11282086Y-9733984D02*
X11282086Y-9600650D01*
X11282086Y-9619698D02*
X11291610Y-9610174D01*
X11291610Y-9610174D02*
X11310658Y-9600650D01*
X11310658Y-9600650D02*
X11339229Y-9600650D01*
X11339229Y-9600650D02*
X11358277Y-9610174D01*
X11358277Y-9610174D02*
X11367801Y-9629222D01*
X11367801Y-9629222D02*
X11367801Y-9733984D01*
X11367801Y-9629222D02*
X11377324Y-9610174D01*
X11377324Y-9610174D02*
X11396372Y-9600650D01*
X11396372Y-9600650D02*
X11424943Y-9600650D01*
X11424943Y-9600650D02*
X11443991Y-9610174D01*
X11443991Y-9610174D02*
X11453515Y-9629222D01*
X11453515Y-9629222D02*
X11453515Y-9733984D01*
X11843991Y-9524460D02*
X11672563Y-9781603D01*
X12101134Y-9533984D02*
X12120182Y-9533984D01*
X12120182Y-9533984D02*
X12139229Y-9543508D01*
X12139229Y-9543508D02*
X12148753Y-9553031D01*
X12148753Y-9553031D02*
X12158277Y-9572079D01*
X12158277Y-9572079D02*
X12167801Y-9610174D01*
X12167801Y-9610174D02*
X12167801Y-9657793D01*
X12167801Y-9657793D02*
X12158277Y-9695889D01*
X12158277Y-9695889D02*
X12148753Y-9714936D01*
X12148753Y-9714936D02*
X12139229Y-9724460D01*
X12139229Y-9724460D02*
X12120182Y-9733984D01*
X12120182Y-9733984D02*
X12101134Y-9733984D01*
X12101134Y-9733984D02*
X12082086Y-9724460D01*
X12082086Y-9724460D02*
X12072563Y-9714936D01*
X12072563Y-9714936D02*
X12063039Y-9695889D01*
X12063039Y-9695889D02*
X12053515Y-9657793D01*
X12053515Y-9657793D02*
X12053515Y-9610174D01*
X12053515Y-9610174D02*
X12063039Y-9572079D01*
X12063039Y-9572079D02*
X12072563Y-9553031D01*
X12072563Y-9553031D02*
X12082086Y-9543508D01*
X12082086Y-9543508D02*
X12101134Y-9533984D01*
X12253515Y-9714936D02*
X12263039Y-9724460D01*
X12263039Y-9724460D02*
X12253515Y-9733984D01*
X12253515Y-9733984D02*
X12243991Y-9724460D01*
X12243991Y-9724460D02*
X12253515Y-9714936D01*
X12253515Y-9714936D02*
X12253515Y-9733984D01*
X12386848Y-9533984D02*
X12405896Y-9533984D01*
X12405896Y-9533984D02*
X12424944Y-9543508D01*
X12424944Y-9543508D02*
X12434467Y-9553031D01*
X12434467Y-9553031D02*
X12443991Y-9572079D01*
X12443991Y-9572079D02*
X12453515Y-9610174D01*
X12453515Y-9610174D02*
X12453515Y-9657793D01*
X12453515Y-9657793D02*
X12443991Y-9695889D01*
X12443991Y-9695889D02*
X12434467Y-9714936D01*
X12434467Y-9714936D02*
X12424944Y-9724460D01*
X12424944Y-9724460D02*
X12405896Y-9733984D01*
X12405896Y-9733984D02*
X12386848Y-9733984D01*
X12386848Y-9733984D02*
X12367801Y-9724460D01*
X12367801Y-9724460D02*
X12358277Y-9714936D01*
X12358277Y-9714936D02*
X12348753Y-9695889D01*
X12348753Y-9695889D02*
X12339229Y-9657793D01*
X12339229Y-9657793D02*
X12339229Y-9610174D01*
X12339229Y-9610174D02*
X12348753Y-9572079D01*
X12348753Y-9572079D02*
X12358277Y-9553031D01*
X12358277Y-9553031D02*
X12367801Y-9543508D01*
X12367801Y-9543508D02*
X12386848Y-9533984D01*
X12643991Y-9733984D02*
X12529706Y-9733984D01*
X12586848Y-9733984D02*
X12586848Y-9533984D01*
X12586848Y-9533984D02*
X12567801Y-9562555D01*
X12567801Y-9562555D02*
X12548753Y-9581603D01*
X12548753Y-9581603D02*
X12529706Y-9591127D01*
X12834467Y-9733984D02*
X12720182Y-9733984D01*
X12777325Y-9733984D02*
X12777325Y-9533984D01*
X12777325Y-9533984D02*
X12758277Y-9562555D01*
X12758277Y-9562555D02*
X12739229Y-9581603D01*
X12739229Y-9581603D02*
X12720182Y-9591127D01*
X12948753Y-9619698D02*
X12929706Y-9610174D01*
X12929706Y-9610174D02*
X12920182Y-9600650D01*
X12920182Y-9600650D02*
X12910658Y-9581603D01*
X12910658Y-9581603D02*
X12910658Y-9572079D01*
X12910658Y-9572079D02*
X12920182Y-9553031D01*
X12920182Y-9553031D02*
X12929706Y-9543508D01*
X12929706Y-9543508D02*
X12948753Y-9533984D01*
X12948753Y-9533984D02*
X12986848Y-9533984D01*
X12986848Y-9533984D02*
X13005896Y-9543508D01*
X13005896Y-9543508D02*
X13015420Y-9553031D01*
X13015420Y-9553031D02*
X13024944Y-9572079D01*
X13024944Y-9572079D02*
X13024944Y-9581603D01*
X13024944Y-9581603D02*
X13015420Y-9600650D01*
X13015420Y-9600650D02*
X13005896Y-9610174D01*
X13005896Y-9610174D02*
X12986848Y-9619698D01*
X12986848Y-9619698D02*
X12948753Y-9619698D01*
X12948753Y-9619698D02*
X12929706Y-9629222D01*
X12929706Y-9629222D02*
X12920182Y-9638746D01*
X12920182Y-9638746D02*
X12910658Y-9657793D01*
X12910658Y-9657793D02*
X12910658Y-9695889D01*
X12910658Y-9695889D02*
X12920182Y-9714936D01*
X12920182Y-9714936D02*
X12929706Y-9724460D01*
X12929706Y-9724460D02*
X12948753Y-9733984D01*
X12948753Y-9733984D02*
X12986848Y-9733984D01*
X12986848Y-9733984D02*
X13005896Y-9724460D01*
X13005896Y-9724460D02*
X13015420Y-9714936D01*
X13015420Y-9714936D02*
X13024944Y-9695889D01*
X13024944Y-9695889D02*
X13024944Y-9657793D01*
X13024944Y-9657793D02*
X13015420Y-9638746D01*
X13015420Y-9638746D02*
X13005896Y-9629222D01*
X13005896Y-9629222D02*
X12986848Y-9619698D01*
X13101134Y-9533984D02*
X13101134Y-9572079D01*
X13177325Y-9533984D02*
X13177325Y-9572079D01*
X13472563Y-9810174D02*
X13463039Y-9800650D01*
X13463039Y-9800650D02*
X13443991Y-9772079D01*
X13443991Y-9772079D02*
X13434468Y-9753031D01*
X13434468Y-9753031D02*
X13424944Y-9724460D01*
X13424944Y-9724460D02*
X13415420Y-9676841D01*
X13415420Y-9676841D02*
X13415420Y-9638746D01*
X13415420Y-9638746D02*
X13424944Y-9591127D01*
X13424944Y-9591127D02*
X13434468Y-9562555D01*
X13434468Y-9562555D02*
X13443991Y-9543508D01*
X13443991Y-9543508D02*
X13463039Y-9514936D01*
X13463039Y-9514936D02*
X13472563Y-9505412D01*
X13643991Y-9533984D02*
X13548753Y-9533984D01*
X13548753Y-9533984D02*
X13539229Y-9629222D01*
X13539229Y-9629222D02*
X13548753Y-9619698D01*
X13548753Y-9619698D02*
X13567801Y-9610174D01*
X13567801Y-9610174D02*
X13615420Y-9610174D01*
X13615420Y-9610174D02*
X13634468Y-9619698D01*
X13634468Y-9619698D02*
X13643991Y-9629222D01*
X13643991Y-9629222D02*
X13653515Y-9648270D01*
X13653515Y-9648270D02*
X13653515Y-9695889D01*
X13653515Y-9695889D02*
X13643991Y-9714936D01*
X13643991Y-9714936D02*
X13634468Y-9724460D01*
X13634468Y-9724460D02*
X13615420Y-9733984D01*
X13615420Y-9733984D02*
X13567801Y-9733984D01*
X13567801Y-9733984D02*
X13548753Y-9724460D01*
X13548753Y-9724460D02*
X13539229Y-9714936D01*
X13748753Y-9733984D02*
X13786848Y-9733984D01*
X13786848Y-9733984D02*
X13805896Y-9724460D01*
X13805896Y-9724460D02*
X13815420Y-9714936D01*
X13815420Y-9714936D02*
X13834468Y-9686365D01*
X13834468Y-9686365D02*
X13843991Y-9648270D01*
X13843991Y-9648270D02*
X13843991Y-9572079D01*
X13843991Y-9572079D02*
X13834468Y-9553031D01*
X13834468Y-9553031D02*
X13824944Y-9543508D01*
X13824944Y-9543508D02*
X13805896Y-9533984D01*
X13805896Y-9533984D02*
X13767801Y-9533984D01*
X13767801Y-9533984D02*
X13748753Y-9543508D01*
X13748753Y-9543508D02*
X13739229Y-9553031D01*
X13739229Y-9553031D02*
X13729706Y-9572079D01*
X13729706Y-9572079D02*
X13729706Y-9619698D01*
X13729706Y-9619698D02*
X13739229Y-9638746D01*
X13739229Y-9638746D02*
X13748753Y-9648270D01*
X13748753Y-9648270D02*
X13767801Y-9657793D01*
X13767801Y-9657793D02*
X13805896Y-9657793D01*
X13805896Y-9657793D02*
X13824944Y-9648270D01*
X13824944Y-9648270D02*
X13834468Y-9638746D01*
X13834468Y-9638746D02*
X13843991Y-9619698D01*
X13920182Y-9553031D02*
X13929706Y-9543508D01*
X13929706Y-9543508D02*
X13948753Y-9533984D01*
X13948753Y-9533984D02*
X13996372Y-9533984D01*
X13996372Y-9533984D02*
X14015420Y-9543508D01*
X14015420Y-9543508D02*
X14024944Y-9553031D01*
X14024944Y-9553031D02*
X14034468Y-9572079D01*
X14034468Y-9572079D02*
X14034468Y-9591127D01*
X14034468Y-9591127D02*
X14024944Y-9619698D01*
X14024944Y-9619698D02*
X13910658Y-9733984D01*
X13910658Y-9733984D02*
X14034468Y-9733984D01*
X14272563Y-9733984D02*
X14272563Y-9533984D01*
X14358277Y-9733984D02*
X14358277Y-9629222D01*
X14358277Y-9629222D02*
X14348753Y-9610174D01*
X14348753Y-9610174D02*
X14329706Y-9600650D01*
X14329706Y-9600650D02*
X14301134Y-9600650D01*
X14301134Y-9600650D02*
X14282087Y-9610174D01*
X14282087Y-9610174D02*
X14272563Y-9619698D01*
X14482087Y-9733984D02*
X14463039Y-9724460D01*
X14463039Y-9724460D02*
X14453515Y-9714936D01*
X14453515Y-9714936D02*
X14443991Y-9695889D01*
X14443991Y-9695889D02*
X14443991Y-9638746D01*
X14443991Y-9638746D02*
X14453515Y-9619698D01*
X14453515Y-9619698D02*
X14463039Y-9610174D01*
X14463039Y-9610174D02*
X14482087Y-9600650D01*
X14482087Y-9600650D02*
X14510658Y-9600650D01*
X14510658Y-9600650D02*
X14529706Y-9610174D01*
X14529706Y-9610174D02*
X14539230Y-9619698D01*
X14539230Y-9619698D02*
X14548753Y-9638746D01*
X14548753Y-9638746D02*
X14548753Y-9695889D01*
X14548753Y-9695889D02*
X14539230Y-9714936D01*
X14539230Y-9714936D02*
X14529706Y-9724460D01*
X14529706Y-9724460D02*
X14510658Y-9733984D01*
X14510658Y-9733984D02*
X14482087Y-9733984D01*
X14663039Y-9733984D02*
X14643991Y-9724460D01*
X14643991Y-9724460D02*
X14634468Y-9705412D01*
X14634468Y-9705412D02*
X14634468Y-9533984D01*
X14815420Y-9724460D02*
X14796372Y-9733984D01*
X14796372Y-9733984D02*
X14758277Y-9733984D01*
X14758277Y-9733984D02*
X14739230Y-9724460D01*
X14739230Y-9724460D02*
X14729706Y-9705412D01*
X14729706Y-9705412D02*
X14729706Y-9629222D01*
X14729706Y-9629222D02*
X14739230Y-9610174D01*
X14739230Y-9610174D02*
X14758277Y-9600650D01*
X14758277Y-9600650D02*
X14796372Y-9600650D01*
X14796372Y-9600650D02*
X14815420Y-9610174D01*
X14815420Y-9610174D02*
X14824944Y-9629222D01*
X14824944Y-9629222D02*
X14824944Y-9648270D01*
X14824944Y-9648270D02*
X14729706Y-9667317D01*
X14901134Y-9724460D02*
X14920182Y-9733984D01*
X14920182Y-9733984D02*
X14958277Y-9733984D01*
X14958277Y-9733984D02*
X14977325Y-9724460D01*
X14977325Y-9724460D02*
X14986849Y-9705412D01*
X14986849Y-9705412D02*
X14986849Y-9695889D01*
X14986849Y-9695889D02*
X14977325Y-9676841D01*
X14977325Y-9676841D02*
X14958277Y-9667317D01*
X14958277Y-9667317D02*
X14929706Y-9667317D01*
X14929706Y-9667317D02*
X14910658Y-9657793D01*
X14910658Y-9657793D02*
X14901134Y-9638746D01*
X14901134Y-9638746D02*
X14901134Y-9629222D01*
X14901134Y-9629222D02*
X14910658Y-9610174D01*
X14910658Y-9610174D02*
X14929706Y-9600650D01*
X14929706Y-9600650D02*
X14958277Y-9600650D01*
X14958277Y-9600650D02*
X14977325Y-9610174D01*
X15053515Y-9810174D02*
X15063039Y-9800650D01*
X15063039Y-9800650D02*
X15082087Y-9772079D01*
X15082087Y-9772079D02*
X15091611Y-9753031D01*
X15091611Y-9753031D02*
X15101134Y-9724460D01*
X15101134Y-9724460D02*
X15110658Y-9676841D01*
X15110658Y-9676841D02*
X15110658Y-9638746D01*
X15110658Y-9638746D02*
X15101134Y-9591127D01*
X15101134Y-9591127D02*
X15091611Y-9562555D01*
X15091611Y-9562555D02*
X15082087Y-9543508D01*
X15082087Y-9543508D02*
X15063039Y-9514936D01*
X15063039Y-9514936D02*
X15053515Y-9505412D01*
D12*
X9897500Y-9906500D02*
G75*
G02*
X9847500Y-9906500I-25000J0D01*
G01*
X9847500Y-9906500D02*
G75*
G02*
X9897500Y-9906500I25000J0D01*
G01*
D11*
X10196372Y-9797984D02*
X10215420Y-9797984D01*
X10215420Y-9797984D02*
X10234467Y-9807508D01*
X10234467Y-9807508D02*
X10243991Y-9817031D01*
X10243991Y-9817031D02*
X10253515Y-9836079D01*
X10253515Y-9836079D02*
X10263039Y-9874174D01*
X10263039Y-9874174D02*
X10263039Y-9921793D01*
X10263039Y-9921793D02*
X10253515Y-9959889D01*
X10253515Y-9959889D02*
X10243991Y-9978936D01*
X10243991Y-9978936D02*
X10234467Y-9988460D01*
X10234467Y-9988460D02*
X10215420Y-9997984D01*
X10215420Y-9997984D02*
X10196372Y-9997984D01*
X10196372Y-9997984D02*
X10177324Y-9988460D01*
X10177324Y-9988460D02*
X10167801Y-9978936D01*
X10167801Y-9978936D02*
X10158277Y-9959889D01*
X10158277Y-9959889D02*
X10148753Y-9921793D01*
X10148753Y-9921793D02*
X10148753Y-9874174D01*
X10148753Y-9874174D02*
X10158277Y-9836079D01*
X10158277Y-9836079D02*
X10167801Y-9817031D01*
X10167801Y-9817031D02*
X10177324Y-9807508D01*
X10177324Y-9807508D02*
X10196372Y-9797984D01*
X10348753Y-9978936D02*
X10358277Y-9988460D01*
X10358277Y-9988460D02*
X10348753Y-9997984D01*
X10348753Y-9997984D02*
X10339229Y-9988460D01*
X10339229Y-9988460D02*
X10348753Y-9978936D01*
X10348753Y-9978936D02*
X10348753Y-9997984D01*
X10539229Y-9797984D02*
X10443991Y-9797984D01*
X10443991Y-9797984D02*
X10434467Y-9893222D01*
X10434467Y-9893222D02*
X10443991Y-9883698D01*
X10443991Y-9883698D02*
X10463039Y-9874174D01*
X10463039Y-9874174D02*
X10510658Y-9874174D01*
X10510658Y-9874174D02*
X10529705Y-9883698D01*
X10529705Y-9883698D02*
X10539229Y-9893222D01*
X10539229Y-9893222D02*
X10548753Y-9912270D01*
X10548753Y-9912270D02*
X10548753Y-9959889D01*
X10548753Y-9959889D02*
X10539229Y-9978936D01*
X10539229Y-9978936D02*
X10529705Y-9988460D01*
X10529705Y-9988460D02*
X10510658Y-9997984D01*
X10510658Y-9997984D02*
X10463039Y-9997984D01*
X10463039Y-9997984D02*
X10443991Y-9988460D01*
X10443991Y-9988460D02*
X10434467Y-9978936D01*
X10672563Y-9797984D02*
X10691610Y-9797984D01*
X10691610Y-9797984D02*
X10710658Y-9807508D01*
X10710658Y-9807508D02*
X10720182Y-9817031D01*
X10720182Y-9817031D02*
X10729705Y-9836079D01*
X10729705Y-9836079D02*
X10739229Y-9874174D01*
X10739229Y-9874174D02*
X10739229Y-9921793D01*
X10739229Y-9921793D02*
X10729705Y-9959889D01*
X10729705Y-9959889D02*
X10720182Y-9978936D01*
X10720182Y-9978936D02*
X10710658Y-9988460D01*
X10710658Y-9988460D02*
X10691610Y-9997984D01*
X10691610Y-9997984D02*
X10672563Y-9997984D01*
X10672563Y-9997984D02*
X10653515Y-9988460D01*
X10653515Y-9988460D02*
X10643991Y-9978936D01*
X10643991Y-9978936D02*
X10634467Y-9959889D01*
X10634467Y-9959889D02*
X10624944Y-9921793D01*
X10624944Y-9921793D02*
X10624944Y-9874174D01*
X10624944Y-9874174D02*
X10634467Y-9836079D01*
X10634467Y-9836079D02*
X10643991Y-9817031D01*
X10643991Y-9817031D02*
X10653515Y-9807508D01*
X10653515Y-9807508D02*
X10672563Y-9797984D01*
X10863039Y-9797984D02*
X10882086Y-9797984D01*
X10882086Y-9797984D02*
X10901134Y-9807508D01*
X10901134Y-9807508D02*
X10910658Y-9817031D01*
X10910658Y-9817031D02*
X10920182Y-9836079D01*
X10920182Y-9836079D02*
X10929705Y-9874174D01*
X10929705Y-9874174D02*
X10929705Y-9921793D01*
X10929705Y-9921793D02*
X10920182Y-9959889D01*
X10920182Y-9959889D02*
X10910658Y-9978936D01*
X10910658Y-9978936D02*
X10901134Y-9988460D01*
X10901134Y-9988460D02*
X10882086Y-9997984D01*
X10882086Y-9997984D02*
X10863039Y-9997984D01*
X10863039Y-9997984D02*
X10843991Y-9988460D01*
X10843991Y-9988460D02*
X10834467Y-9978936D01*
X10834467Y-9978936D02*
X10824944Y-9959889D01*
X10824944Y-9959889D02*
X10815420Y-9921793D01*
X10815420Y-9921793D02*
X10815420Y-9874174D01*
X10815420Y-9874174D02*
X10824944Y-9836079D01*
X10824944Y-9836079D02*
X10834467Y-9817031D01*
X10834467Y-9817031D02*
X10843991Y-9807508D01*
X10843991Y-9807508D02*
X10863039Y-9797984D01*
X11015420Y-9997984D02*
X11015420Y-9864650D01*
X11015420Y-9883698D02*
X11024944Y-9874174D01*
X11024944Y-9874174D02*
X11043991Y-9864650D01*
X11043991Y-9864650D02*
X11072563Y-9864650D01*
X11072563Y-9864650D02*
X11091610Y-9874174D01*
X11091610Y-9874174D02*
X11101134Y-9893222D01*
X11101134Y-9893222D02*
X11101134Y-9997984D01*
X11101134Y-9893222D02*
X11110658Y-9874174D01*
X11110658Y-9874174D02*
X11129705Y-9864650D01*
X11129705Y-9864650D02*
X11158277Y-9864650D01*
X11158277Y-9864650D02*
X11177325Y-9874174D01*
X11177325Y-9874174D02*
X11186848Y-9893222D01*
X11186848Y-9893222D02*
X11186848Y-9997984D01*
X11282086Y-9997984D02*
X11282086Y-9864650D01*
X11282086Y-9883698D02*
X11291610Y-9874174D01*
X11291610Y-9874174D02*
X11310658Y-9864650D01*
X11310658Y-9864650D02*
X11339229Y-9864650D01*
X11339229Y-9864650D02*
X11358277Y-9874174D01*
X11358277Y-9874174D02*
X11367801Y-9893222D01*
X11367801Y-9893222D02*
X11367801Y-9997984D01*
X11367801Y-9893222D02*
X11377324Y-9874174D01*
X11377324Y-9874174D02*
X11396372Y-9864650D01*
X11396372Y-9864650D02*
X11424943Y-9864650D01*
X11424943Y-9864650D02*
X11443991Y-9874174D01*
X11443991Y-9874174D02*
X11453515Y-9893222D01*
X11453515Y-9893222D02*
X11453515Y-9997984D01*
X11843991Y-9788460D02*
X11672563Y-10045603D01*
X12101134Y-9797984D02*
X12120182Y-9797984D01*
X12120182Y-9797984D02*
X12139229Y-9807508D01*
X12139229Y-9807508D02*
X12148753Y-9817031D01*
X12148753Y-9817031D02*
X12158277Y-9836079D01*
X12158277Y-9836079D02*
X12167801Y-9874174D01*
X12167801Y-9874174D02*
X12167801Y-9921793D01*
X12167801Y-9921793D02*
X12158277Y-9959889D01*
X12158277Y-9959889D02*
X12148753Y-9978936D01*
X12148753Y-9978936D02*
X12139229Y-9988460D01*
X12139229Y-9988460D02*
X12120182Y-9997984D01*
X12120182Y-9997984D02*
X12101134Y-9997984D01*
X12101134Y-9997984D02*
X12082086Y-9988460D01*
X12082086Y-9988460D02*
X12072563Y-9978936D01*
X12072563Y-9978936D02*
X12063039Y-9959889D01*
X12063039Y-9959889D02*
X12053515Y-9921793D01*
X12053515Y-9921793D02*
X12053515Y-9874174D01*
X12053515Y-9874174D02*
X12063039Y-9836079D01*
X12063039Y-9836079D02*
X12072563Y-9817031D01*
X12072563Y-9817031D02*
X12082086Y-9807508D01*
X12082086Y-9807508D02*
X12101134Y-9797984D01*
X12253515Y-9978936D02*
X12263039Y-9988460D01*
X12263039Y-9988460D02*
X12253515Y-9997984D01*
X12253515Y-9997984D02*
X12243991Y-9988460D01*
X12243991Y-9988460D02*
X12253515Y-9978936D01*
X12253515Y-9978936D02*
X12253515Y-9997984D01*
X12386848Y-9797984D02*
X12405896Y-9797984D01*
X12405896Y-9797984D02*
X12424944Y-9807508D01*
X12424944Y-9807508D02*
X12434467Y-9817031D01*
X12434467Y-9817031D02*
X12443991Y-9836079D01*
X12443991Y-9836079D02*
X12453515Y-9874174D01*
X12453515Y-9874174D02*
X12453515Y-9921793D01*
X12453515Y-9921793D02*
X12443991Y-9959889D01*
X12443991Y-9959889D02*
X12434467Y-9978936D01*
X12434467Y-9978936D02*
X12424944Y-9988460D01*
X12424944Y-9988460D02*
X12405896Y-9997984D01*
X12405896Y-9997984D02*
X12386848Y-9997984D01*
X12386848Y-9997984D02*
X12367801Y-9988460D01*
X12367801Y-9988460D02*
X12358277Y-9978936D01*
X12358277Y-9978936D02*
X12348753Y-9959889D01*
X12348753Y-9959889D02*
X12339229Y-9921793D01*
X12339229Y-9921793D02*
X12339229Y-9874174D01*
X12339229Y-9874174D02*
X12348753Y-9836079D01*
X12348753Y-9836079D02*
X12358277Y-9817031D01*
X12358277Y-9817031D02*
X12367801Y-9807508D01*
X12367801Y-9807508D02*
X12386848Y-9797984D01*
X12643991Y-9997984D02*
X12529706Y-9997984D01*
X12586848Y-9997984D02*
X12586848Y-9797984D01*
X12586848Y-9797984D02*
X12567801Y-9826555D01*
X12567801Y-9826555D02*
X12548753Y-9845603D01*
X12548753Y-9845603D02*
X12529706Y-9855127D01*
X12739229Y-9997984D02*
X12777325Y-9997984D01*
X12777325Y-9997984D02*
X12796372Y-9988460D01*
X12796372Y-9988460D02*
X12805896Y-9978936D01*
X12805896Y-9978936D02*
X12824944Y-9950365D01*
X12824944Y-9950365D02*
X12834467Y-9912270D01*
X12834467Y-9912270D02*
X12834467Y-9836079D01*
X12834467Y-9836079D02*
X12824944Y-9817031D01*
X12824944Y-9817031D02*
X12815420Y-9807508D01*
X12815420Y-9807508D02*
X12796372Y-9797984D01*
X12796372Y-9797984D02*
X12758277Y-9797984D01*
X12758277Y-9797984D02*
X12739229Y-9807508D01*
X12739229Y-9807508D02*
X12729706Y-9817031D01*
X12729706Y-9817031D02*
X12720182Y-9836079D01*
X12720182Y-9836079D02*
X12720182Y-9883698D01*
X12720182Y-9883698D02*
X12729706Y-9902746D01*
X12729706Y-9902746D02*
X12739229Y-9912270D01*
X12739229Y-9912270D02*
X12758277Y-9921793D01*
X12758277Y-9921793D02*
X12796372Y-9921793D01*
X12796372Y-9921793D02*
X12815420Y-9912270D01*
X12815420Y-9912270D02*
X12824944Y-9902746D01*
X12824944Y-9902746D02*
X12834467Y-9883698D01*
X12901134Y-9797984D02*
X13034467Y-9797984D01*
X13034467Y-9797984D02*
X12948753Y-9997984D01*
X13101134Y-9797984D02*
X13101134Y-9836079D01*
X13177325Y-9797984D02*
X13177325Y-9836079D01*
X13472563Y-10074174D02*
X13463039Y-10064650D01*
X13463039Y-10064650D02*
X13443991Y-10036079D01*
X13443991Y-10036079D02*
X13434468Y-10017031D01*
X13434468Y-10017031D02*
X13424944Y-9988460D01*
X13424944Y-9988460D02*
X13415420Y-9940841D01*
X13415420Y-9940841D02*
X13415420Y-9902746D01*
X13415420Y-9902746D02*
X13424944Y-9855127D01*
X13424944Y-9855127D02*
X13434468Y-9826555D01*
X13434468Y-9826555D02*
X13443991Y-9807508D01*
X13443991Y-9807508D02*
X13463039Y-9778936D01*
X13463039Y-9778936D02*
X13472563Y-9769412D01*
X13653515Y-9997984D02*
X13539229Y-9997984D01*
X13596372Y-9997984D02*
X13596372Y-9797984D01*
X13596372Y-9797984D02*
X13577325Y-9826555D01*
X13577325Y-9826555D02*
X13558277Y-9845603D01*
X13558277Y-9845603D02*
X13539229Y-9855127D01*
X13891610Y-9997984D02*
X13891610Y-9797984D01*
X13977325Y-9997984D02*
X13977325Y-9893222D01*
X13977325Y-9893222D02*
X13967801Y-9874174D01*
X13967801Y-9874174D02*
X13948753Y-9864650D01*
X13948753Y-9864650D02*
X13920182Y-9864650D01*
X13920182Y-9864650D02*
X13901134Y-9874174D01*
X13901134Y-9874174D02*
X13891610Y-9883698D01*
X14101134Y-9997984D02*
X14082087Y-9988460D01*
X14082087Y-9988460D02*
X14072563Y-9978936D01*
X14072563Y-9978936D02*
X14063039Y-9959889D01*
X14063039Y-9959889D02*
X14063039Y-9902746D01*
X14063039Y-9902746D02*
X14072563Y-9883698D01*
X14072563Y-9883698D02*
X14082087Y-9874174D01*
X14082087Y-9874174D02*
X14101134Y-9864650D01*
X14101134Y-9864650D02*
X14129706Y-9864650D01*
X14129706Y-9864650D02*
X14148753Y-9874174D01*
X14148753Y-9874174D02*
X14158277Y-9883698D01*
X14158277Y-9883698D02*
X14167801Y-9902746D01*
X14167801Y-9902746D02*
X14167801Y-9959889D01*
X14167801Y-9959889D02*
X14158277Y-9978936D01*
X14158277Y-9978936D02*
X14148753Y-9988460D01*
X14148753Y-9988460D02*
X14129706Y-9997984D01*
X14129706Y-9997984D02*
X14101134Y-9997984D01*
X14282087Y-9997984D02*
X14263039Y-9988460D01*
X14263039Y-9988460D02*
X14253515Y-9969412D01*
X14253515Y-9969412D02*
X14253515Y-9797984D01*
X14434468Y-9988460D02*
X14415420Y-9997984D01*
X14415420Y-9997984D02*
X14377325Y-9997984D01*
X14377325Y-9997984D02*
X14358277Y-9988460D01*
X14358277Y-9988460D02*
X14348753Y-9969412D01*
X14348753Y-9969412D02*
X14348753Y-9893222D01*
X14348753Y-9893222D02*
X14358277Y-9874174D01*
X14358277Y-9874174D02*
X14377325Y-9864650D01*
X14377325Y-9864650D02*
X14415420Y-9864650D01*
X14415420Y-9864650D02*
X14434468Y-9874174D01*
X14434468Y-9874174D02*
X14443991Y-9893222D01*
X14443991Y-9893222D02*
X14443991Y-9912270D01*
X14443991Y-9912270D02*
X14348753Y-9931317D01*
X14510658Y-10074174D02*
X14520182Y-10064650D01*
X14520182Y-10064650D02*
X14539230Y-10036079D01*
X14539230Y-10036079D02*
X14548753Y-10017031D01*
X14548753Y-10017031D02*
X14558277Y-9988460D01*
X14558277Y-9988460D02*
X14567801Y-9940841D01*
X14567801Y-9940841D02*
X14567801Y-9902746D01*
X14567801Y-9902746D02*
X14558277Y-9855127D01*
X14558277Y-9855127D02*
X14548753Y-9826555D01*
X14548753Y-9826555D02*
X14539230Y-9807508D01*
X14539230Y-9807508D02*
X14520182Y-9778936D01*
X14520182Y-9778936D02*
X14510658Y-9769412D01*
D12*
X9865000Y-10138000D02*
X9865000Y-10203000D01*
X9832500Y-10170500D02*
X9897500Y-10170500D01*
D11*
X10196372Y-10061984D02*
X10215420Y-10061984D01*
X10215420Y-10061984D02*
X10234467Y-10071508D01*
X10234467Y-10071508D02*
X10243991Y-10081031D01*
X10243991Y-10081031D02*
X10253515Y-10100079D01*
X10253515Y-10100079D02*
X10263039Y-10138174D01*
X10263039Y-10138174D02*
X10263039Y-10185793D01*
X10263039Y-10185793D02*
X10253515Y-10223889D01*
X10253515Y-10223889D02*
X10243991Y-10242936D01*
X10243991Y-10242936D02*
X10234467Y-10252460D01*
X10234467Y-10252460D02*
X10215420Y-10261984D01*
X10215420Y-10261984D02*
X10196372Y-10261984D01*
X10196372Y-10261984D02*
X10177324Y-10252460D01*
X10177324Y-10252460D02*
X10167801Y-10242936D01*
X10167801Y-10242936D02*
X10158277Y-10223889D01*
X10158277Y-10223889D02*
X10148753Y-10185793D01*
X10148753Y-10185793D02*
X10148753Y-10138174D01*
X10148753Y-10138174D02*
X10158277Y-10100079D01*
X10158277Y-10100079D02*
X10167801Y-10081031D01*
X10167801Y-10081031D02*
X10177324Y-10071508D01*
X10177324Y-10071508D02*
X10196372Y-10061984D01*
X10348753Y-10242936D02*
X10358277Y-10252460D01*
X10358277Y-10252460D02*
X10348753Y-10261984D01*
X10348753Y-10261984D02*
X10339229Y-10252460D01*
X10339229Y-10252460D02*
X10348753Y-10242936D01*
X10348753Y-10242936D02*
X10348753Y-10261984D01*
X10529705Y-10061984D02*
X10491610Y-10061984D01*
X10491610Y-10061984D02*
X10472563Y-10071508D01*
X10472563Y-10071508D02*
X10463039Y-10081031D01*
X10463039Y-10081031D02*
X10443991Y-10109603D01*
X10443991Y-10109603D02*
X10434467Y-10147698D01*
X10434467Y-10147698D02*
X10434467Y-10223889D01*
X10434467Y-10223889D02*
X10443991Y-10242936D01*
X10443991Y-10242936D02*
X10453515Y-10252460D01*
X10453515Y-10252460D02*
X10472563Y-10261984D01*
X10472563Y-10261984D02*
X10510658Y-10261984D01*
X10510658Y-10261984D02*
X10529705Y-10252460D01*
X10529705Y-10252460D02*
X10539229Y-10242936D01*
X10539229Y-10242936D02*
X10548753Y-10223889D01*
X10548753Y-10223889D02*
X10548753Y-10176270D01*
X10548753Y-10176270D02*
X10539229Y-10157222D01*
X10539229Y-10157222D02*
X10529705Y-10147698D01*
X10529705Y-10147698D02*
X10510658Y-10138174D01*
X10510658Y-10138174D02*
X10472563Y-10138174D01*
X10472563Y-10138174D02*
X10453515Y-10147698D01*
X10453515Y-10147698D02*
X10443991Y-10157222D01*
X10443991Y-10157222D02*
X10434467Y-10176270D01*
X10729705Y-10061984D02*
X10634467Y-10061984D01*
X10634467Y-10061984D02*
X10624944Y-10157222D01*
X10624944Y-10157222D02*
X10634467Y-10147698D01*
X10634467Y-10147698D02*
X10653515Y-10138174D01*
X10653515Y-10138174D02*
X10701134Y-10138174D01*
X10701134Y-10138174D02*
X10720182Y-10147698D01*
X10720182Y-10147698D02*
X10729705Y-10157222D01*
X10729705Y-10157222D02*
X10739229Y-10176270D01*
X10739229Y-10176270D02*
X10739229Y-10223889D01*
X10739229Y-10223889D02*
X10729705Y-10242936D01*
X10729705Y-10242936D02*
X10720182Y-10252460D01*
X10720182Y-10252460D02*
X10701134Y-10261984D01*
X10701134Y-10261984D02*
X10653515Y-10261984D01*
X10653515Y-10261984D02*
X10634467Y-10252460D01*
X10634467Y-10252460D02*
X10624944Y-10242936D01*
X10863039Y-10061984D02*
X10882086Y-10061984D01*
X10882086Y-10061984D02*
X10901134Y-10071508D01*
X10901134Y-10071508D02*
X10910658Y-10081031D01*
X10910658Y-10081031D02*
X10920182Y-10100079D01*
X10920182Y-10100079D02*
X10929705Y-10138174D01*
X10929705Y-10138174D02*
X10929705Y-10185793D01*
X10929705Y-10185793D02*
X10920182Y-10223889D01*
X10920182Y-10223889D02*
X10910658Y-10242936D01*
X10910658Y-10242936D02*
X10901134Y-10252460D01*
X10901134Y-10252460D02*
X10882086Y-10261984D01*
X10882086Y-10261984D02*
X10863039Y-10261984D01*
X10863039Y-10261984D02*
X10843991Y-10252460D01*
X10843991Y-10252460D02*
X10834467Y-10242936D01*
X10834467Y-10242936D02*
X10824944Y-10223889D01*
X10824944Y-10223889D02*
X10815420Y-10185793D01*
X10815420Y-10185793D02*
X10815420Y-10138174D01*
X10815420Y-10138174D02*
X10824944Y-10100079D01*
X10824944Y-10100079D02*
X10834467Y-10081031D01*
X10834467Y-10081031D02*
X10843991Y-10071508D01*
X10843991Y-10071508D02*
X10863039Y-10061984D01*
X11015420Y-10261984D02*
X11015420Y-10128650D01*
X11015420Y-10147698D02*
X11024944Y-10138174D01*
X11024944Y-10138174D02*
X11043991Y-10128650D01*
X11043991Y-10128650D02*
X11072563Y-10128650D01*
X11072563Y-10128650D02*
X11091610Y-10138174D01*
X11091610Y-10138174D02*
X11101134Y-10157222D01*
X11101134Y-10157222D02*
X11101134Y-10261984D01*
X11101134Y-10157222D02*
X11110658Y-10138174D01*
X11110658Y-10138174D02*
X11129705Y-10128650D01*
X11129705Y-10128650D02*
X11158277Y-10128650D01*
X11158277Y-10128650D02*
X11177325Y-10138174D01*
X11177325Y-10138174D02*
X11186848Y-10157222D01*
X11186848Y-10157222D02*
X11186848Y-10261984D01*
X11282086Y-10261984D02*
X11282086Y-10128650D01*
X11282086Y-10147698D02*
X11291610Y-10138174D01*
X11291610Y-10138174D02*
X11310658Y-10128650D01*
X11310658Y-10128650D02*
X11339229Y-10128650D01*
X11339229Y-10128650D02*
X11358277Y-10138174D01*
X11358277Y-10138174D02*
X11367801Y-10157222D01*
X11367801Y-10157222D02*
X11367801Y-10261984D01*
X11367801Y-10157222D02*
X11377324Y-10138174D01*
X11377324Y-10138174D02*
X11396372Y-10128650D01*
X11396372Y-10128650D02*
X11424943Y-10128650D01*
X11424943Y-10128650D02*
X11443991Y-10138174D01*
X11443991Y-10138174D02*
X11453515Y-10157222D01*
X11453515Y-10157222D02*
X11453515Y-10261984D01*
X11843991Y-10052460D02*
X11672563Y-10309603D01*
X12101134Y-10061984D02*
X12120182Y-10061984D01*
X12120182Y-10061984D02*
X12139229Y-10071508D01*
X12139229Y-10071508D02*
X12148753Y-10081031D01*
X12148753Y-10081031D02*
X12158277Y-10100079D01*
X12158277Y-10100079D02*
X12167801Y-10138174D01*
X12167801Y-10138174D02*
X12167801Y-10185793D01*
X12167801Y-10185793D02*
X12158277Y-10223889D01*
X12158277Y-10223889D02*
X12148753Y-10242936D01*
X12148753Y-10242936D02*
X12139229Y-10252460D01*
X12139229Y-10252460D02*
X12120182Y-10261984D01*
X12120182Y-10261984D02*
X12101134Y-10261984D01*
X12101134Y-10261984D02*
X12082086Y-10252460D01*
X12082086Y-10252460D02*
X12072563Y-10242936D01*
X12072563Y-10242936D02*
X12063039Y-10223889D01*
X12063039Y-10223889D02*
X12053515Y-10185793D01*
X12053515Y-10185793D02*
X12053515Y-10138174D01*
X12053515Y-10138174D02*
X12063039Y-10100079D01*
X12063039Y-10100079D02*
X12072563Y-10081031D01*
X12072563Y-10081031D02*
X12082086Y-10071508D01*
X12082086Y-10071508D02*
X12101134Y-10061984D01*
X12253515Y-10242936D02*
X12263039Y-10252460D01*
X12263039Y-10252460D02*
X12253515Y-10261984D01*
X12253515Y-10261984D02*
X12243991Y-10252460D01*
X12243991Y-10252460D02*
X12253515Y-10242936D01*
X12253515Y-10242936D02*
X12253515Y-10261984D01*
X12386848Y-10061984D02*
X12405896Y-10061984D01*
X12405896Y-10061984D02*
X12424944Y-10071508D01*
X12424944Y-10071508D02*
X12434467Y-10081031D01*
X12434467Y-10081031D02*
X12443991Y-10100079D01*
X12443991Y-10100079D02*
X12453515Y-10138174D01*
X12453515Y-10138174D02*
X12453515Y-10185793D01*
X12453515Y-10185793D02*
X12443991Y-10223889D01*
X12443991Y-10223889D02*
X12434467Y-10242936D01*
X12434467Y-10242936D02*
X12424944Y-10252460D01*
X12424944Y-10252460D02*
X12405896Y-10261984D01*
X12405896Y-10261984D02*
X12386848Y-10261984D01*
X12386848Y-10261984D02*
X12367801Y-10252460D01*
X12367801Y-10252460D02*
X12358277Y-10242936D01*
X12358277Y-10242936D02*
X12348753Y-10223889D01*
X12348753Y-10223889D02*
X12339229Y-10185793D01*
X12339229Y-10185793D02*
X12339229Y-10138174D01*
X12339229Y-10138174D02*
X12348753Y-10100079D01*
X12348753Y-10100079D02*
X12358277Y-10081031D01*
X12358277Y-10081031D02*
X12367801Y-10071508D01*
X12367801Y-10071508D02*
X12386848Y-10061984D01*
X12529706Y-10081031D02*
X12539229Y-10071508D01*
X12539229Y-10071508D02*
X12558277Y-10061984D01*
X12558277Y-10061984D02*
X12605896Y-10061984D01*
X12605896Y-10061984D02*
X12624944Y-10071508D01*
X12624944Y-10071508D02*
X12634467Y-10081031D01*
X12634467Y-10081031D02*
X12643991Y-10100079D01*
X12643991Y-10100079D02*
X12643991Y-10119127D01*
X12643991Y-10119127D02*
X12634467Y-10147698D01*
X12634467Y-10147698D02*
X12520182Y-10261984D01*
X12520182Y-10261984D02*
X12643991Y-10261984D01*
X12824944Y-10061984D02*
X12729706Y-10061984D01*
X12729706Y-10061984D02*
X12720182Y-10157222D01*
X12720182Y-10157222D02*
X12729706Y-10147698D01*
X12729706Y-10147698D02*
X12748753Y-10138174D01*
X12748753Y-10138174D02*
X12796372Y-10138174D01*
X12796372Y-10138174D02*
X12815420Y-10147698D01*
X12815420Y-10147698D02*
X12824944Y-10157222D01*
X12824944Y-10157222D02*
X12834467Y-10176270D01*
X12834467Y-10176270D02*
X12834467Y-10223889D01*
X12834467Y-10223889D02*
X12824944Y-10242936D01*
X12824944Y-10242936D02*
X12815420Y-10252460D01*
X12815420Y-10252460D02*
X12796372Y-10261984D01*
X12796372Y-10261984D02*
X12748753Y-10261984D01*
X12748753Y-10261984D02*
X12729706Y-10252460D01*
X12729706Y-10252460D02*
X12720182Y-10242936D01*
X13005896Y-10061984D02*
X12967801Y-10061984D01*
X12967801Y-10061984D02*
X12948753Y-10071508D01*
X12948753Y-10071508D02*
X12939229Y-10081031D01*
X12939229Y-10081031D02*
X12920182Y-10109603D01*
X12920182Y-10109603D02*
X12910658Y-10147698D01*
X12910658Y-10147698D02*
X12910658Y-10223889D01*
X12910658Y-10223889D02*
X12920182Y-10242936D01*
X12920182Y-10242936D02*
X12929706Y-10252460D01*
X12929706Y-10252460D02*
X12948753Y-10261984D01*
X12948753Y-10261984D02*
X12986848Y-10261984D01*
X12986848Y-10261984D02*
X13005896Y-10252460D01*
X13005896Y-10252460D02*
X13015420Y-10242936D01*
X13015420Y-10242936D02*
X13024944Y-10223889D01*
X13024944Y-10223889D02*
X13024944Y-10176270D01*
X13024944Y-10176270D02*
X13015420Y-10157222D01*
X13015420Y-10157222D02*
X13005896Y-10147698D01*
X13005896Y-10147698D02*
X12986848Y-10138174D01*
X12986848Y-10138174D02*
X12948753Y-10138174D01*
X12948753Y-10138174D02*
X12929706Y-10147698D01*
X12929706Y-10147698D02*
X12920182Y-10157222D01*
X12920182Y-10157222D02*
X12910658Y-10176270D01*
X13101134Y-10061984D02*
X13101134Y-10100079D01*
X13177325Y-10061984D02*
X13177325Y-10100079D01*
X13472563Y-10338174D02*
X13463039Y-10328650D01*
X13463039Y-10328650D02*
X13443991Y-10300079D01*
X13443991Y-10300079D02*
X13434468Y-10281031D01*
X13434468Y-10281031D02*
X13424944Y-10252460D01*
X13424944Y-10252460D02*
X13415420Y-10204841D01*
X13415420Y-10204841D02*
X13415420Y-10166746D01*
X13415420Y-10166746D02*
X13424944Y-10119127D01*
X13424944Y-10119127D02*
X13434468Y-10090555D01*
X13434468Y-10090555D02*
X13443991Y-10071508D01*
X13443991Y-10071508D02*
X13463039Y-10042936D01*
X13463039Y-10042936D02*
X13472563Y-10033412D01*
X13634468Y-10061984D02*
X13596372Y-10061984D01*
X13596372Y-10061984D02*
X13577325Y-10071508D01*
X13577325Y-10071508D02*
X13567801Y-10081031D01*
X13567801Y-10081031D02*
X13548753Y-10109603D01*
X13548753Y-10109603D02*
X13539229Y-10147698D01*
X13539229Y-10147698D02*
X13539229Y-10223889D01*
X13539229Y-10223889D02*
X13548753Y-10242936D01*
X13548753Y-10242936D02*
X13558277Y-10252460D01*
X13558277Y-10252460D02*
X13577325Y-10261984D01*
X13577325Y-10261984D02*
X13615420Y-10261984D01*
X13615420Y-10261984D02*
X13634468Y-10252460D01*
X13634468Y-10252460D02*
X13643991Y-10242936D01*
X13643991Y-10242936D02*
X13653515Y-10223889D01*
X13653515Y-10223889D02*
X13653515Y-10176270D01*
X13653515Y-10176270D02*
X13643991Y-10157222D01*
X13643991Y-10157222D02*
X13634468Y-10147698D01*
X13634468Y-10147698D02*
X13615420Y-10138174D01*
X13615420Y-10138174D02*
X13577325Y-10138174D01*
X13577325Y-10138174D02*
X13558277Y-10147698D01*
X13558277Y-10147698D02*
X13548753Y-10157222D01*
X13548753Y-10157222D02*
X13539229Y-10176270D01*
X13891610Y-10261984D02*
X13891610Y-10061984D01*
X13977325Y-10261984D02*
X13977325Y-10157222D01*
X13977325Y-10157222D02*
X13967801Y-10138174D01*
X13967801Y-10138174D02*
X13948753Y-10128650D01*
X13948753Y-10128650D02*
X13920182Y-10128650D01*
X13920182Y-10128650D02*
X13901134Y-10138174D01*
X13901134Y-10138174D02*
X13891610Y-10147698D01*
X14101134Y-10261984D02*
X14082087Y-10252460D01*
X14082087Y-10252460D02*
X14072563Y-10242936D01*
X14072563Y-10242936D02*
X14063039Y-10223889D01*
X14063039Y-10223889D02*
X14063039Y-10166746D01*
X14063039Y-10166746D02*
X14072563Y-10147698D01*
X14072563Y-10147698D02*
X14082087Y-10138174D01*
X14082087Y-10138174D02*
X14101134Y-10128650D01*
X14101134Y-10128650D02*
X14129706Y-10128650D01*
X14129706Y-10128650D02*
X14148753Y-10138174D01*
X14148753Y-10138174D02*
X14158277Y-10147698D01*
X14158277Y-10147698D02*
X14167801Y-10166746D01*
X14167801Y-10166746D02*
X14167801Y-10223889D01*
X14167801Y-10223889D02*
X14158277Y-10242936D01*
X14158277Y-10242936D02*
X14148753Y-10252460D01*
X14148753Y-10252460D02*
X14129706Y-10261984D01*
X14129706Y-10261984D02*
X14101134Y-10261984D01*
X14282087Y-10261984D02*
X14263039Y-10252460D01*
X14263039Y-10252460D02*
X14253515Y-10233412D01*
X14253515Y-10233412D02*
X14253515Y-10061984D01*
X14434468Y-10252460D02*
X14415420Y-10261984D01*
X14415420Y-10261984D02*
X14377325Y-10261984D01*
X14377325Y-10261984D02*
X14358277Y-10252460D01*
X14358277Y-10252460D02*
X14348753Y-10233412D01*
X14348753Y-10233412D02*
X14348753Y-10157222D01*
X14348753Y-10157222D02*
X14358277Y-10138174D01*
X14358277Y-10138174D02*
X14377325Y-10128650D01*
X14377325Y-10128650D02*
X14415420Y-10128650D01*
X14415420Y-10128650D02*
X14434468Y-10138174D01*
X14434468Y-10138174D02*
X14443991Y-10157222D01*
X14443991Y-10157222D02*
X14443991Y-10176270D01*
X14443991Y-10176270D02*
X14348753Y-10195317D01*
X14520182Y-10252460D02*
X14539230Y-10261984D01*
X14539230Y-10261984D02*
X14577325Y-10261984D01*
X14577325Y-10261984D02*
X14596372Y-10252460D01*
X14596372Y-10252460D02*
X14605896Y-10233412D01*
X14605896Y-10233412D02*
X14605896Y-10223889D01*
X14605896Y-10223889D02*
X14596372Y-10204841D01*
X14596372Y-10204841D02*
X14577325Y-10195317D01*
X14577325Y-10195317D02*
X14548753Y-10195317D01*
X14548753Y-10195317D02*
X14529706Y-10185793D01*
X14529706Y-10185793D02*
X14520182Y-10166746D01*
X14520182Y-10166746D02*
X14520182Y-10157222D01*
X14520182Y-10157222D02*
X14529706Y-10138174D01*
X14529706Y-10138174D02*
X14548753Y-10128650D01*
X14548753Y-10128650D02*
X14577325Y-10128650D01*
X14577325Y-10128650D02*
X14596372Y-10138174D01*
X14672563Y-10338174D02*
X14682087Y-10328650D01*
X14682087Y-10328650D02*
X14701134Y-10300079D01*
X14701134Y-10300079D02*
X14710658Y-10281031D01*
X14710658Y-10281031D02*
X14720182Y-10252460D01*
X14720182Y-10252460D02*
X14729706Y-10204841D01*
X14729706Y-10204841D02*
X14729706Y-10166746D01*
X14729706Y-10166746D02*
X14720182Y-10119127D01*
X14720182Y-10119127D02*
X14710658Y-10090555D01*
X14710658Y-10090555D02*
X14701134Y-10071508D01*
X14701134Y-10071508D02*
X14682087Y-10042936D01*
X14682087Y-10042936D02*
X14672563Y-10033412D01*
X9868211Y-10505211D02*
X9868211Y-10363789D01*
X9726789Y-10363789D01*
X9726789Y-10505211D01*
X9868211Y-10505211D01*
X10139229Y-10325984D02*
X10263039Y-10325984D01*
X10263039Y-10325984D02*
X10196372Y-10402174D01*
X10196372Y-10402174D02*
X10224944Y-10402174D01*
X10224944Y-10402174D02*
X10243991Y-10411698D01*
X10243991Y-10411698D02*
X10253515Y-10421222D01*
X10253515Y-10421222D02*
X10263039Y-10440270D01*
X10263039Y-10440270D02*
X10263039Y-10487889D01*
X10263039Y-10487889D02*
X10253515Y-10506936D01*
X10253515Y-10506936D02*
X10243991Y-10516460D01*
X10243991Y-10516460D02*
X10224944Y-10525984D01*
X10224944Y-10525984D02*
X10167801Y-10525984D01*
X10167801Y-10525984D02*
X10148753Y-10516460D01*
X10148753Y-10516460D02*
X10139229Y-10506936D01*
X10348753Y-10506936D02*
X10358277Y-10516460D01*
X10358277Y-10516460D02*
X10348753Y-10525984D01*
X10348753Y-10525984D02*
X10339229Y-10516460D01*
X10339229Y-10516460D02*
X10348753Y-10506936D01*
X10348753Y-10506936D02*
X10348753Y-10525984D01*
X10434467Y-10345031D02*
X10443991Y-10335508D01*
X10443991Y-10335508D02*
X10463039Y-10325984D01*
X10463039Y-10325984D02*
X10510658Y-10325984D01*
X10510658Y-10325984D02*
X10529705Y-10335508D01*
X10529705Y-10335508D02*
X10539229Y-10345031D01*
X10539229Y-10345031D02*
X10548753Y-10364079D01*
X10548753Y-10364079D02*
X10548753Y-10383127D01*
X10548753Y-10383127D02*
X10539229Y-10411698D01*
X10539229Y-10411698D02*
X10424944Y-10525984D01*
X10424944Y-10525984D02*
X10548753Y-10525984D01*
X10672563Y-10325984D02*
X10691610Y-10325984D01*
X10691610Y-10325984D02*
X10710658Y-10335508D01*
X10710658Y-10335508D02*
X10720182Y-10345031D01*
X10720182Y-10345031D02*
X10729705Y-10364079D01*
X10729705Y-10364079D02*
X10739229Y-10402174D01*
X10739229Y-10402174D02*
X10739229Y-10449793D01*
X10739229Y-10449793D02*
X10729705Y-10487889D01*
X10729705Y-10487889D02*
X10720182Y-10506936D01*
X10720182Y-10506936D02*
X10710658Y-10516460D01*
X10710658Y-10516460D02*
X10691610Y-10525984D01*
X10691610Y-10525984D02*
X10672563Y-10525984D01*
X10672563Y-10525984D02*
X10653515Y-10516460D01*
X10653515Y-10516460D02*
X10643991Y-10506936D01*
X10643991Y-10506936D02*
X10634467Y-10487889D01*
X10634467Y-10487889D02*
X10624944Y-10449793D01*
X10624944Y-10449793D02*
X10624944Y-10402174D01*
X10624944Y-10402174D02*
X10634467Y-10364079D01*
X10634467Y-10364079D02*
X10643991Y-10345031D01*
X10643991Y-10345031D02*
X10653515Y-10335508D01*
X10653515Y-10335508D02*
X10672563Y-10325984D01*
X10863039Y-10325984D02*
X10882086Y-10325984D01*
X10882086Y-10325984D02*
X10901134Y-10335508D01*
X10901134Y-10335508D02*
X10910658Y-10345031D01*
X10910658Y-10345031D02*
X10920182Y-10364079D01*
X10920182Y-10364079D02*
X10929705Y-10402174D01*
X10929705Y-10402174D02*
X10929705Y-10449793D01*
X10929705Y-10449793D02*
X10920182Y-10487889D01*
X10920182Y-10487889D02*
X10910658Y-10506936D01*
X10910658Y-10506936D02*
X10901134Y-10516460D01*
X10901134Y-10516460D02*
X10882086Y-10525984D01*
X10882086Y-10525984D02*
X10863039Y-10525984D01*
X10863039Y-10525984D02*
X10843991Y-10516460D01*
X10843991Y-10516460D02*
X10834467Y-10506936D01*
X10834467Y-10506936D02*
X10824944Y-10487889D01*
X10824944Y-10487889D02*
X10815420Y-10449793D01*
X10815420Y-10449793D02*
X10815420Y-10402174D01*
X10815420Y-10402174D02*
X10824944Y-10364079D01*
X10824944Y-10364079D02*
X10834467Y-10345031D01*
X10834467Y-10345031D02*
X10843991Y-10335508D01*
X10843991Y-10335508D02*
X10863039Y-10325984D01*
X11015420Y-10525984D02*
X11015420Y-10392650D01*
X11015420Y-10411698D02*
X11024944Y-10402174D01*
X11024944Y-10402174D02*
X11043991Y-10392650D01*
X11043991Y-10392650D02*
X11072563Y-10392650D01*
X11072563Y-10392650D02*
X11091610Y-10402174D01*
X11091610Y-10402174D02*
X11101134Y-10421222D01*
X11101134Y-10421222D02*
X11101134Y-10525984D01*
X11101134Y-10421222D02*
X11110658Y-10402174D01*
X11110658Y-10402174D02*
X11129705Y-10392650D01*
X11129705Y-10392650D02*
X11158277Y-10392650D01*
X11158277Y-10392650D02*
X11177325Y-10402174D01*
X11177325Y-10402174D02*
X11186848Y-10421222D01*
X11186848Y-10421222D02*
X11186848Y-10525984D01*
X11282086Y-10525984D02*
X11282086Y-10392650D01*
X11282086Y-10411698D02*
X11291610Y-10402174D01*
X11291610Y-10402174D02*
X11310658Y-10392650D01*
X11310658Y-10392650D02*
X11339229Y-10392650D01*
X11339229Y-10392650D02*
X11358277Y-10402174D01*
X11358277Y-10402174D02*
X11367801Y-10421222D01*
X11367801Y-10421222D02*
X11367801Y-10525984D01*
X11367801Y-10421222D02*
X11377324Y-10402174D01*
X11377324Y-10402174D02*
X11396372Y-10392650D01*
X11396372Y-10392650D02*
X11424943Y-10392650D01*
X11424943Y-10392650D02*
X11443991Y-10402174D01*
X11443991Y-10402174D02*
X11453515Y-10421222D01*
X11453515Y-10421222D02*
X11453515Y-10525984D01*
X11843991Y-10316460D02*
X11672563Y-10573603D01*
X12101134Y-10325984D02*
X12120182Y-10325984D01*
X12120182Y-10325984D02*
X12139229Y-10335508D01*
X12139229Y-10335508D02*
X12148753Y-10345031D01*
X12148753Y-10345031D02*
X12158277Y-10364079D01*
X12158277Y-10364079D02*
X12167801Y-10402174D01*
X12167801Y-10402174D02*
X12167801Y-10449793D01*
X12167801Y-10449793D02*
X12158277Y-10487889D01*
X12158277Y-10487889D02*
X12148753Y-10506936D01*
X12148753Y-10506936D02*
X12139229Y-10516460D01*
X12139229Y-10516460D02*
X12120182Y-10525984D01*
X12120182Y-10525984D02*
X12101134Y-10525984D01*
X12101134Y-10525984D02*
X12082086Y-10516460D01*
X12082086Y-10516460D02*
X12072563Y-10506936D01*
X12072563Y-10506936D02*
X12063039Y-10487889D01*
X12063039Y-10487889D02*
X12053515Y-10449793D01*
X12053515Y-10449793D02*
X12053515Y-10402174D01*
X12053515Y-10402174D02*
X12063039Y-10364079D01*
X12063039Y-10364079D02*
X12072563Y-10345031D01*
X12072563Y-10345031D02*
X12082086Y-10335508D01*
X12082086Y-10335508D02*
X12101134Y-10325984D01*
X12253515Y-10506936D02*
X12263039Y-10516460D01*
X12263039Y-10516460D02*
X12253515Y-10525984D01*
X12253515Y-10525984D02*
X12243991Y-10516460D01*
X12243991Y-10516460D02*
X12253515Y-10506936D01*
X12253515Y-10506936D02*
X12253515Y-10525984D01*
X12453515Y-10525984D02*
X12339229Y-10525984D01*
X12396372Y-10525984D02*
X12396372Y-10325984D01*
X12396372Y-10325984D02*
X12377325Y-10354555D01*
X12377325Y-10354555D02*
X12358277Y-10373603D01*
X12358277Y-10373603D02*
X12339229Y-10383127D01*
X12529706Y-10345031D02*
X12539229Y-10335508D01*
X12539229Y-10335508D02*
X12558277Y-10325984D01*
X12558277Y-10325984D02*
X12605896Y-10325984D01*
X12605896Y-10325984D02*
X12624944Y-10335508D01*
X12624944Y-10335508D02*
X12634467Y-10345031D01*
X12634467Y-10345031D02*
X12643991Y-10364079D01*
X12643991Y-10364079D02*
X12643991Y-10383127D01*
X12643991Y-10383127D02*
X12634467Y-10411698D01*
X12634467Y-10411698D02*
X12520182Y-10525984D01*
X12520182Y-10525984D02*
X12643991Y-10525984D01*
X12815420Y-10325984D02*
X12777325Y-10325984D01*
X12777325Y-10325984D02*
X12758277Y-10335508D01*
X12758277Y-10335508D02*
X12748753Y-10345031D01*
X12748753Y-10345031D02*
X12729706Y-10373603D01*
X12729706Y-10373603D02*
X12720182Y-10411698D01*
X12720182Y-10411698D02*
X12720182Y-10487889D01*
X12720182Y-10487889D02*
X12729706Y-10506936D01*
X12729706Y-10506936D02*
X12739229Y-10516460D01*
X12739229Y-10516460D02*
X12758277Y-10525984D01*
X12758277Y-10525984D02*
X12796372Y-10525984D01*
X12796372Y-10525984D02*
X12815420Y-10516460D01*
X12815420Y-10516460D02*
X12824944Y-10506936D01*
X12824944Y-10506936D02*
X12834467Y-10487889D01*
X12834467Y-10487889D02*
X12834467Y-10440270D01*
X12834467Y-10440270D02*
X12824944Y-10421222D01*
X12824944Y-10421222D02*
X12815420Y-10411698D01*
X12815420Y-10411698D02*
X12796372Y-10402174D01*
X12796372Y-10402174D02*
X12758277Y-10402174D01*
X12758277Y-10402174D02*
X12739229Y-10411698D01*
X12739229Y-10411698D02*
X12729706Y-10421222D01*
X12729706Y-10421222D02*
X12720182Y-10440270D01*
X12958277Y-10325984D02*
X12977325Y-10325984D01*
X12977325Y-10325984D02*
X12996372Y-10335508D01*
X12996372Y-10335508D02*
X13005896Y-10345031D01*
X13005896Y-10345031D02*
X13015420Y-10364079D01*
X13015420Y-10364079D02*
X13024944Y-10402174D01*
X13024944Y-10402174D02*
X13024944Y-10449793D01*
X13024944Y-10449793D02*
X13015420Y-10487889D01*
X13015420Y-10487889D02*
X13005896Y-10506936D01*
X13005896Y-10506936D02*
X12996372Y-10516460D01*
X12996372Y-10516460D02*
X12977325Y-10525984D01*
X12977325Y-10525984D02*
X12958277Y-10525984D01*
X12958277Y-10525984D02*
X12939229Y-10516460D01*
X12939229Y-10516460D02*
X12929706Y-10506936D01*
X12929706Y-10506936D02*
X12920182Y-10487889D01*
X12920182Y-10487889D02*
X12910658Y-10449793D01*
X12910658Y-10449793D02*
X12910658Y-10402174D01*
X12910658Y-10402174D02*
X12920182Y-10364079D01*
X12920182Y-10364079D02*
X12929706Y-10345031D01*
X12929706Y-10345031D02*
X12939229Y-10335508D01*
X12939229Y-10335508D02*
X12958277Y-10325984D01*
X13101134Y-10325984D02*
X13101134Y-10364079D01*
X13177325Y-10325984D02*
X13177325Y-10364079D01*
X13472563Y-10602174D02*
X13463039Y-10592650D01*
X13463039Y-10592650D02*
X13443991Y-10564079D01*
X13443991Y-10564079D02*
X13434468Y-10545031D01*
X13434468Y-10545031D02*
X13424944Y-10516460D01*
X13424944Y-10516460D02*
X13415420Y-10468841D01*
X13415420Y-10468841D02*
X13415420Y-10430746D01*
X13415420Y-10430746D02*
X13424944Y-10383127D01*
X13424944Y-10383127D02*
X13434468Y-10354555D01*
X13434468Y-10354555D02*
X13443991Y-10335508D01*
X13443991Y-10335508D02*
X13463039Y-10306936D01*
X13463039Y-10306936D02*
X13472563Y-10297412D01*
X13558277Y-10525984D02*
X13596372Y-10525984D01*
X13596372Y-10525984D02*
X13615420Y-10516460D01*
X13615420Y-10516460D02*
X13624944Y-10506936D01*
X13624944Y-10506936D02*
X13643991Y-10478365D01*
X13643991Y-10478365D02*
X13653515Y-10440270D01*
X13653515Y-10440270D02*
X13653515Y-10364079D01*
X13653515Y-10364079D02*
X13643991Y-10345031D01*
X13643991Y-10345031D02*
X13634468Y-10335508D01*
X13634468Y-10335508D02*
X13615420Y-10325984D01*
X13615420Y-10325984D02*
X13577325Y-10325984D01*
X13577325Y-10325984D02*
X13558277Y-10335508D01*
X13558277Y-10335508D02*
X13548753Y-10345031D01*
X13548753Y-10345031D02*
X13539229Y-10364079D01*
X13539229Y-10364079D02*
X13539229Y-10411698D01*
X13539229Y-10411698D02*
X13548753Y-10430746D01*
X13548753Y-10430746D02*
X13558277Y-10440270D01*
X13558277Y-10440270D02*
X13577325Y-10449793D01*
X13577325Y-10449793D02*
X13615420Y-10449793D01*
X13615420Y-10449793D02*
X13634468Y-10440270D01*
X13634468Y-10440270D02*
X13643991Y-10430746D01*
X13643991Y-10430746D02*
X13653515Y-10411698D01*
X13891610Y-10525984D02*
X13891610Y-10325984D01*
X13977325Y-10525984D02*
X13977325Y-10421222D01*
X13977325Y-10421222D02*
X13967801Y-10402174D01*
X13967801Y-10402174D02*
X13948753Y-10392650D01*
X13948753Y-10392650D02*
X13920182Y-10392650D01*
X13920182Y-10392650D02*
X13901134Y-10402174D01*
X13901134Y-10402174D02*
X13891610Y-10411698D01*
X14101134Y-10525984D02*
X14082087Y-10516460D01*
X14082087Y-10516460D02*
X14072563Y-10506936D01*
X14072563Y-10506936D02*
X14063039Y-10487889D01*
X14063039Y-10487889D02*
X14063039Y-10430746D01*
X14063039Y-10430746D02*
X14072563Y-10411698D01*
X14072563Y-10411698D02*
X14082087Y-10402174D01*
X14082087Y-10402174D02*
X14101134Y-10392650D01*
X14101134Y-10392650D02*
X14129706Y-10392650D01*
X14129706Y-10392650D02*
X14148753Y-10402174D01*
X14148753Y-10402174D02*
X14158277Y-10411698D01*
X14158277Y-10411698D02*
X14167801Y-10430746D01*
X14167801Y-10430746D02*
X14167801Y-10487889D01*
X14167801Y-10487889D02*
X14158277Y-10506936D01*
X14158277Y-10506936D02*
X14148753Y-10516460D01*
X14148753Y-10516460D02*
X14129706Y-10525984D01*
X14129706Y-10525984D02*
X14101134Y-10525984D01*
X14282087Y-10525984D02*
X14263039Y-10516460D01*
X14263039Y-10516460D02*
X14253515Y-10497412D01*
X14253515Y-10497412D02*
X14253515Y-10325984D01*
X14434468Y-10516460D02*
X14415420Y-10525984D01*
X14415420Y-10525984D02*
X14377325Y-10525984D01*
X14377325Y-10525984D02*
X14358277Y-10516460D01*
X14358277Y-10516460D02*
X14348753Y-10497412D01*
X14348753Y-10497412D02*
X14348753Y-10421222D01*
X14348753Y-10421222D02*
X14358277Y-10402174D01*
X14358277Y-10402174D02*
X14377325Y-10392650D01*
X14377325Y-10392650D02*
X14415420Y-10392650D01*
X14415420Y-10392650D02*
X14434468Y-10402174D01*
X14434468Y-10402174D02*
X14443991Y-10421222D01*
X14443991Y-10421222D02*
X14443991Y-10440270D01*
X14443991Y-10440270D02*
X14348753Y-10459317D01*
X14520182Y-10516460D02*
X14539230Y-10525984D01*
X14539230Y-10525984D02*
X14577325Y-10525984D01*
X14577325Y-10525984D02*
X14596372Y-10516460D01*
X14596372Y-10516460D02*
X14605896Y-10497412D01*
X14605896Y-10497412D02*
X14605896Y-10487889D01*
X14605896Y-10487889D02*
X14596372Y-10468841D01*
X14596372Y-10468841D02*
X14577325Y-10459317D01*
X14577325Y-10459317D02*
X14548753Y-10459317D01*
X14548753Y-10459317D02*
X14529706Y-10449793D01*
X14529706Y-10449793D02*
X14520182Y-10430746D01*
X14520182Y-10430746D02*
X14520182Y-10421222D01*
X14520182Y-10421222D02*
X14529706Y-10402174D01*
X14529706Y-10402174D02*
X14548753Y-10392650D01*
X14548753Y-10392650D02*
X14577325Y-10392650D01*
X14577325Y-10392650D02*
X14596372Y-10402174D01*
X14672563Y-10602174D02*
X14682087Y-10592650D01*
X14682087Y-10592650D02*
X14701134Y-10564079D01*
X14701134Y-10564079D02*
X14710658Y-10545031D01*
X14710658Y-10545031D02*
X14720182Y-10516460D01*
X14720182Y-10516460D02*
X14729706Y-10468841D01*
X14729706Y-10468841D02*
X14729706Y-10430746D01*
X14729706Y-10430746D02*
X14720182Y-10383127D01*
X14720182Y-10383127D02*
X14710658Y-10354555D01*
X14710658Y-10354555D02*
X14701134Y-10335508D01*
X14701134Y-10335508D02*
X14682087Y-10306936D01*
X14682087Y-10306936D02*
X14672563Y-10297412D01*
M02*
