%TF.GenerationSoftware,KiCad,Pcbnew,8.0.1*%
%TF.CreationDate,2024-04-28T13:56:50+02:00*%
%TF.ProjectId,ECU_proj,4543555f-7072-46f6-9a2e-6b696361645f,rev?*%
%TF.SameCoordinates,Original*%
%TF.FileFunction,Legend,Top*%
%TF.FilePolarity,Positive*%
%FSLAX46Y46*%
G04 Gerber Fmt 4.6, Leading zero omitted, Abs format (unit mm)*
G04 Created by KiCad (PCBNEW 8.0.1) date 2024-04-28 13:56:50*
%MOMM*%
%LPD*%
G01*
G04 APERTURE LIST*
%ADD10C,0.150000*%
%ADD11C,0.254000*%
%ADD12C,0.120000*%
%ADD13C,0.200000*%
%ADD14C,0.100000*%
G04 APERTURE END LIST*
D10*
X107266666Y-57054819D02*
X107266666Y-57769104D01*
X107266666Y-57769104D02*
X107219047Y-57911961D01*
X107219047Y-57911961D02*
X107123809Y-58007200D01*
X107123809Y-58007200D02*
X106980952Y-58054819D01*
X106980952Y-58054819D02*
X106885714Y-58054819D01*
X108266666Y-58054819D02*
X107695238Y-58054819D01*
X107980952Y-58054819D02*
X107980952Y-57054819D01*
X107980952Y-57054819D02*
X107885714Y-57197676D01*
X107885714Y-57197676D02*
X107790476Y-57292914D01*
X107790476Y-57292914D02*
X107695238Y-57340533D01*
X172357142Y-62004580D02*
X172309523Y-62052200D01*
X172309523Y-62052200D02*
X172166666Y-62099819D01*
X172166666Y-62099819D02*
X172071428Y-62099819D01*
X172071428Y-62099819D02*
X171928571Y-62052200D01*
X171928571Y-62052200D02*
X171833333Y-61956961D01*
X171833333Y-61956961D02*
X171785714Y-61861723D01*
X171785714Y-61861723D02*
X171738095Y-61671247D01*
X171738095Y-61671247D02*
X171738095Y-61528390D01*
X171738095Y-61528390D02*
X171785714Y-61337914D01*
X171785714Y-61337914D02*
X171833333Y-61242676D01*
X171833333Y-61242676D02*
X171928571Y-61147438D01*
X171928571Y-61147438D02*
X172071428Y-61099819D01*
X172071428Y-61099819D02*
X172166666Y-61099819D01*
X172166666Y-61099819D02*
X172309523Y-61147438D01*
X172309523Y-61147438D02*
X172357142Y-61195057D01*
X173309523Y-62099819D02*
X172738095Y-62099819D01*
X173023809Y-62099819D02*
X173023809Y-61099819D01*
X173023809Y-61099819D02*
X172928571Y-61242676D01*
X172928571Y-61242676D02*
X172833333Y-61337914D01*
X172833333Y-61337914D02*
X172738095Y-61385533D01*
X173690476Y-61195057D02*
X173738095Y-61147438D01*
X173738095Y-61147438D02*
X173833333Y-61099819D01*
X173833333Y-61099819D02*
X174071428Y-61099819D01*
X174071428Y-61099819D02*
X174166666Y-61147438D01*
X174166666Y-61147438D02*
X174214285Y-61195057D01*
X174214285Y-61195057D02*
X174261904Y-61290295D01*
X174261904Y-61290295D02*
X174261904Y-61385533D01*
X174261904Y-61385533D02*
X174214285Y-61528390D01*
X174214285Y-61528390D02*
X173642857Y-62099819D01*
X173642857Y-62099819D02*
X174261904Y-62099819D01*
D11*
X164090270Y-76505952D02*
X164029794Y-76626904D01*
X164029794Y-76626904D02*
X163908842Y-76747857D01*
X163908842Y-76747857D02*
X163727413Y-76929285D01*
X163727413Y-76929285D02*
X163666937Y-77050238D01*
X163666937Y-77050238D02*
X163666937Y-77171190D01*
X163969318Y-77110714D02*
X163908842Y-77231666D01*
X163908842Y-77231666D02*
X163787889Y-77352619D01*
X163787889Y-77352619D02*
X163545984Y-77413095D01*
X163545984Y-77413095D02*
X163122651Y-77413095D01*
X163122651Y-77413095D02*
X162880746Y-77352619D01*
X162880746Y-77352619D02*
X162759794Y-77231666D01*
X162759794Y-77231666D02*
X162699318Y-77110714D01*
X162699318Y-77110714D02*
X162699318Y-76868809D01*
X162699318Y-76868809D02*
X162759794Y-76747857D01*
X162759794Y-76747857D02*
X162880746Y-76626904D01*
X162880746Y-76626904D02*
X163122651Y-76566428D01*
X163122651Y-76566428D02*
X163545984Y-76566428D01*
X163545984Y-76566428D02*
X163787889Y-76626904D01*
X163787889Y-76626904D02*
X163908842Y-76747857D01*
X163908842Y-76747857D02*
X163969318Y-76868809D01*
X163969318Y-76868809D02*
X163969318Y-77110714D01*
X163969318Y-75356904D02*
X163969318Y-76082619D01*
X163969318Y-75719762D02*
X162699318Y-75719762D01*
X162699318Y-75719762D02*
X162880746Y-75840714D01*
X162880746Y-75840714D02*
X163001699Y-75961666D01*
X163001699Y-75961666D02*
X163062175Y-76082619D01*
D10*
X172557142Y-74004580D02*
X172509523Y-74052200D01*
X172509523Y-74052200D02*
X172366666Y-74099819D01*
X172366666Y-74099819D02*
X172271428Y-74099819D01*
X172271428Y-74099819D02*
X172128571Y-74052200D01*
X172128571Y-74052200D02*
X172033333Y-73956961D01*
X172033333Y-73956961D02*
X171985714Y-73861723D01*
X171985714Y-73861723D02*
X171938095Y-73671247D01*
X171938095Y-73671247D02*
X171938095Y-73528390D01*
X171938095Y-73528390D02*
X171985714Y-73337914D01*
X171985714Y-73337914D02*
X172033333Y-73242676D01*
X172033333Y-73242676D02*
X172128571Y-73147438D01*
X172128571Y-73147438D02*
X172271428Y-73099819D01*
X172271428Y-73099819D02*
X172366666Y-73099819D01*
X172366666Y-73099819D02*
X172509523Y-73147438D01*
X172509523Y-73147438D02*
X172557142Y-73195057D01*
X173509523Y-74099819D02*
X172938095Y-74099819D01*
X173223809Y-74099819D02*
X173223809Y-73099819D01*
X173223809Y-73099819D02*
X173128571Y-73242676D01*
X173128571Y-73242676D02*
X173033333Y-73337914D01*
X173033333Y-73337914D02*
X172938095Y-73385533D01*
X173842857Y-73099819D02*
X174461904Y-73099819D01*
X174461904Y-73099819D02*
X174128571Y-73480771D01*
X174128571Y-73480771D02*
X174271428Y-73480771D01*
X174271428Y-73480771D02*
X174366666Y-73528390D01*
X174366666Y-73528390D02*
X174414285Y-73576009D01*
X174414285Y-73576009D02*
X174461904Y-73671247D01*
X174461904Y-73671247D02*
X174461904Y-73909342D01*
X174461904Y-73909342D02*
X174414285Y-74004580D01*
X174414285Y-74004580D02*
X174366666Y-74052200D01*
X174366666Y-74052200D02*
X174271428Y-74099819D01*
X174271428Y-74099819D02*
X173985714Y-74099819D01*
X173985714Y-74099819D02*
X173890476Y-74052200D01*
X173890476Y-74052200D02*
X173842857Y-74004580D01*
X185466666Y-63604819D02*
X185466666Y-64319104D01*
X185466666Y-64319104D02*
X185419047Y-64461961D01*
X185419047Y-64461961D02*
X185323809Y-64557200D01*
X185323809Y-64557200D02*
X185180952Y-64604819D01*
X185180952Y-64604819D02*
X185085714Y-64604819D01*
X185990476Y-64604819D02*
X186180952Y-64604819D01*
X186180952Y-64604819D02*
X186276190Y-64557200D01*
X186276190Y-64557200D02*
X186323809Y-64509580D01*
X186323809Y-64509580D02*
X186419047Y-64366723D01*
X186419047Y-64366723D02*
X186466666Y-64176247D01*
X186466666Y-64176247D02*
X186466666Y-63795295D01*
X186466666Y-63795295D02*
X186419047Y-63700057D01*
X186419047Y-63700057D02*
X186371428Y-63652438D01*
X186371428Y-63652438D02*
X186276190Y-63604819D01*
X186276190Y-63604819D02*
X186085714Y-63604819D01*
X186085714Y-63604819D02*
X185990476Y-63652438D01*
X185990476Y-63652438D02*
X185942857Y-63700057D01*
X185942857Y-63700057D02*
X185895238Y-63795295D01*
X185895238Y-63795295D02*
X185895238Y-64033390D01*
X185895238Y-64033390D02*
X185942857Y-64128628D01*
X185942857Y-64128628D02*
X185990476Y-64176247D01*
X185990476Y-64176247D02*
X186085714Y-64223866D01*
X186085714Y-64223866D02*
X186276190Y-64223866D01*
X186276190Y-64223866D02*
X186371428Y-64176247D01*
X186371428Y-64176247D02*
X186419047Y-64128628D01*
X186419047Y-64128628D02*
X186466666Y-64033390D01*
X182785714Y-64038152D02*
X182785714Y-64704819D01*
X182547619Y-63657200D02*
X182309524Y-64371485D01*
X182309524Y-64371485D02*
X182928571Y-64371485D01*
X183452381Y-64133390D02*
X183357143Y-64085771D01*
X183357143Y-64085771D02*
X183309524Y-64038152D01*
X183309524Y-64038152D02*
X183261905Y-63942914D01*
X183261905Y-63942914D02*
X183261905Y-63895295D01*
X183261905Y-63895295D02*
X183309524Y-63800057D01*
X183309524Y-63800057D02*
X183357143Y-63752438D01*
X183357143Y-63752438D02*
X183452381Y-63704819D01*
X183452381Y-63704819D02*
X183642857Y-63704819D01*
X183642857Y-63704819D02*
X183738095Y-63752438D01*
X183738095Y-63752438D02*
X183785714Y-63800057D01*
X183785714Y-63800057D02*
X183833333Y-63895295D01*
X183833333Y-63895295D02*
X183833333Y-63942914D01*
X183833333Y-63942914D02*
X183785714Y-64038152D01*
X183785714Y-64038152D02*
X183738095Y-64085771D01*
X183738095Y-64085771D02*
X183642857Y-64133390D01*
X183642857Y-64133390D02*
X183452381Y-64133390D01*
X183452381Y-64133390D02*
X183357143Y-64181009D01*
X183357143Y-64181009D02*
X183309524Y-64228628D01*
X183309524Y-64228628D02*
X183261905Y-64323866D01*
X183261905Y-64323866D02*
X183261905Y-64514342D01*
X183261905Y-64514342D02*
X183309524Y-64609580D01*
X183309524Y-64609580D02*
X183357143Y-64657200D01*
X183357143Y-64657200D02*
X183452381Y-64704819D01*
X183452381Y-64704819D02*
X183642857Y-64704819D01*
X183642857Y-64704819D02*
X183738095Y-64657200D01*
X183738095Y-64657200D02*
X183785714Y-64609580D01*
X183785714Y-64609580D02*
X183833333Y-64514342D01*
X183833333Y-64514342D02*
X183833333Y-64323866D01*
X183833333Y-64323866D02*
X183785714Y-64228628D01*
X183785714Y-64228628D02*
X183738095Y-64181009D01*
X183738095Y-64181009D02*
X183642857Y-64133390D01*
X184119048Y-63704819D02*
X184452381Y-64704819D01*
X184452381Y-64704819D02*
X184785714Y-63704819D01*
X134634819Y-79036904D02*
X135444342Y-79036904D01*
X135444342Y-79036904D02*
X135539580Y-78989285D01*
X135539580Y-78989285D02*
X135587200Y-78941666D01*
X135587200Y-78941666D02*
X135634819Y-78846428D01*
X135634819Y-78846428D02*
X135634819Y-78655952D01*
X135634819Y-78655952D02*
X135587200Y-78560714D01*
X135587200Y-78560714D02*
X135539580Y-78513095D01*
X135539580Y-78513095D02*
X135444342Y-78465476D01*
X135444342Y-78465476D02*
X134634819Y-78465476D01*
X135634819Y-77465476D02*
X135634819Y-78036904D01*
X135634819Y-77751190D02*
X134634819Y-77751190D01*
X134634819Y-77751190D02*
X134777676Y-77846428D01*
X134777676Y-77846428D02*
X134872914Y-77941666D01*
X134872914Y-77941666D02*
X134920533Y-78036904D01*
D11*
X164090270Y-63365952D02*
X164029794Y-63486904D01*
X164029794Y-63486904D02*
X163908842Y-63607857D01*
X163908842Y-63607857D02*
X163727413Y-63789285D01*
X163727413Y-63789285D02*
X163666937Y-63910238D01*
X163666937Y-63910238D02*
X163666937Y-64031190D01*
X163969318Y-63970714D02*
X163908842Y-64091666D01*
X163908842Y-64091666D02*
X163787889Y-64212619D01*
X163787889Y-64212619D02*
X163545984Y-64273095D01*
X163545984Y-64273095D02*
X163122651Y-64273095D01*
X163122651Y-64273095D02*
X162880746Y-64212619D01*
X162880746Y-64212619D02*
X162759794Y-64091666D01*
X162759794Y-64091666D02*
X162699318Y-63970714D01*
X162699318Y-63970714D02*
X162699318Y-63728809D01*
X162699318Y-63728809D02*
X162759794Y-63607857D01*
X162759794Y-63607857D02*
X162880746Y-63486904D01*
X162880746Y-63486904D02*
X163122651Y-63426428D01*
X163122651Y-63426428D02*
X163545984Y-63426428D01*
X163545984Y-63426428D02*
X163787889Y-63486904D01*
X163787889Y-63486904D02*
X163908842Y-63607857D01*
X163908842Y-63607857D02*
X163969318Y-63728809D01*
X163969318Y-63728809D02*
X163969318Y-63970714D01*
X162820270Y-62942619D02*
X162759794Y-62882143D01*
X162759794Y-62882143D02*
X162699318Y-62761190D01*
X162699318Y-62761190D02*
X162699318Y-62458809D01*
X162699318Y-62458809D02*
X162759794Y-62337857D01*
X162759794Y-62337857D02*
X162820270Y-62277381D01*
X162820270Y-62277381D02*
X162941222Y-62216904D01*
X162941222Y-62216904D02*
X163062175Y-62216904D01*
X163062175Y-62216904D02*
X163243603Y-62277381D01*
X163243603Y-62277381D02*
X163969318Y-63003095D01*
X163969318Y-63003095D02*
X163969318Y-62216904D01*
D10*
X128087142Y-82269580D02*
X128039523Y-82317200D01*
X128039523Y-82317200D02*
X127896666Y-82364819D01*
X127896666Y-82364819D02*
X127801428Y-82364819D01*
X127801428Y-82364819D02*
X127658571Y-82317200D01*
X127658571Y-82317200D02*
X127563333Y-82221961D01*
X127563333Y-82221961D02*
X127515714Y-82126723D01*
X127515714Y-82126723D02*
X127468095Y-81936247D01*
X127468095Y-81936247D02*
X127468095Y-81793390D01*
X127468095Y-81793390D02*
X127515714Y-81602914D01*
X127515714Y-81602914D02*
X127563333Y-81507676D01*
X127563333Y-81507676D02*
X127658571Y-81412438D01*
X127658571Y-81412438D02*
X127801428Y-81364819D01*
X127801428Y-81364819D02*
X127896666Y-81364819D01*
X127896666Y-81364819D02*
X128039523Y-81412438D01*
X128039523Y-81412438D02*
X128087142Y-81460057D01*
X128468095Y-81460057D02*
X128515714Y-81412438D01*
X128515714Y-81412438D02*
X128610952Y-81364819D01*
X128610952Y-81364819D02*
X128849047Y-81364819D01*
X128849047Y-81364819D02*
X128944285Y-81412438D01*
X128944285Y-81412438D02*
X128991904Y-81460057D01*
X128991904Y-81460057D02*
X129039523Y-81555295D01*
X129039523Y-81555295D02*
X129039523Y-81650533D01*
X129039523Y-81650533D02*
X128991904Y-81793390D01*
X128991904Y-81793390D02*
X128420476Y-82364819D01*
X128420476Y-82364819D02*
X129039523Y-82364819D01*
X129372857Y-81364819D02*
X129991904Y-81364819D01*
X129991904Y-81364819D02*
X129658571Y-81745771D01*
X129658571Y-81745771D02*
X129801428Y-81745771D01*
X129801428Y-81745771D02*
X129896666Y-81793390D01*
X129896666Y-81793390D02*
X129944285Y-81841009D01*
X129944285Y-81841009D02*
X129991904Y-81936247D01*
X129991904Y-81936247D02*
X129991904Y-82174342D01*
X129991904Y-82174342D02*
X129944285Y-82269580D01*
X129944285Y-82269580D02*
X129896666Y-82317200D01*
X129896666Y-82317200D02*
X129801428Y-82364819D01*
X129801428Y-82364819D02*
X129515714Y-82364819D01*
X129515714Y-82364819D02*
X129420476Y-82317200D01*
X129420476Y-82317200D02*
X129372857Y-82269580D01*
X172557142Y-75204580D02*
X172509523Y-75252200D01*
X172509523Y-75252200D02*
X172366666Y-75299819D01*
X172366666Y-75299819D02*
X172271428Y-75299819D01*
X172271428Y-75299819D02*
X172128571Y-75252200D01*
X172128571Y-75252200D02*
X172033333Y-75156961D01*
X172033333Y-75156961D02*
X171985714Y-75061723D01*
X171985714Y-75061723D02*
X171938095Y-74871247D01*
X171938095Y-74871247D02*
X171938095Y-74728390D01*
X171938095Y-74728390D02*
X171985714Y-74537914D01*
X171985714Y-74537914D02*
X172033333Y-74442676D01*
X172033333Y-74442676D02*
X172128571Y-74347438D01*
X172128571Y-74347438D02*
X172271428Y-74299819D01*
X172271428Y-74299819D02*
X172366666Y-74299819D01*
X172366666Y-74299819D02*
X172509523Y-74347438D01*
X172509523Y-74347438D02*
X172557142Y-74395057D01*
X173509523Y-75299819D02*
X172938095Y-75299819D01*
X173223809Y-75299819D02*
X173223809Y-74299819D01*
X173223809Y-74299819D02*
X173128571Y-74442676D01*
X173128571Y-74442676D02*
X173033333Y-74537914D01*
X173033333Y-74537914D02*
X172938095Y-74585533D01*
X174366666Y-74633152D02*
X174366666Y-75299819D01*
X174128571Y-74252200D02*
X173890476Y-74966485D01*
X173890476Y-74966485D02*
X174509523Y-74966485D01*
X132359580Y-62442857D02*
X132407200Y-62490476D01*
X132407200Y-62490476D02*
X132454819Y-62633333D01*
X132454819Y-62633333D02*
X132454819Y-62728571D01*
X132454819Y-62728571D02*
X132407200Y-62871428D01*
X132407200Y-62871428D02*
X132311961Y-62966666D01*
X132311961Y-62966666D02*
X132216723Y-63014285D01*
X132216723Y-63014285D02*
X132026247Y-63061904D01*
X132026247Y-63061904D02*
X131883390Y-63061904D01*
X131883390Y-63061904D02*
X131692914Y-63014285D01*
X131692914Y-63014285D02*
X131597676Y-62966666D01*
X131597676Y-62966666D02*
X131502438Y-62871428D01*
X131502438Y-62871428D02*
X131454819Y-62728571D01*
X131454819Y-62728571D02*
X131454819Y-62633333D01*
X131454819Y-62633333D02*
X131502438Y-62490476D01*
X131502438Y-62490476D02*
X131550057Y-62442857D01*
X132454819Y-61490476D02*
X132454819Y-62061904D01*
X132454819Y-61776190D02*
X131454819Y-61776190D01*
X131454819Y-61776190D02*
X131597676Y-61871428D01*
X131597676Y-61871428D02*
X131692914Y-61966666D01*
X131692914Y-61966666D02*
X131740533Y-62061904D01*
X131454819Y-61157142D02*
X131454819Y-60490476D01*
X131454819Y-60490476D02*
X132454819Y-60919047D01*
X172357142Y-59604580D02*
X172309523Y-59652200D01*
X172309523Y-59652200D02*
X172166666Y-59699819D01*
X172166666Y-59699819D02*
X172071428Y-59699819D01*
X172071428Y-59699819D02*
X171928571Y-59652200D01*
X171928571Y-59652200D02*
X171833333Y-59556961D01*
X171833333Y-59556961D02*
X171785714Y-59461723D01*
X171785714Y-59461723D02*
X171738095Y-59271247D01*
X171738095Y-59271247D02*
X171738095Y-59128390D01*
X171738095Y-59128390D02*
X171785714Y-58937914D01*
X171785714Y-58937914D02*
X171833333Y-58842676D01*
X171833333Y-58842676D02*
X171928571Y-58747438D01*
X171928571Y-58747438D02*
X172071428Y-58699819D01*
X172071428Y-58699819D02*
X172166666Y-58699819D01*
X172166666Y-58699819D02*
X172309523Y-58747438D01*
X172309523Y-58747438D02*
X172357142Y-58795057D01*
X173309523Y-59699819D02*
X172738095Y-59699819D01*
X173023809Y-59699819D02*
X173023809Y-58699819D01*
X173023809Y-58699819D02*
X172928571Y-58842676D01*
X172928571Y-58842676D02*
X172833333Y-58937914D01*
X172833333Y-58937914D02*
X172738095Y-58985533D01*
X174261904Y-59699819D02*
X173690476Y-59699819D01*
X173976190Y-59699819D02*
X173976190Y-58699819D01*
X173976190Y-58699819D02*
X173880952Y-58842676D01*
X173880952Y-58842676D02*
X173785714Y-58937914D01*
X173785714Y-58937914D02*
X173690476Y-58985533D01*
X135534819Y-71966666D02*
X135058628Y-72299999D01*
X135534819Y-72538094D02*
X134534819Y-72538094D01*
X134534819Y-72538094D02*
X134534819Y-72157142D01*
X134534819Y-72157142D02*
X134582438Y-72061904D01*
X134582438Y-72061904D02*
X134630057Y-72014285D01*
X134630057Y-72014285D02*
X134725295Y-71966666D01*
X134725295Y-71966666D02*
X134868152Y-71966666D01*
X134868152Y-71966666D02*
X134963390Y-72014285D01*
X134963390Y-72014285D02*
X135011009Y-72061904D01*
X135011009Y-72061904D02*
X135058628Y-72157142D01*
X135058628Y-72157142D02*
X135058628Y-72538094D01*
X134534819Y-71109523D02*
X134534819Y-71299999D01*
X134534819Y-71299999D02*
X134582438Y-71395237D01*
X134582438Y-71395237D02*
X134630057Y-71442856D01*
X134630057Y-71442856D02*
X134772914Y-71538094D01*
X134772914Y-71538094D02*
X134963390Y-71585713D01*
X134963390Y-71585713D02*
X135344342Y-71585713D01*
X135344342Y-71585713D02*
X135439580Y-71538094D01*
X135439580Y-71538094D02*
X135487200Y-71490475D01*
X135487200Y-71490475D02*
X135534819Y-71395237D01*
X135534819Y-71395237D02*
X135534819Y-71204761D01*
X135534819Y-71204761D02*
X135487200Y-71109523D01*
X135487200Y-71109523D02*
X135439580Y-71061904D01*
X135439580Y-71061904D02*
X135344342Y-71014285D01*
X135344342Y-71014285D02*
X135106247Y-71014285D01*
X135106247Y-71014285D02*
X135011009Y-71061904D01*
X135011009Y-71061904D02*
X134963390Y-71109523D01*
X134963390Y-71109523D02*
X134915771Y-71204761D01*
X134915771Y-71204761D02*
X134915771Y-71395237D01*
X134915771Y-71395237D02*
X134963390Y-71490475D01*
X134963390Y-71490475D02*
X135011009Y-71538094D01*
X135011009Y-71538094D02*
X135106247Y-71585713D01*
X147955476Y-74419819D02*
X147955476Y-75134104D01*
X147955476Y-75134104D02*
X147907857Y-75276961D01*
X147907857Y-75276961D02*
X147812619Y-75372200D01*
X147812619Y-75372200D02*
X147669762Y-75419819D01*
X147669762Y-75419819D02*
X147574524Y-75419819D01*
X148955476Y-75419819D02*
X148384048Y-75419819D01*
X148669762Y-75419819D02*
X148669762Y-74419819D01*
X148669762Y-74419819D02*
X148574524Y-74562676D01*
X148574524Y-74562676D02*
X148479286Y-74657914D01*
X148479286Y-74657914D02*
X148384048Y-74705533D01*
X149574524Y-74419819D02*
X149669762Y-74419819D01*
X149669762Y-74419819D02*
X149765000Y-74467438D01*
X149765000Y-74467438D02*
X149812619Y-74515057D01*
X149812619Y-74515057D02*
X149860238Y-74610295D01*
X149860238Y-74610295D02*
X149907857Y-74800771D01*
X149907857Y-74800771D02*
X149907857Y-75038866D01*
X149907857Y-75038866D02*
X149860238Y-75229342D01*
X149860238Y-75229342D02*
X149812619Y-75324580D01*
X149812619Y-75324580D02*
X149765000Y-75372200D01*
X149765000Y-75372200D02*
X149669762Y-75419819D01*
X149669762Y-75419819D02*
X149574524Y-75419819D01*
X149574524Y-75419819D02*
X149479286Y-75372200D01*
X149479286Y-75372200D02*
X149431667Y-75324580D01*
X149431667Y-75324580D02*
X149384048Y-75229342D01*
X149384048Y-75229342D02*
X149336429Y-75038866D01*
X149336429Y-75038866D02*
X149336429Y-74800771D01*
X149336429Y-74800771D02*
X149384048Y-74610295D01*
X149384048Y-74610295D02*
X149431667Y-74515057D01*
X149431667Y-74515057D02*
X149479286Y-74467438D01*
X149479286Y-74467438D02*
X149574524Y-74419819D01*
X150037142Y-82959580D02*
X149989523Y-83007200D01*
X149989523Y-83007200D02*
X149846666Y-83054819D01*
X149846666Y-83054819D02*
X149751428Y-83054819D01*
X149751428Y-83054819D02*
X149608571Y-83007200D01*
X149608571Y-83007200D02*
X149513333Y-82911961D01*
X149513333Y-82911961D02*
X149465714Y-82816723D01*
X149465714Y-82816723D02*
X149418095Y-82626247D01*
X149418095Y-82626247D02*
X149418095Y-82483390D01*
X149418095Y-82483390D02*
X149465714Y-82292914D01*
X149465714Y-82292914D02*
X149513333Y-82197676D01*
X149513333Y-82197676D02*
X149608571Y-82102438D01*
X149608571Y-82102438D02*
X149751428Y-82054819D01*
X149751428Y-82054819D02*
X149846666Y-82054819D01*
X149846666Y-82054819D02*
X149989523Y-82102438D01*
X149989523Y-82102438D02*
X150037142Y-82150057D01*
X150418095Y-82150057D02*
X150465714Y-82102438D01*
X150465714Y-82102438D02*
X150560952Y-82054819D01*
X150560952Y-82054819D02*
X150799047Y-82054819D01*
X150799047Y-82054819D02*
X150894285Y-82102438D01*
X150894285Y-82102438D02*
X150941904Y-82150057D01*
X150941904Y-82150057D02*
X150989523Y-82245295D01*
X150989523Y-82245295D02*
X150989523Y-82340533D01*
X150989523Y-82340533D02*
X150941904Y-82483390D01*
X150941904Y-82483390D02*
X150370476Y-83054819D01*
X150370476Y-83054819D02*
X150989523Y-83054819D01*
X151608571Y-82054819D02*
X151703809Y-82054819D01*
X151703809Y-82054819D02*
X151799047Y-82102438D01*
X151799047Y-82102438D02*
X151846666Y-82150057D01*
X151846666Y-82150057D02*
X151894285Y-82245295D01*
X151894285Y-82245295D02*
X151941904Y-82435771D01*
X151941904Y-82435771D02*
X151941904Y-82673866D01*
X151941904Y-82673866D02*
X151894285Y-82864342D01*
X151894285Y-82864342D02*
X151846666Y-82959580D01*
X151846666Y-82959580D02*
X151799047Y-83007200D01*
X151799047Y-83007200D02*
X151703809Y-83054819D01*
X151703809Y-83054819D02*
X151608571Y-83054819D01*
X151608571Y-83054819D02*
X151513333Y-83007200D01*
X151513333Y-83007200D02*
X151465714Y-82959580D01*
X151465714Y-82959580D02*
X151418095Y-82864342D01*
X151418095Y-82864342D02*
X151370476Y-82673866D01*
X151370476Y-82673866D02*
X151370476Y-82435771D01*
X151370476Y-82435771D02*
X151418095Y-82245295D01*
X151418095Y-82245295D02*
X151465714Y-82150057D01*
X151465714Y-82150057D02*
X151513333Y-82102438D01*
X151513333Y-82102438D02*
X151608571Y-82054819D01*
X118633333Y-81959580D02*
X118585714Y-82007200D01*
X118585714Y-82007200D02*
X118442857Y-82054819D01*
X118442857Y-82054819D02*
X118347619Y-82054819D01*
X118347619Y-82054819D02*
X118204762Y-82007200D01*
X118204762Y-82007200D02*
X118109524Y-81911961D01*
X118109524Y-81911961D02*
X118061905Y-81816723D01*
X118061905Y-81816723D02*
X118014286Y-81626247D01*
X118014286Y-81626247D02*
X118014286Y-81483390D01*
X118014286Y-81483390D02*
X118061905Y-81292914D01*
X118061905Y-81292914D02*
X118109524Y-81197676D01*
X118109524Y-81197676D02*
X118204762Y-81102438D01*
X118204762Y-81102438D02*
X118347619Y-81054819D01*
X118347619Y-81054819D02*
X118442857Y-81054819D01*
X118442857Y-81054819D02*
X118585714Y-81102438D01*
X118585714Y-81102438D02*
X118633333Y-81150057D01*
X119538095Y-81054819D02*
X119061905Y-81054819D01*
X119061905Y-81054819D02*
X119014286Y-81531009D01*
X119014286Y-81531009D02*
X119061905Y-81483390D01*
X119061905Y-81483390D02*
X119157143Y-81435771D01*
X119157143Y-81435771D02*
X119395238Y-81435771D01*
X119395238Y-81435771D02*
X119490476Y-81483390D01*
X119490476Y-81483390D02*
X119538095Y-81531009D01*
X119538095Y-81531009D02*
X119585714Y-81626247D01*
X119585714Y-81626247D02*
X119585714Y-81864342D01*
X119585714Y-81864342D02*
X119538095Y-81959580D01*
X119538095Y-81959580D02*
X119490476Y-82007200D01*
X119490476Y-82007200D02*
X119395238Y-82054819D01*
X119395238Y-82054819D02*
X119157143Y-82054819D01*
X119157143Y-82054819D02*
X119061905Y-82007200D01*
X119061905Y-82007200D02*
X119014286Y-81959580D01*
X107466666Y-65721485D02*
X107466666Y-66435770D01*
X107466666Y-66435770D02*
X107419047Y-66578627D01*
X107419047Y-66578627D02*
X107323809Y-66673866D01*
X107323809Y-66673866D02*
X107180952Y-66721485D01*
X107180952Y-66721485D02*
X107085714Y-66721485D01*
X107895238Y-65816723D02*
X107942857Y-65769104D01*
X107942857Y-65769104D02*
X108038095Y-65721485D01*
X108038095Y-65721485D02*
X108276190Y-65721485D01*
X108276190Y-65721485D02*
X108371428Y-65769104D01*
X108371428Y-65769104D02*
X108419047Y-65816723D01*
X108419047Y-65816723D02*
X108466666Y-65911961D01*
X108466666Y-65911961D02*
X108466666Y-66007199D01*
X108466666Y-66007199D02*
X108419047Y-66150056D01*
X108419047Y-66150056D02*
X107847619Y-66721485D01*
X107847619Y-66721485D02*
X108466666Y-66721485D01*
X110919580Y-80166666D02*
X110967200Y-80214285D01*
X110967200Y-80214285D02*
X111014819Y-80357142D01*
X111014819Y-80357142D02*
X111014819Y-80452380D01*
X111014819Y-80452380D02*
X110967200Y-80595237D01*
X110967200Y-80595237D02*
X110871961Y-80690475D01*
X110871961Y-80690475D02*
X110776723Y-80738094D01*
X110776723Y-80738094D02*
X110586247Y-80785713D01*
X110586247Y-80785713D02*
X110443390Y-80785713D01*
X110443390Y-80785713D02*
X110252914Y-80738094D01*
X110252914Y-80738094D02*
X110157676Y-80690475D01*
X110157676Y-80690475D02*
X110062438Y-80595237D01*
X110062438Y-80595237D02*
X110014819Y-80452380D01*
X110014819Y-80452380D02*
X110014819Y-80357142D01*
X110014819Y-80357142D02*
X110062438Y-80214285D01*
X110062438Y-80214285D02*
X110110057Y-80166666D01*
X110443390Y-79595237D02*
X110395771Y-79690475D01*
X110395771Y-79690475D02*
X110348152Y-79738094D01*
X110348152Y-79738094D02*
X110252914Y-79785713D01*
X110252914Y-79785713D02*
X110205295Y-79785713D01*
X110205295Y-79785713D02*
X110110057Y-79738094D01*
X110110057Y-79738094D02*
X110062438Y-79690475D01*
X110062438Y-79690475D02*
X110014819Y-79595237D01*
X110014819Y-79595237D02*
X110014819Y-79404761D01*
X110014819Y-79404761D02*
X110062438Y-79309523D01*
X110062438Y-79309523D02*
X110110057Y-79261904D01*
X110110057Y-79261904D02*
X110205295Y-79214285D01*
X110205295Y-79214285D02*
X110252914Y-79214285D01*
X110252914Y-79214285D02*
X110348152Y-79261904D01*
X110348152Y-79261904D02*
X110395771Y-79309523D01*
X110395771Y-79309523D02*
X110443390Y-79404761D01*
X110443390Y-79404761D02*
X110443390Y-79595237D01*
X110443390Y-79595237D02*
X110491009Y-79690475D01*
X110491009Y-79690475D02*
X110538628Y-79738094D01*
X110538628Y-79738094D02*
X110633866Y-79785713D01*
X110633866Y-79785713D02*
X110824342Y-79785713D01*
X110824342Y-79785713D02*
X110919580Y-79738094D01*
X110919580Y-79738094D02*
X110967200Y-79690475D01*
X110967200Y-79690475D02*
X111014819Y-79595237D01*
X111014819Y-79595237D02*
X111014819Y-79404761D01*
X111014819Y-79404761D02*
X110967200Y-79309523D01*
X110967200Y-79309523D02*
X110919580Y-79261904D01*
X110919580Y-79261904D02*
X110824342Y-79214285D01*
X110824342Y-79214285D02*
X110633866Y-79214285D01*
X110633866Y-79214285D02*
X110538628Y-79261904D01*
X110538628Y-79261904D02*
X110491009Y-79309523D01*
X110491009Y-79309523D02*
X110443390Y-79404761D01*
X179916666Y-88704819D02*
X179916666Y-89419104D01*
X179916666Y-89419104D02*
X179869047Y-89561961D01*
X179869047Y-89561961D02*
X179773809Y-89657200D01*
X179773809Y-89657200D02*
X179630952Y-89704819D01*
X179630952Y-89704819D02*
X179535714Y-89704819D01*
X180869047Y-88704819D02*
X180392857Y-88704819D01*
X180392857Y-88704819D02*
X180345238Y-89181009D01*
X180345238Y-89181009D02*
X180392857Y-89133390D01*
X180392857Y-89133390D02*
X180488095Y-89085771D01*
X180488095Y-89085771D02*
X180726190Y-89085771D01*
X180726190Y-89085771D02*
X180821428Y-89133390D01*
X180821428Y-89133390D02*
X180869047Y-89181009D01*
X180869047Y-89181009D02*
X180916666Y-89276247D01*
X180916666Y-89276247D02*
X180916666Y-89514342D01*
X180916666Y-89514342D02*
X180869047Y-89609580D01*
X180869047Y-89609580D02*
X180821428Y-89657200D01*
X180821428Y-89657200D02*
X180726190Y-89704819D01*
X180726190Y-89704819D02*
X180488095Y-89704819D01*
X180488095Y-89704819D02*
X180392857Y-89657200D01*
X180392857Y-89657200D02*
X180345238Y-89609580D01*
X170166666Y-88704819D02*
X170166666Y-89419104D01*
X170166666Y-89419104D02*
X170119047Y-89561961D01*
X170119047Y-89561961D02*
X170023809Y-89657200D01*
X170023809Y-89657200D02*
X169880952Y-89704819D01*
X169880952Y-89704819D02*
X169785714Y-89704819D01*
X170547619Y-88704819D02*
X171214285Y-88704819D01*
X171214285Y-88704819D02*
X170785714Y-89704819D01*
X171773810Y-88704819D02*
X172392857Y-88704819D01*
X172392857Y-88704819D02*
X172059524Y-89085771D01*
X172059524Y-89085771D02*
X172202381Y-89085771D01*
X172202381Y-89085771D02*
X172297619Y-89133390D01*
X172297619Y-89133390D02*
X172345238Y-89181009D01*
X172345238Y-89181009D02*
X172392857Y-89276247D01*
X172392857Y-89276247D02*
X172392857Y-89514342D01*
X172392857Y-89514342D02*
X172345238Y-89609580D01*
X172345238Y-89609580D02*
X172297619Y-89657200D01*
X172297619Y-89657200D02*
X172202381Y-89704819D01*
X172202381Y-89704819D02*
X171916667Y-89704819D01*
X171916667Y-89704819D02*
X171821429Y-89657200D01*
X171821429Y-89657200D02*
X171773810Y-89609580D01*
X172821429Y-89609580D02*
X172869048Y-89657200D01*
X172869048Y-89657200D02*
X172821429Y-89704819D01*
X172821429Y-89704819D02*
X172773810Y-89657200D01*
X172773810Y-89657200D02*
X172821429Y-89609580D01*
X172821429Y-89609580D02*
X172821429Y-89704819D01*
X173202381Y-88704819D02*
X173821428Y-88704819D01*
X173821428Y-88704819D02*
X173488095Y-89085771D01*
X173488095Y-89085771D02*
X173630952Y-89085771D01*
X173630952Y-89085771D02*
X173726190Y-89133390D01*
X173726190Y-89133390D02*
X173773809Y-89181009D01*
X173773809Y-89181009D02*
X173821428Y-89276247D01*
X173821428Y-89276247D02*
X173821428Y-89514342D01*
X173821428Y-89514342D02*
X173773809Y-89609580D01*
X173773809Y-89609580D02*
X173726190Y-89657200D01*
X173726190Y-89657200D02*
X173630952Y-89704819D01*
X173630952Y-89704819D02*
X173345238Y-89704819D01*
X173345238Y-89704819D02*
X173250000Y-89657200D01*
X173250000Y-89657200D02*
X173202381Y-89609580D01*
X174107143Y-88704819D02*
X174440476Y-89704819D01*
X174440476Y-89704819D02*
X174773809Y-88704819D01*
X117759580Y-74566666D02*
X117807200Y-74614285D01*
X117807200Y-74614285D02*
X117854819Y-74757142D01*
X117854819Y-74757142D02*
X117854819Y-74852380D01*
X117854819Y-74852380D02*
X117807200Y-74995237D01*
X117807200Y-74995237D02*
X117711961Y-75090475D01*
X117711961Y-75090475D02*
X117616723Y-75138094D01*
X117616723Y-75138094D02*
X117426247Y-75185713D01*
X117426247Y-75185713D02*
X117283390Y-75185713D01*
X117283390Y-75185713D02*
X117092914Y-75138094D01*
X117092914Y-75138094D02*
X116997676Y-75090475D01*
X116997676Y-75090475D02*
X116902438Y-74995237D01*
X116902438Y-74995237D02*
X116854819Y-74852380D01*
X116854819Y-74852380D02*
X116854819Y-74757142D01*
X116854819Y-74757142D02*
X116902438Y-74614285D01*
X116902438Y-74614285D02*
X116950057Y-74566666D01*
X117854819Y-73614285D02*
X117854819Y-74185713D01*
X117854819Y-73899999D02*
X116854819Y-73899999D01*
X116854819Y-73899999D02*
X116997676Y-73995237D01*
X116997676Y-73995237D02*
X117092914Y-74090475D01*
X117092914Y-74090475D02*
X117140533Y-74185713D01*
X172557142Y-72804580D02*
X172509523Y-72852200D01*
X172509523Y-72852200D02*
X172366666Y-72899819D01*
X172366666Y-72899819D02*
X172271428Y-72899819D01*
X172271428Y-72899819D02*
X172128571Y-72852200D01*
X172128571Y-72852200D02*
X172033333Y-72756961D01*
X172033333Y-72756961D02*
X171985714Y-72661723D01*
X171985714Y-72661723D02*
X171938095Y-72471247D01*
X171938095Y-72471247D02*
X171938095Y-72328390D01*
X171938095Y-72328390D02*
X171985714Y-72137914D01*
X171985714Y-72137914D02*
X172033333Y-72042676D01*
X172033333Y-72042676D02*
X172128571Y-71947438D01*
X172128571Y-71947438D02*
X172271428Y-71899819D01*
X172271428Y-71899819D02*
X172366666Y-71899819D01*
X172366666Y-71899819D02*
X172509523Y-71947438D01*
X172509523Y-71947438D02*
X172557142Y-71995057D01*
X173509523Y-72899819D02*
X172938095Y-72899819D01*
X173223809Y-72899819D02*
X173223809Y-71899819D01*
X173223809Y-71899819D02*
X173128571Y-72042676D01*
X173128571Y-72042676D02*
X173033333Y-72137914D01*
X173033333Y-72137914D02*
X172938095Y-72185533D01*
X174414285Y-71899819D02*
X173938095Y-71899819D01*
X173938095Y-71899819D02*
X173890476Y-72376009D01*
X173890476Y-72376009D02*
X173938095Y-72328390D01*
X173938095Y-72328390D02*
X174033333Y-72280771D01*
X174033333Y-72280771D02*
X174271428Y-72280771D01*
X174271428Y-72280771D02*
X174366666Y-72328390D01*
X174366666Y-72328390D02*
X174414285Y-72376009D01*
X174414285Y-72376009D02*
X174461904Y-72471247D01*
X174461904Y-72471247D02*
X174461904Y-72709342D01*
X174461904Y-72709342D02*
X174414285Y-72804580D01*
X174414285Y-72804580D02*
X174366666Y-72852200D01*
X174366666Y-72852200D02*
X174271428Y-72899819D01*
X174271428Y-72899819D02*
X174033333Y-72899819D01*
X174033333Y-72899819D02*
X173938095Y-72852200D01*
X173938095Y-72852200D02*
X173890476Y-72804580D01*
D11*
X176060237Y-65724318D02*
X176060237Y-64454318D01*
X177390714Y-65603365D02*
X177330238Y-65663842D01*
X177330238Y-65663842D02*
X177148809Y-65724318D01*
X177148809Y-65724318D02*
X177027857Y-65724318D01*
X177027857Y-65724318D02*
X176846428Y-65663842D01*
X176846428Y-65663842D02*
X176725476Y-65542889D01*
X176725476Y-65542889D02*
X176664999Y-65421937D01*
X176664999Y-65421937D02*
X176604523Y-65180032D01*
X176604523Y-65180032D02*
X176604523Y-64998603D01*
X176604523Y-64998603D02*
X176664999Y-64756699D01*
X176664999Y-64756699D02*
X176725476Y-64635746D01*
X176725476Y-64635746D02*
X176846428Y-64514794D01*
X176846428Y-64514794D02*
X177027857Y-64454318D01*
X177027857Y-64454318D02*
X177148809Y-64454318D01*
X177148809Y-64454318D02*
X177330238Y-64514794D01*
X177330238Y-64514794D02*
X177390714Y-64575270D01*
X177874523Y-64575270D02*
X177934999Y-64514794D01*
X177934999Y-64514794D02*
X178055952Y-64454318D01*
X178055952Y-64454318D02*
X178358333Y-64454318D01*
X178358333Y-64454318D02*
X178479285Y-64514794D01*
X178479285Y-64514794D02*
X178539761Y-64575270D01*
X178539761Y-64575270D02*
X178600238Y-64696222D01*
X178600238Y-64696222D02*
X178600238Y-64817175D01*
X178600238Y-64817175D02*
X178539761Y-64998603D01*
X178539761Y-64998603D02*
X177814047Y-65724318D01*
X177814047Y-65724318D02*
X178600238Y-65724318D01*
D10*
X116833333Y-65359580D02*
X116785714Y-65407200D01*
X116785714Y-65407200D02*
X116642857Y-65454819D01*
X116642857Y-65454819D02*
X116547619Y-65454819D01*
X116547619Y-65454819D02*
X116404762Y-65407200D01*
X116404762Y-65407200D02*
X116309524Y-65311961D01*
X116309524Y-65311961D02*
X116261905Y-65216723D01*
X116261905Y-65216723D02*
X116214286Y-65026247D01*
X116214286Y-65026247D02*
X116214286Y-64883390D01*
X116214286Y-64883390D02*
X116261905Y-64692914D01*
X116261905Y-64692914D02*
X116309524Y-64597676D01*
X116309524Y-64597676D02*
X116404762Y-64502438D01*
X116404762Y-64502438D02*
X116547619Y-64454819D01*
X116547619Y-64454819D02*
X116642857Y-64454819D01*
X116642857Y-64454819D02*
X116785714Y-64502438D01*
X116785714Y-64502438D02*
X116833333Y-64550057D01*
X117166667Y-64454819D02*
X117785714Y-64454819D01*
X117785714Y-64454819D02*
X117452381Y-64835771D01*
X117452381Y-64835771D02*
X117595238Y-64835771D01*
X117595238Y-64835771D02*
X117690476Y-64883390D01*
X117690476Y-64883390D02*
X117738095Y-64931009D01*
X117738095Y-64931009D02*
X117785714Y-65026247D01*
X117785714Y-65026247D02*
X117785714Y-65264342D01*
X117785714Y-65264342D02*
X117738095Y-65359580D01*
X117738095Y-65359580D02*
X117690476Y-65407200D01*
X117690476Y-65407200D02*
X117595238Y-65454819D01*
X117595238Y-65454819D02*
X117309524Y-65454819D01*
X117309524Y-65454819D02*
X117214286Y-65407200D01*
X117214286Y-65407200D02*
X117166667Y-65359580D01*
X119107142Y-56609580D02*
X119059523Y-56657200D01*
X119059523Y-56657200D02*
X118916666Y-56704819D01*
X118916666Y-56704819D02*
X118821428Y-56704819D01*
X118821428Y-56704819D02*
X118678571Y-56657200D01*
X118678571Y-56657200D02*
X118583333Y-56561961D01*
X118583333Y-56561961D02*
X118535714Y-56466723D01*
X118535714Y-56466723D02*
X118488095Y-56276247D01*
X118488095Y-56276247D02*
X118488095Y-56133390D01*
X118488095Y-56133390D02*
X118535714Y-55942914D01*
X118535714Y-55942914D02*
X118583333Y-55847676D01*
X118583333Y-55847676D02*
X118678571Y-55752438D01*
X118678571Y-55752438D02*
X118821428Y-55704819D01*
X118821428Y-55704819D02*
X118916666Y-55704819D01*
X118916666Y-55704819D02*
X119059523Y-55752438D01*
X119059523Y-55752438D02*
X119107142Y-55800057D01*
X119488095Y-55800057D02*
X119535714Y-55752438D01*
X119535714Y-55752438D02*
X119630952Y-55704819D01*
X119630952Y-55704819D02*
X119869047Y-55704819D01*
X119869047Y-55704819D02*
X119964285Y-55752438D01*
X119964285Y-55752438D02*
X120011904Y-55800057D01*
X120011904Y-55800057D02*
X120059523Y-55895295D01*
X120059523Y-55895295D02*
X120059523Y-55990533D01*
X120059523Y-55990533D02*
X120011904Y-56133390D01*
X120011904Y-56133390D02*
X119440476Y-56704819D01*
X119440476Y-56704819D02*
X120059523Y-56704819D01*
X120440476Y-55800057D02*
X120488095Y-55752438D01*
X120488095Y-55752438D02*
X120583333Y-55704819D01*
X120583333Y-55704819D02*
X120821428Y-55704819D01*
X120821428Y-55704819D02*
X120916666Y-55752438D01*
X120916666Y-55752438D02*
X120964285Y-55800057D01*
X120964285Y-55800057D02*
X121011904Y-55895295D01*
X121011904Y-55895295D02*
X121011904Y-55990533D01*
X121011904Y-55990533D02*
X120964285Y-56133390D01*
X120964285Y-56133390D02*
X120392857Y-56704819D01*
X120392857Y-56704819D02*
X121011904Y-56704819D01*
X131359580Y-62442857D02*
X131407200Y-62490476D01*
X131407200Y-62490476D02*
X131454819Y-62633333D01*
X131454819Y-62633333D02*
X131454819Y-62728571D01*
X131454819Y-62728571D02*
X131407200Y-62871428D01*
X131407200Y-62871428D02*
X131311961Y-62966666D01*
X131311961Y-62966666D02*
X131216723Y-63014285D01*
X131216723Y-63014285D02*
X131026247Y-63061904D01*
X131026247Y-63061904D02*
X130883390Y-63061904D01*
X130883390Y-63061904D02*
X130692914Y-63014285D01*
X130692914Y-63014285D02*
X130597676Y-62966666D01*
X130597676Y-62966666D02*
X130502438Y-62871428D01*
X130502438Y-62871428D02*
X130454819Y-62728571D01*
X130454819Y-62728571D02*
X130454819Y-62633333D01*
X130454819Y-62633333D02*
X130502438Y-62490476D01*
X130502438Y-62490476D02*
X130550057Y-62442857D01*
X131454819Y-61490476D02*
X131454819Y-62061904D01*
X131454819Y-61776190D02*
X130454819Y-61776190D01*
X130454819Y-61776190D02*
X130597676Y-61871428D01*
X130597676Y-61871428D02*
X130692914Y-61966666D01*
X130692914Y-61966666D02*
X130740533Y-62061904D01*
X130454819Y-60633333D02*
X130454819Y-60823809D01*
X130454819Y-60823809D02*
X130502438Y-60919047D01*
X130502438Y-60919047D02*
X130550057Y-60966666D01*
X130550057Y-60966666D02*
X130692914Y-61061904D01*
X130692914Y-61061904D02*
X130883390Y-61109523D01*
X130883390Y-61109523D02*
X131264342Y-61109523D01*
X131264342Y-61109523D02*
X131359580Y-61061904D01*
X131359580Y-61061904D02*
X131407200Y-61014285D01*
X131407200Y-61014285D02*
X131454819Y-60919047D01*
X131454819Y-60919047D02*
X131454819Y-60728571D01*
X131454819Y-60728571D02*
X131407200Y-60633333D01*
X131407200Y-60633333D02*
X131359580Y-60585714D01*
X131359580Y-60585714D02*
X131264342Y-60538095D01*
X131264342Y-60538095D02*
X131026247Y-60538095D01*
X131026247Y-60538095D02*
X130931009Y-60585714D01*
X130931009Y-60585714D02*
X130883390Y-60633333D01*
X130883390Y-60633333D02*
X130835771Y-60728571D01*
X130835771Y-60728571D02*
X130835771Y-60919047D01*
X130835771Y-60919047D02*
X130883390Y-61014285D01*
X130883390Y-61014285D02*
X130931009Y-61061904D01*
X130931009Y-61061904D02*
X131026247Y-61109523D01*
X107266666Y-74388151D02*
X107266666Y-75102436D01*
X107266666Y-75102436D02*
X107219047Y-75245293D01*
X107219047Y-75245293D02*
X107123809Y-75340532D01*
X107123809Y-75340532D02*
X106980952Y-75388151D01*
X106980952Y-75388151D02*
X106885714Y-75388151D01*
X107647619Y-74388151D02*
X108266666Y-74388151D01*
X108266666Y-74388151D02*
X107933333Y-74769103D01*
X107933333Y-74769103D02*
X108076190Y-74769103D01*
X108076190Y-74769103D02*
X108171428Y-74816722D01*
X108171428Y-74816722D02*
X108219047Y-74864341D01*
X108219047Y-74864341D02*
X108266666Y-74959579D01*
X108266666Y-74959579D02*
X108266666Y-75197674D01*
X108266666Y-75197674D02*
X108219047Y-75292912D01*
X108219047Y-75292912D02*
X108171428Y-75340532D01*
X108171428Y-75340532D02*
X108076190Y-75388151D01*
X108076190Y-75388151D02*
X107790476Y-75388151D01*
X107790476Y-75388151D02*
X107695238Y-75340532D01*
X107695238Y-75340532D02*
X107647619Y-75292912D01*
X126633333Y-64959580D02*
X126585714Y-65007200D01*
X126585714Y-65007200D02*
X126442857Y-65054819D01*
X126442857Y-65054819D02*
X126347619Y-65054819D01*
X126347619Y-65054819D02*
X126204762Y-65007200D01*
X126204762Y-65007200D02*
X126109524Y-64911961D01*
X126109524Y-64911961D02*
X126061905Y-64816723D01*
X126061905Y-64816723D02*
X126014286Y-64626247D01*
X126014286Y-64626247D02*
X126014286Y-64483390D01*
X126014286Y-64483390D02*
X126061905Y-64292914D01*
X126061905Y-64292914D02*
X126109524Y-64197676D01*
X126109524Y-64197676D02*
X126204762Y-64102438D01*
X126204762Y-64102438D02*
X126347619Y-64054819D01*
X126347619Y-64054819D02*
X126442857Y-64054819D01*
X126442857Y-64054819D02*
X126585714Y-64102438D01*
X126585714Y-64102438D02*
X126633333Y-64150057D01*
X127109524Y-65054819D02*
X127300000Y-65054819D01*
X127300000Y-65054819D02*
X127395238Y-65007200D01*
X127395238Y-65007200D02*
X127442857Y-64959580D01*
X127442857Y-64959580D02*
X127538095Y-64816723D01*
X127538095Y-64816723D02*
X127585714Y-64626247D01*
X127585714Y-64626247D02*
X127585714Y-64245295D01*
X127585714Y-64245295D02*
X127538095Y-64150057D01*
X127538095Y-64150057D02*
X127490476Y-64102438D01*
X127490476Y-64102438D02*
X127395238Y-64054819D01*
X127395238Y-64054819D02*
X127204762Y-64054819D01*
X127204762Y-64054819D02*
X127109524Y-64102438D01*
X127109524Y-64102438D02*
X127061905Y-64150057D01*
X127061905Y-64150057D02*
X127014286Y-64245295D01*
X127014286Y-64245295D02*
X127014286Y-64483390D01*
X127014286Y-64483390D02*
X127061905Y-64578628D01*
X127061905Y-64578628D02*
X127109524Y-64626247D01*
X127109524Y-64626247D02*
X127204762Y-64673866D01*
X127204762Y-64673866D02*
X127395238Y-64673866D01*
X127395238Y-64673866D02*
X127490476Y-64626247D01*
X127490476Y-64626247D02*
X127538095Y-64578628D01*
X127538095Y-64578628D02*
X127585714Y-64483390D01*
X107066666Y-83054819D02*
X107066666Y-83769104D01*
X107066666Y-83769104D02*
X107019047Y-83911961D01*
X107019047Y-83911961D02*
X106923809Y-84007200D01*
X106923809Y-84007200D02*
X106780952Y-84054819D01*
X106780952Y-84054819D02*
X106685714Y-84054819D01*
X107971428Y-83388152D02*
X107971428Y-84054819D01*
X107733333Y-83007200D02*
X107495238Y-83721485D01*
X107495238Y-83721485D02*
X108114285Y-83721485D01*
X110919580Y-63966666D02*
X110967200Y-64014285D01*
X110967200Y-64014285D02*
X111014819Y-64157142D01*
X111014819Y-64157142D02*
X111014819Y-64252380D01*
X111014819Y-64252380D02*
X110967200Y-64395237D01*
X110967200Y-64395237D02*
X110871961Y-64490475D01*
X110871961Y-64490475D02*
X110776723Y-64538094D01*
X110776723Y-64538094D02*
X110586247Y-64585713D01*
X110586247Y-64585713D02*
X110443390Y-64585713D01*
X110443390Y-64585713D02*
X110252914Y-64538094D01*
X110252914Y-64538094D02*
X110157676Y-64490475D01*
X110157676Y-64490475D02*
X110062438Y-64395237D01*
X110062438Y-64395237D02*
X110014819Y-64252380D01*
X110014819Y-64252380D02*
X110014819Y-64157142D01*
X110014819Y-64157142D02*
X110062438Y-64014285D01*
X110062438Y-64014285D02*
X110110057Y-63966666D01*
X110014819Y-63633332D02*
X110014819Y-62966666D01*
X110014819Y-62966666D02*
X111014819Y-63395237D01*
D11*
X146264318Y-64042381D02*
X144994318Y-64042381D01*
X144994318Y-64042381D02*
X144994318Y-63740000D01*
X144994318Y-63740000D02*
X145054794Y-63558571D01*
X145054794Y-63558571D02*
X145175746Y-63437619D01*
X145175746Y-63437619D02*
X145296699Y-63377142D01*
X145296699Y-63377142D02*
X145538603Y-63316666D01*
X145538603Y-63316666D02*
X145720032Y-63316666D01*
X145720032Y-63316666D02*
X145961937Y-63377142D01*
X145961937Y-63377142D02*
X146082889Y-63437619D01*
X146082889Y-63437619D02*
X146203842Y-63558571D01*
X146203842Y-63558571D02*
X146264318Y-63740000D01*
X146264318Y-63740000D02*
X146264318Y-64042381D01*
X146264318Y-62107142D02*
X146264318Y-62832857D01*
X146264318Y-62470000D02*
X144994318Y-62470000D01*
X144994318Y-62470000D02*
X145175746Y-62590952D01*
X145175746Y-62590952D02*
X145296699Y-62711904D01*
X145296699Y-62711904D02*
X145357175Y-62832857D01*
D10*
X185466666Y-55204819D02*
X185466666Y-55919104D01*
X185466666Y-55919104D02*
X185419047Y-56061961D01*
X185419047Y-56061961D02*
X185323809Y-56157200D01*
X185323809Y-56157200D02*
X185180952Y-56204819D01*
X185180952Y-56204819D02*
X185085714Y-56204819D01*
X186085714Y-55633390D02*
X185990476Y-55585771D01*
X185990476Y-55585771D02*
X185942857Y-55538152D01*
X185942857Y-55538152D02*
X185895238Y-55442914D01*
X185895238Y-55442914D02*
X185895238Y-55395295D01*
X185895238Y-55395295D02*
X185942857Y-55300057D01*
X185942857Y-55300057D02*
X185990476Y-55252438D01*
X185990476Y-55252438D02*
X186085714Y-55204819D01*
X186085714Y-55204819D02*
X186276190Y-55204819D01*
X186276190Y-55204819D02*
X186371428Y-55252438D01*
X186371428Y-55252438D02*
X186419047Y-55300057D01*
X186419047Y-55300057D02*
X186466666Y-55395295D01*
X186466666Y-55395295D02*
X186466666Y-55442914D01*
X186466666Y-55442914D02*
X186419047Y-55538152D01*
X186419047Y-55538152D02*
X186371428Y-55585771D01*
X186371428Y-55585771D02*
X186276190Y-55633390D01*
X186276190Y-55633390D02*
X186085714Y-55633390D01*
X186085714Y-55633390D02*
X185990476Y-55681009D01*
X185990476Y-55681009D02*
X185942857Y-55728628D01*
X185942857Y-55728628D02*
X185895238Y-55823866D01*
X185895238Y-55823866D02*
X185895238Y-56014342D01*
X185895238Y-56014342D02*
X185942857Y-56109580D01*
X185942857Y-56109580D02*
X185990476Y-56157200D01*
X185990476Y-56157200D02*
X186085714Y-56204819D01*
X186085714Y-56204819D02*
X186276190Y-56204819D01*
X186276190Y-56204819D02*
X186371428Y-56157200D01*
X186371428Y-56157200D02*
X186419047Y-56109580D01*
X186419047Y-56109580D02*
X186466666Y-56014342D01*
X186466666Y-56014342D02*
X186466666Y-55823866D01*
X186466666Y-55823866D02*
X186419047Y-55728628D01*
X186419047Y-55728628D02*
X186371428Y-55681009D01*
X186371428Y-55681009D02*
X186276190Y-55633390D01*
X182880952Y-56204819D02*
X182309524Y-56204819D01*
X182595238Y-56204819D02*
X182595238Y-55204819D01*
X182595238Y-55204819D02*
X182500000Y-55347676D01*
X182500000Y-55347676D02*
X182404762Y-55442914D01*
X182404762Y-55442914D02*
X182309524Y-55490533D01*
X183261905Y-55300057D02*
X183309524Y-55252438D01*
X183309524Y-55252438D02*
X183404762Y-55204819D01*
X183404762Y-55204819D02*
X183642857Y-55204819D01*
X183642857Y-55204819D02*
X183738095Y-55252438D01*
X183738095Y-55252438D02*
X183785714Y-55300057D01*
X183785714Y-55300057D02*
X183833333Y-55395295D01*
X183833333Y-55395295D02*
X183833333Y-55490533D01*
X183833333Y-55490533D02*
X183785714Y-55633390D01*
X183785714Y-55633390D02*
X183214286Y-56204819D01*
X183214286Y-56204819D02*
X183833333Y-56204819D01*
X184119048Y-55204819D02*
X184452381Y-56204819D01*
X184452381Y-56204819D02*
X184785714Y-55204819D01*
X172357142Y-60804580D02*
X172309523Y-60852200D01*
X172309523Y-60852200D02*
X172166666Y-60899819D01*
X172166666Y-60899819D02*
X172071428Y-60899819D01*
X172071428Y-60899819D02*
X171928571Y-60852200D01*
X171928571Y-60852200D02*
X171833333Y-60756961D01*
X171833333Y-60756961D02*
X171785714Y-60661723D01*
X171785714Y-60661723D02*
X171738095Y-60471247D01*
X171738095Y-60471247D02*
X171738095Y-60328390D01*
X171738095Y-60328390D02*
X171785714Y-60137914D01*
X171785714Y-60137914D02*
X171833333Y-60042676D01*
X171833333Y-60042676D02*
X171928571Y-59947438D01*
X171928571Y-59947438D02*
X172071428Y-59899819D01*
X172071428Y-59899819D02*
X172166666Y-59899819D01*
X172166666Y-59899819D02*
X172309523Y-59947438D01*
X172309523Y-59947438D02*
X172357142Y-59995057D01*
X173309523Y-60899819D02*
X172738095Y-60899819D01*
X173023809Y-60899819D02*
X173023809Y-59899819D01*
X173023809Y-59899819D02*
X172928571Y-60042676D01*
X172928571Y-60042676D02*
X172833333Y-60137914D01*
X172833333Y-60137914D02*
X172738095Y-60185533D01*
X173928571Y-59899819D02*
X174023809Y-59899819D01*
X174023809Y-59899819D02*
X174119047Y-59947438D01*
X174119047Y-59947438D02*
X174166666Y-59995057D01*
X174166666Y-59995057D02*
X174214285Y-60090295D01*
X174214285Y-60090295D02*
X174261904Y-60280771D01*
X174261904Y-60280771D02*
X174261904Y-60518866D01*
X174261904Y-60518866D02*
X174214285Y-60709342D01*
X174214285Y-60709342D02*
X174166666Y-60804580D01*
X174166666Y-60804580D02*
X174119047Y-60852200D01*
X174119047Y-60852200D02*
X174023809Y-60899819D01*
X174023809Y-60899819D02*
X173928571Y-60899819D01*
X173928571Y-60899819D02*
X173833333Y-60852200D01*
X173833333Y-60852200D02*
X173785714Y-60804580D01*
X173785714Y-60804580D02*
X173738095Y-60709342D01*
X173738095Y-60709342D02*
X173690476Y-60518866D01*
X173690476Y-60518866D02*
X173690476Y-60280771D01*
X173690476Y-60280771D02*
X173738095Y-60090295D01*
X173738095Y-60090295D02*
X173785714Y-59995057D01*
X173785714Y-59995057D02*
X173833333Y-59947438D01*
X173833333Y-59947438D02*
X173928571Y-59899819D01*
X134359580Y-62442857D02*
X134407200Y-62490476D01*
X134407200Y-62490476D02*
X134454819Y-62633333D01*
X134454819Y-62633333D02*
X134454819Y-62728571D01*
X134454819Y-62728571D02*
X134407200Y-62871428D01*
X134407200Y-62871428D02*
X134311961Y-62966666D01*
X134311961Y-62966666D02*
X134216723Y-63014285D01*
X134216723Y-63014285D02*
X134026247Y-63061904D01*
X134026247Y-63061904D02*
X133883390Y-63061904D01*
X133883390Y-63061904D02*
X133692914Y-63014285D01*
X133692914Y-63014285D02*
X133597676Y-62966666D01*
X133597676Y-62966666D02*
X133502438Y-62871428D01*
X133502438Y-62871428D02*
X133454819Y-62728571D01*
X133454819Y-62728571D02*
X133454819Y-62633333D01*
X133454819Y-62633333D02*
X133502438Y-62490476D01*
X133502438Y-62490476D02*
X133550057Y-62442857D01*
X134454819Y-61490476D02*
X134454819Y-62061904D01*
X134454819Y-61776190D02*
X133454819Y-61776190D01*
X133454819Y-61776190D02*
X133597676Y-61871428D01*
X133597676Y-61871428D02*
X133692914Y-61966666D01*
X133692914Y-61966666D02*
X133740533Y-62061904D01*
X134454819Y-61014285D02*
X134454819Y-60823809D01*
X134454819Y-60823809D02*
X134407200Y-60728571D01*
X134407200Y-60728571D02*
X134359580Y-60680952D01*
X134359580Y-60680952D02*
X134216723Y-60585714D01*
X134216723Y-60585714D02*
X134026247Y-60538095D01*
X134026247Y-60538095D02*
X133645295Y-60538095D01*
X133645295Y-60538095D02*
X133550057Y-60585714D01*
X133550057Y-60585714D02*
X133502438Y-60633333D01*
X133502438Y-60633333D02*
X133454819Y-60728571D01*
X133454819Y-60728571D02*
X133454819Y-60919047D01*
X133454819Y-60919047D02*
X133502438Y-61014285D01*
X133502438Y-61014285D02*
X133550057Y-61061904D01*
X133550057Y-61061904D02*
X133645295Y-61109523D01*
X133645295Y-61109523D02*
X133883390Y-61109523D01*
X133883390Y-61109523D02*
X133978628Y-61061904D01*
X133978628Y-61061904D02*
X134026247Y-61014285D01*
X134026247Y-61014285D02*
X134073866Y-60919047D01*
X134073866Y-60919047D02*
X134073866Y-60728571D01*
X134073866Y-60728571D02*
X134026247Y-60633333D01*
X134026247Y-60633333D02*
X133978628Y-60585714D01*
X133978628Y-60585714D02*
X133883390Y-60538095D01*
X114759580Y-73966666D02*
X114807200Y-74014285D01*
X114807200Y-74014285D02*
X114854819Y-74157142D01*
X114854819Y-74157142D02*
X114854819Y-74252380D01*
X114854819Y-74252380D02*
X114807200Y-74395237D01*
X114807200Y-74395237D02*
X114711961Y-74490475D01*
X114711961Y-74490475D02*
X114616723Y-74538094D01*
X114616723Y-74538094D02*
X114426247Y-74585713D01*
X114426247Y-74585713D02*
X114283390Y-74585713D01*
X114283390Y-74585713D02*
X114092914Y-74538094D01*
X114092914Y-74538094D02*
X113997676Y-74490475D01*
X113997676Y-74490475D02*
X113902438Y-74395237D01*
X113902438Y-74395237D02*
X113854819Y-74252380D01*
X113854819Y-74252380D02*
X113854819Y-74157142D01*
X113854819Y-74157142D02*
X113902438Y-74014285D01*
X113902438Y-74014285D02*
X113950057Y-73966666D01*
X114188152Y-73109523D02*
X114854819Y-73109523D01*
X113807200Y-73347618D02*
X114521485Y-73585713D01*
X114521485Y-73585713D02*
X114521485Y-72966666D01*
X170233333Y-78794819D02*
X169900000Y-78318628D01*
X169661905Y-78794819D02*
X169661905Y-77794819D01*
X169661905Y-77794819D02*
X170042857Y-77794819D01*
X170042857Y-77794819D02*
X170138095Y-77842438D01*
X170138095Y-77842438D02*
X170185714Y-77890057D01*
X170185714Y-77890057D02*
X170233333Y-77985295D01*
X170233333Y-77985295D02*
X170233333Y-78128152D01*
X170233333Y-78128152D02*
X170185714Y-78223390D01*
X170185714Y-78223390D02*
X170138095Y-78271009D01*
X170138095Y-78271009D02*
X170042857Y-78318628D01*
X170042857Y-78318628D02*
X169661905Y-78318628D01*
X170566667Y-77794819D02*
X171185714Y-77794819D01*
X171185714Y-77794819D02*
X170852381Y-78175771D01*
X170852381Y-78175771D02*
X170995238Y-78175771D01*
X170995238Y-78175771D02*
X171090476Y-78223390D01*
X171090476Y-78223390D02*
X171138095Y-78271009D01*
X171138095Y-78271009D02*
X171185714Y-78366247D01*
X171185714Y-78366247D02*
X171185714Y-78604342D01*
X171185714Y-78604342D02*
X171138095Y-78699580D01*
X171138095Y-78699580D02*
X171090476Y-78747200D01*
X171090476Y-78747200D02*
X170995238Y-78794819D01*
X170995238Y-78794819D02*
X170709524Y-78794819D01*
X170709524Y-78794819D02*
X170614286Y-78747200D01*
X170614286Y-78747200D02*
X170566667Y-78699580D01*
D11*
X123572237Y-73172318D02*
X123572237Y-71902318D01*
X124902714Y-73051365D02*
X124842238Y-73111842D01*
X124842238Y-73111842D02*
X124660809Y-73172318D01*
X124660809Y-73172318D02*
X124539857Y-73172318D01*
X124539857Y-73172318D02*
X124358428Y-73111842D01*
X124358428Y-73111842D02*
X124237476Y-72990889D01*
X124237476Y-72990889D02*
X124176999Y-72869937D01*
X124176999Y-72869937D02*
X124116523Y-72628032D01*
X124116523Y-72628032D02*
X124116523Y-72446603D01*
X124116523Y-72446603D02*
X124176999Y-72204699D01*
X124176999Y-72204699D02*
X124237476Y-72083746D01*
X124237476Y-72083746D02*
X124358428Y-71962794D01*
X124358428Y-71962794D02*
X124539857Y-71902318D01*
X124539857Y-71902318D02*
X124660809Y-71902318D01*
X124660809Y-71902318D02*
X124842238Y-71962794D01*
X124842238Y-71962794D02*
X124902714Y-72023270D01*
X126112238Y-73172318D02*
X125386523Y-73172318D01*
X125749380Y-73172318D02*
X125749380Y-71902318D01*
X125749380Y-71902318D02*
X125628428Y-72083746D01*
X125628428Y-72083746D02*
X125507476Y-72204699D01*
X125507476Y-72204699D02*
X125386523Y-72265175D01*
X176060237Y-78819318D02*
X176060237Y-77549318D01*
X177390714Y-78698365D02*
X177330238Y-78758842D01*
X177330238Y-78758842D02*
X177148809Y-78819318D01*
X177148809Y-78819318D02*
X177027857Y-78819318D01*
X177027857Y-78819318D02*
X176846428Y-78758842D01*
X176846428Y-78758842D02*
X176725476Y-78637889D01*
X176725476Y-78637889D02*
X176664999Y-78516937D01*
X176664999Y-78516937D02*
X176604523Y-78275032D01*
X176604523Y-78275032D02*
X176604523Y-78093603D01*
X176604523Y-78093603D02*
X176664999Y-77851699D01*
X176664999Y-77851699D02*
X176725476Y-77730746D01*
X176725476Y-77730746D02*
X176846428Y-77609794D01*
X176846428Y-77609794D02*
X177027857Y-77549318D01*
X177027857Y-77549318D02*
X177148809Y-77549318D01*
X177148809Y-77549318D02*
X177330238Y-77609794D01*
X177330238Y-77609794D02*
X177390714Y-77670270D01*
X177814047Y-77549318D02*
X178600238Y-77549318D01*
X178600238Y-77549318D02*
X178176904Y-78033127D01*
X178176904Y-78033127D02*
X178358333Y-78033127D01*
X178358333Y-78033127D02*
X178479285Y-78093603D01*
X178479285Y-78093603D02*
X178539761Y-78154080D01*
X178539761Y-78154080D02*
X178600238Y-78275032D01*
X178600238Y-78275032D02*
X178600238Y-78577413D01*
X178600238Y-78577413D02*
X178539761Y-78698365D01*
X178539761Y-78698365D02*
X178479285Y-78758842D01*
X178479285Y-78758842D02*
X178358333Y-78819318D01*
X178358333Y-78819318D02*
X177995476Y-78819318D01*
X177995476Y-78819318D02*
X177874523Y-78758842D01*
X177874523Y-78758842D02*
X177814047Y-78698365D01*
D10*
X133359580Y-62442857D02*
X133407200Y-62490476D01*
X133407200Y-62490476D02*
X133454819Y-62633333D01*
X133454819Y-62633333D02*
X133454819Y-62728571D01*
X133454819Y-62728571D02*
X133407200Y-62871428D01*
X133407200Y-62871428D02*
X133311961Y-62966666D01*
X133311961Y-62966666D02*
X133216723Y-63014285D01*
X133216723Y-63014285D02*
X133026247Y-63061904D01*
X133026247Y-63061904D02*
X132883390Y-63061904D01*
X132883390Y-63061904D02*
X132692914Y-63014285D01*
X132692914Y-63014285D02*
X132597676Y-62966666D01*
X132597676Y-62966666D02*
X132502438Y-62871428D01*
X132502438Y-62871428D02*
X132454819Y-62728571D01*
X132454819Y-62728571D02*
X132454819Y-62633333D01*
X132454819Y-62633333D02*
X132502438Y-62490476D01*
X132502438Y-62490476D02*
X132550057Y-62442857D01*
X133454819Y-61490476D02*
X133454819Y-62061904D01*
X133454819Y-61776190D02*
X132454819Y-61776190D01*
X132454819Y-61776190D02*
X132597676Y-61871428D01*
X132597676Y-61871428D02*
X132692914Y-61966666D01*
X132692914Y-61966666D02*
X132740533Y-62061904D01*
X132883390Y-60919047D02*
X132835771Y-61014285D01*
X132835771Y-61014285D02*
X132788152Y-61061904D01*
X132788152Y-61061904D02*
X132692914Y-61109523D01*
X132692914Y-61109523D02*
X132645295Y-61109523D01*
X132645295Y-61109523D02*
X132550057Y-61061904D01*
X132550057Y-61061904D02*
X132502438Y-61014285D01*
X132502438Y-61014285D02*
X132454819Y-60919047D01*
X132454819Y-60919047D02*
X132454819Y-60728571D01*
X132454819Y-60728571D02*
X132502438Y-60633333D01*
X132502438Y-60633333D02*
X132550057Y-60585714D01*
X132550057Y-60585714D02*
X132645295Y-60538095D01*
X132645295Y-60538095D02*
X132692914Y-60538095D01*
X132692914Y-60538095D02*
X132788152Y-60585714D01*
X132788152Y-60585714D02*
X132835771Y-60633333D01*
X132835771Y-60633333D02*
X132883390Y-60728571D01*
X132883390Y-60728571D02*
X132883390Y-60919047D01*
X132883390Y-60919047D02*
X132931009Y-61014285D01*
X132931009Y-61014285D02*
X132978628Y-61061904D01*
X132978628Y-61061904D02*
X133073866Y-61109523D01*
X133073866Y-61109523D02*
X133264342Y-61109523D01*
X133264342Y-61109523D02*
X133359580Y-61061904D01*
X133359580Y-61061904D02*
X133407200Y-61014285D01*
X133407200Y-61014285D02*
X133454819Y-60919047D01*
X133454819Y-60919047D02*
X133454819Y-60728571D01*
X133454819Y-60728571D02*
X133407200Y-60633333D01*
X133407200Y-60633333D02*
X133359580Y-60585714D01*
X133359580Y-60585714D02*
X133264342Y-60538095D01*
X133264342Y-60538095D02*
X133073866Y-60538095D01*
X133073866Y-60538095D02*
X132978628Y-60585714D01*
X132978628Y-60585714D02*
X132931009Y-60633333D01*
X132931009Y-60633333D02*
X132883390Y-60728571D01*
X114759580Y-71766666D02*
X114807200Y-71814285D01*
X114807200Y-71814285D02*
X114854819Y-71957142D01*
X114854819Y-71957142D02*
X114854819Y-72052380D01*
X114854819Y-72052380D02*
X114807200Y-72195237D01*
X114807200Y-72195237D02*
X114711961Y-72290475D01*
X114711961Y-72290475D02*
X114616723Y-72338094D01*
X114616723Y-72338094D02*
X114426247Y-72385713D01*
X114426247Y-72385713D02*
X114283390Y-72385713D01*
X114283390Y-72385713D02*
X114092914Y-72338094D01*
X114092914Y-72338094D02*
X113997676Y-72290475D01*
X113997676Y-72290475D02*
X113902438Y-72195237D01*
X113902438Y-72195237D02*
X113854819Y-72052380D01*
X113854819Y-72052380D02*
X113854819Y-71957142D01*
X113854819Y-71957142D02*
X113902438Y-71814285D01*
X113902438Y-71814285D02*
X113950057Y-71766666D01*
X113950057Y-71385713D02*
X113902438Y-71338094D01*
X113902438Y-71338094D02*
X113854819Y-71242856D01*
X113854819Y-71242856D02*
X113854819Y-71004761D01*
X113854819Y-71004761D02*
X113902438Y-70909523D01*
X113902438Y-70909523D02*
X113950057Y-70861904D01*
X113950057Y-70861904D02*
X114045295Y-70814285D01*
X114045295Y-70814285D02*
X114140533Y-70814285D01*
X114140533Y-70814285D02*
X114283390Y-70861904D01*
X114283390Y-70861904D02*
X114854819Y-71433332D01*
X114854819Y-71433332D02*
X114854819Y-70814285D01*
X170433333Y-65699819D02*
X170100000Y-65223628D01*
X169861905Y-65699819D02*
X169861905Y-64699819D01*
X169861905Y-64699819D02*
X170242857Y-64699819D01*
X170242857Y-64699819D02*
X170338095Y-64747438D01*
X170338095Y-64747438D02*
X170385714Y-64795057D01*
X170385714Y-64795057D02*
X170433333Y-64890295D01*
X170433333Y-64890295D02*
X170433333Y-65033152D01*
X170433333Y-65033152D02*
X170385714Y-65128390D01*
X170385714Y-65128390D02*
X170338095Y-65176009D01*
X170338095Y-65176009D02*
X170242857Y-65223628D01*
X170242857Y-65223628D02*
X169861905Y-65223628D01*
X171385714Y-65699819D02*
X170814286Y-65699819D01*
X171100000Y-65699819D02*
X171100000Y-64699819D01*
X171100000Y-64699819D02*
X171004762Y-64842676D01*
X171004762Y-64842676D02*
X170909524Y-64937914D01*
X170909524Y-64937914D02*
X170814286Y-64985533D01*
X134454819Y-71966666D02*
X133978628Y-72299999D01*
X134454819Y-72538094D02*
X133454819Y-72538094D01*
X133454819Y-72538094D02*
X133454819Y-72157142D01*
X133454819Y-72157142D02*
X133502438Y-72061904D01*
X133502438Y-72061904D02*
X133550057Y-72014285D01*
X133550057Y-72014285D02*
X133645295Y-71966666D01*
X133645295Y-71966666D02*
X133788152Y-71966666D01*
X133788152Y-71966666D02*
X133883390Y-72014285D01*
X133883390Y-72014285D02*
X133931009Y-72061904D01*
X133931009Y-72061904D02*
X133978628Y-72157142D01*
X133978628Y-72157142D02*
X133978628Y-72538094D01*
X133454819Y-71061904D02*
X133454819Y-71538094D01*
X133454819Y-71538094D02*
X133931009Y-71585713D01*
X133931009Y-71585713D02*
X133883390Y-71538094D01*
X133883390Y-71538094D02*
X133835771Y-71442856D01*
X133835771Y-71442856D02*
X133835771Y-71204761D01*
X133835771Y-71204761D02*
X133883390Y-71109523D01*
X133883390Y-71109523D02*
X133931009Y-71061904D01*
X133931009Y-71061904D02*
X134026247Y-71014285D01*
X134026247Y-71014285D02*
X134264342Y-71014285D01*
X134264342Y-71014285D02*
X134359580Y-71061904D01*
X134359580Y-71061904D02*
X134407200Y-71109523D01*
X134407200Y-71109523D02*
X134454819Y-71204761D01*
X134454819Y-71204761D02*
X134454819Y-71442856D01*
X134454819Y-71442856D02*
X134407200Y-71538094D01*
X134407200Y-71538094D02*
X134359580Y-71585713D01*
X146357142Y-82959580D02*
X146309523Y-83007200D01*
X146309523Y-83007200D02*
X146166666Y-83054819D01*
X146166666Y-83054819D02*
X146071428Y-83054819D01*
X146071428Y-83054819D02*
X145928571Y-83007200D01*
X145928571Y-83007200D02*
X145833333Y-82911961D01*
X145833333Y-82911961D02*
X145785714Y-82816723D01*
X145785714Y-82816723D02*
X145738095Y-82626247D01*
X145738095Y-82626247D02*
X145738095Y-82483390D01*
X145738095Y-82483390D02*
X145785714Y-82292914D01*
X145785714Y-82292914D02*
X145833333Y-82197676D01*
X145833333Y-82197676D02*
X145928571Y-82102438D01*
X145928571Y-82102438D02*
X146071428Y-82054819D01*
X146071428Y-82054819D02*
X146166666Y-82054819D01*
X146166666Y-82054819D02*
X146309523Y-82102438D01*
X146309523Y-82102438D02*
X146357142Y-82150057D01*
X146738095Y-82150057D02*
X146785714Y-82102438D01*
X146785714Y-82102438D02*
X146880952Y-82054819D01*
X146880952Y-82054819D02*
X147119047Y-82054819D01*
X147119047Y-82054819D02*
X147214285Y-82102438D01*
X147214285Y-82102438D02*
X147261904Y-82150057D01*
X147261904Y-82150057D02*
X147309523Y-82245295D01*
X147309523Y-82245295D02*
X147309523Y-82340533D01*
X147309523Y-82340533D02*
X147261904Y-82483390D01*
X147261904Y-82483390D02*
X146690476Y-83054819D01*
X146690476Y-83054819D02*
X147309523Y-83054819D01*
X148261904Y-83054819D02*
X147690476Y-83054819D01*
X147976190Y-83054819D02*
X147976190Y-82054819D01*
X147976190Y-82054819D02*
X147880952Y-82197676D01*
X147880952Y-82197676D02*
X147785714Y-82292914D01*
X147785714Y-82292914D02*
X147690476Y-82340533D01*
X142190476Y-70694819D02*
X142190476Y-71409104D01*
X142190476Y-71409104D02*
X142142857Y-71551961D01*
X142142857Y-71551961D02*
X142047619Y-71647200D01*
X142047619Y-71647200D02*
X141904762Y-71694819D01*
X141904762Y-71694819D02*
X141809524Y-71694819D01*
X143190476Y-71694819D02*
X142619048Y-71694819D01*
X142904762Y-71694819D02*
X142904762Y-70694819D01*
X142904762Y-70694819D02*
X142809524Y-70837676D01*
X142809524Y-70837676D02*
X142714286Y-70932914D01*
X142714286Y-70932914D02*
X142619048Y-70980533D01*
X144142857Y-71694819D02*
X143571429Y-71694819D01*
X143857143Y-71694819D02*
X143857143Y-70694819D01*
X143857143Y-70694819D02*
X143761905Y-70837676D01*
X143761905Y-70837676D02*
X143666667Y-70932914D01*
X143666667Y-70932914D02*
X143571429Y-70980533D01*
X124166666Y-88704819D02*
X124166666Y-89419104D01*
X124166666Y-89419104D02*
X124119047Y-89561961D01*
X124119047Y-89561961D02*
X124023809Y-89657200D01*
X124023809Y-89657200D02*
X123880952Y-89704819D01*
X123880952Y-89704819D02*
X123785714Y-89704819D01*
X125071428Y-88704819D02*
X124880952Y-88704819D01*
X124880952Y-88704819D02*
X124785714Y-88752438D01*
X124785714Y-88752438D02*
X124738095Y-88800057D01*
X124738095Y-88800057D02*
X124642857Y-88942914D01*
X124642857Y-88942914D02*
X124595238Y-89133390D01*
X124595238Y-89133390D02*
X124595238Y-89514342D01*
X124595238Y-89514342D02*
X124642857Y-89609580D01*
X124642857Y-89609580D02*
X124690476Y-89657200D01*
X124690476Y-89657200D02*
X124785714Y-89704819D01*
X124785714Y-89704819D02*
X124976190Y-89704819D01*
X124976190Y-89704819D02*
X125071428Y-89657200D01*
X125071428Y-89657200D02*
X125119047Y-89609580D01*
X125119047Y-89609580D02*
X125166666Y-89514342D01*
X125166666Y-89514342D02*
X125166666Y-89276247D01*
X125166666Y-89276247D02*
X125119047Y-89181009D01*
X125119047Y-89181009D02*
X125071428Y-89133390D01*
X125071428Y-89133390D02*
X124976190Y-89085771D01*
X124976190Y-89085771D02*
X124785714Y-89085771D01*
X124785714Y-89085771D02*
X124690476Y-89133390D01*
X124690476Y-89133390D02*
X124642857Y-89181009D01*
X124642857Y-89181009D02*
X124595238Y-89276247D01*
X116833333Y-63959580D02*
X116785714Y-64007200D01*
X116785714Y-64007200D02*
X116642857Y-64054819D01*
X116642857Y-64054819D02*
X116547619Y-64054819D01*
X116547619Y-64054819D02*
X116404762Y-64007200D01*
X116404762Y-64007200D02*
X116309524Y-63911961D01*
X116309524Y-63911961D02*
X116261905Y-63816723D01*
X116261905Y-63816723D02*
X116214286Y-63626247D01*
X116214286Y-63626247D02*
X116214286Y-63483390D01*
X116214286Y-63483390D02*
X116261905Y-63292914D01*
X116261905Y-63292914D02*
X116309524Y-63197676D01*
X116309524Y-63197676D02*
X116404762Y-63102438D01*
X116404762Y-63102438D02*
X116547619Y-63054819D01*
X116547619Y-63054819D02*
X116642857Y-63054819D01*
X116642857Y-63054819D02*
X116785714Y-63102438D01*
X116785714Y-63102438D02*
X116833333Y-63150057D01*
X117690476Y-63054819D02*
X117500000Y-63054819D01*
X117500000Y-63054819D02*
X117404762Y-63102438D01*
X117404762Y-63102438D02*
X117357143Y-63150057D01*
X117357143Y-63150057D02*
X117261905Y-63292914D01*
X117261905Y-63292914D02*
X117214286Y-63483390D01*
X117214286Y-63483390D02*
X117214286Y-63864342D01*
X117214286Y-63864342D02*
X117261905Y-63959580D01*
X117261905Y-63959580D02*
X117309524Y-64007200D01*
X117309524Y-64007200D02*
X117404762Y-64054819D01*
X117404762Y-64054819D02*
X117595238Y-64054819D01*
X117595238Y-64054819D02*
X117690476Y-64007200D01*
X117690476Y-64007200D02*
X117738095Y-63959580D01*
X117738095Y-63959580D02*
X117785714Y-63864342D01*
X117785714Y-63864342D02*
X117785714Y-63626247D01*
X117785714Y-63626247D02*
X117738095Y-63531009D01*
X117738095Y-63531009D02*
X117690476Y-63483390D01*
X117690476Y-63483390D02*
X117595238Y-63435771D01*
X117595238Y-63435771D02*
X117404762Y-63435771D01*
X117404762Y-63435771D02*
X117309524Y-63483390D01*
X117309524Y-63483390D02*
X117261905Y-63531009D01*
X117261905Y-63531009D02*
X117214286Y-63626247D01*
X170353333Y-67499819D02*
X170020000Y-67023628D01*
X169781905Y-67499819D02*
X169781905Y-66499819D01*
X169781905Y-66499819D02*
X170162857Y-66499819D01*
X170162857Y-66499819D02*
X170258095Y-66547438D01*
X170258095Y-66547438D02*
X170305714Y-66595057D01*
X170305714Y-66595057D02*
X170353333Y-66690295D01*
X170353333Y-66690295D02*
X170353333Y-66833152D01*
X170353333Y-66833152D02*
X170305714Y-66928390D01*
X170305714Y-66928390D02*
X170258095Y-66976009D01*
X170258095Y-66976009D02*
X170162857Y-67023628D01*
X170162857Y-67023628D02*
X169781905Y-67023628D01*
X170734286Y-66595057D02*
X170781905Y-66547438D01*
X170781905Y-66547438D02*
X170877143Y-66499819D01*
X170877143Y-66499819D02*
X171115238Y-66499819D01*
X171115238Y-66499819D02*
X171210476Y-66547438D01*
X171210476Y-66547438D02*
X171258095Y-66595057D01*
X171258095Y-66595057D02*
X171305714Y-66690295D01*
X171305714Y-66690295D02*
X171305714Y-66785533D01*
X171305714Y-66785533D02*
X171258095Y-66928390D01*
X171258095Y-66928390D02*
X170686667Y-67499819D01*
X170686667Y-67499819D02*
X171305714Y-67499819D01*
X170694819Y-76411666D02*
X170218628Y-76744999D01*
X170694819Y-76983094D02*
X169694819Y-76983094D01*
X169694819Y-76983094D02*
X169694819Y-76602142D01*
X169694819Y-76602142D02*
X169742438Y-76506904D01*
X169742438Y-76506904D02*
X169790057Y-76459285D01*
X169790057Y-76459285D02*
X169885295Y-76411666D01*
X169885295Y-76411666D02*
X170028152Y-76411666D01*
X170028152Y-76411666D02*
X170123390Y-76459285D01*
X170123390Y-76459285D02*
X170171009Y-76506904D01*
X170171009Y-76506904D02*
X170218628Y-76602142D01*
X170218628Y-76602142D02*
X170218628Y-76983094D01*
X170028152Y-75554523D02*
X170694819Y-75554523D01*
X169647200Y-75792618D02*
X170361485Y-76030713D01*
X170361485Y-76030713D02*
X170361485Y-75411666D01*
X131833333Y-79014819D02*
X131500000Y-78538628D01*
X131261905Y-79014819D02*
X131261905Y-78014819D01*
X131261905Y-78014819D02*
X131642857Y-78014819D01*
X131642857Y-78014819D02*
X131738095Y-78062438D01*
X131738095Y-78062438D02*
X131785714Y-78110057D01*
X131785714Y-78110057D02*
X131833333Y-78205295D01*
X131833333Y-78205295D02*
X131833333Y-78348152D01*
X131833333Y-78348152D02*
X131785714Y-78443390D01*
X131785714Y-78443390D02*
X131738095Y-78491009D01*
X131738095Y-78491009D02*
X131642857Y-78538628D01*
X131642857Y-78538628D02*
X131261905Y-78538628D01*
X132166667Y-78014819D02*
X132833333Y-78014819D01*
X132833333Y-78014819D02*
X132404762Y-79014819D01*
D12*
%TO.C,C12*%
X175627836Y-61285000D02*
X175412164Y-61285000D01*
X175627836Y-62005000D02*
X175412164Y-62005000D01*
D13*
%TO.C,Q1*%
X162690000Y-81465000D02*
X163395000Y-81465000D01*
X163395000Y-71305000D02*
X162690000Y-71305000D01*
X163395000Y-81465000D02*
X163395000Y-71305000D01*
D14*
X169290000Y-78925000D02*
X169290000Y-78925000D01*
X169390000Y-78925000D02*
X169390000Y-78925000D01*
X169290000Y-78925000D02*
G75*
G02*
X169390000Y-78925000I50000J0D01*
G01*
X169390000Y-78925000D02*
G75*
G02*
X169290000Y-78925000I-50000J0D01*
G01*
D12*
%TO.C,C13*%
X175627836Y-73285000D02*
X175412164Y-73285000D01*
X175627836Y-74005000D02*
X175412164Y-74005000D01*
%TO.C,U1*%
X136025000Y-78275000D02*
X136025000Y-76325000D01*
X136025000Y-78275000D02*
X136025000Y-80225000D01*
X144895000Y-78275000D02*
X144895000Y-76325000D01*
X144895000Y-78275000D02*
X144895000Y-80225000D01*
X136090000Y-80975000D02*
X135760000Y-81215000D01*
X135760000Y-80735000D01*
X136090000Y-80975000D01*
G36*
X136090000Y-80975000D02*
G01*
X135760000Y-81215000D01*
X135760000Y-80735000D01*
X136090000Y-80975000D01*
G37*
D13*
%TO.C,Q2*%
X162690000Y-68325000D02*
X163395000Y-68325000D01*
X163395000Y-58165000D02*
X162690000Y-58165000D01*
X163395000Y-68325000D02*
X163395000Y-58165000D01*
D14*
X169290000Y-65785000D02*
X169290000Y-65785000D01*
X169390000Y-65785000D02*
X169390000Y-65785000D01*
X169290000Y-65785000D02*
G75*
G02*
X169390000Y-65785000I50000J0D01*
G01*
X169390000Y-65785000D02*
G75*
G02*
X169290000Y-65785000I-50000J0D01*
G01*
D12*
%TO.C,C23*%
X128837836Y-80390000D02*
X128622164Y-80390000D01*
X128837836Y-81110000D02*
X128622164Y-81110000D01*
%TO.C,C14*%
X175627836Y-74485000D02*
X175412164Y-74485000D01*
X175627836Y-75205000D02*
X175412164Y-75205000D01*
%TO.C,C17*%
X131640000Y-64107836D02*
X131640000Y-63892164D01*
X132360000Y-64107836D02*
X132360000Y-63892164D01*
%TO.C,C11*%
X175412164Y-58885000D02*
X175627836Y-58885000D01*
X175412164Y-59605000D02*
X175627836Y-59605000D01*
%TO.C,R6*%
X134640000Y-73492164D02*
X134640000Y-73707836D01*
X135360000Y-73492164D02*
X135360000Y-73707836D01*
%TO.C,J10*%
X147000000Y-75900000D02*
X148130000Y-75900000D01*
X147000000Y-76660000D02*
X147000000Y-75900000D01*
X147000000Y-77420000D02*
X147000000Y-79895000D01*
X147000000Y-77420000D02*
X147566529Y-77420000D01*
X147000000Y-79895000D02*
X147822470Y-79895000D01*
X148437530Y-79895000D02*
X149092470Y-79895000D01*
X148693471Y-77420000D02*
X148836529Y-77420000D01*
X148890000Y-75965000D02*
X149092470Y-75965000D01*
X148890000Y-76096529D02*
X148890000Y-75965000D01*
X148890000Y-77366529D02*
X148890000Y-77223471D01*
X149707530Y-75965000D02*
X150530000Y-75965000D01*
X149707530Y-79895000D02*
X150530000Y-79895000D01*
X150530000Y-75965000D02*
X150530000Y-79895000D01*
%TO.C,C20*%
X150307836Y-81040000D02*
X150092164Y-81040000D01*
X150307836Y-81760000D02*
X150092164Y-81760000D01*
%TO.C,C5*%
X118692164Y-79840000D02*
X118907836Y-79840000D01*
X118692164Y-80560000D02*
X118907836Y-80560000D01*
%TO.C,C8*%
X109040000Y-79892164D02*
X109040000Y-80107836D01*
X109760000Y-79892164D02*
X109760000Y-80107836D01*
%TO.C,C1*%
X117040000Y-72627836D02*
X117040000Y-72412164D01*
X117760000Y-72627836D02*
X117760000Y-72412164D01*
%TO.C,C15*%
X175372164Y-72085000D02*
X175587836Y-72085000D01*
X175372164Y-72805000D02*
X175587836Y-72805000D01*
D13*
%TO.C,IC2*%
X175725000Y-62700000D02*
X178875000Y-62700000D01*
X175725000Y-67600000D02*
X175725000Y-62700000D01*
X178875000Y-62700000D02*
X178875000Y-67600000D01*
X178875000Y-67600000D02*
X175725000Y-67600000D01*
X180775000Y-67755000D02*
X179225000Y-67755000D01*
D12*
%TO.C,C3*%
X118987836Y-64640000D02*
X118772164Y-64640000D01*
X118987836Y-65360000D02*
X118772164Y-65360000D01*
%TO.C,C22*%
X120500000Y-57290000D02*
X121500000Y-57290000D01*
X121000000Y-56790000D02*
X121000000Y-57790000D01*
X121740000Y-56304437D02*
X121740000Y-58290000D01*
X121740000Y-56304437D02*
X122804437Y-55240000D01*
X121740000Y-62695563D02*
X121740000Y-60710000D01*
X121740000Y-62695563D02*
X122804437Y-63760000D01*
X122804437Y-55240000D02*
X130260000Y-55240000D01*
X122804437Y-63760000D02*
X130260000Y-63760000D01*
X130260000Y-55240000D02*
X130260000Y-58290000D01*
X130260000Y-63760000D02*
X130260000Y-60710000D01*
%TO.C,C16*%
X130640000Y-64107836D02*
X130640000Y-63892164D01*
X131360000Y-64107836D02*
X131360000Y-63892164D01*
%TO.C,C9*%
X128907836Y-64240000D02*
X128692164Y-64240000D01*
X128907836Y-64960000D02*
X128692164Y-64960000D01*
%TO.C,C7*%
X109040000Y-63692164D02*
X109040000Y-63907836D01*
X109760000Y-63692164D02*
X109760000Y-63907836D01*
D14*
%TO.C,D1*%
X144400000Y-68105000D02*
X145690000Y-68105000D01*
X145690000Y-58105000D02*
X144400000Y-58105000D01*
X145690000Y-68105000D02*
X145690000Y-58105000D01*
D13*
X150400000Y-65505000D02*
X150400000Y-65505000D01*
X150400000Y-65705000D02*
X150400000Y-65705000D01*
X150400000Y-65505000D02*
G75*
G02*
X150400000Y-65705000I0J-100000D01*
G01*
X150400000Y-65705000D02*
G75*
G02*
X150400000Y-65505000I0J100000D01*
G01*
D12*
%TO.C,C10*%
X175627836Y-60085000D02*
X175412164Y-60085000D01*
X175627836Y-60805000D02*
X175412164Y-60805000D01*
%TO.C,C19*%
X133640000Y-64107836D02*
X133640000Y-63892164D01*
X134360000Y-64107836D02*
X134360000Y-63892164D01*
%TO.C,C4*%
X115240000Y-73907836D02*
X115240000Y-73692164D01*
X115960000Y-73907836D02*
X115960000Y-73692164D01*
%TO.C,R3*%
X172427836Y-77980000D02*
X172212164Y-77980000D01*
X172427836Y-78700000D02*
X172212164Y-78700000D01*
D13*
%TO.C,IC1*%
X120287000Y-65363000D02*
X121762000Y-65363000D01*
%TO.C,IC3*%
X175725000Y-75795000D02*
X178875000Y-75795000D01*
X175725000Y-80695000D02*
X175725000Y-75795000D01*
X178875000Y-75795000D02*
X178875000Y-80695000D01*
X178875000Y-80695000D02*
X175725000Y-80695000D01*
X180775000Y-80850000D02*
X179225000Y-80850000D01*
D12*
%TO.C,C18*%
X132640000Y-64107836D02*
X132640000Y-63892164D01*
X133360000Y-64107836D02*
X133360000Y-63892164D01*
%TO.C,C2*%
X115240000Y-71507836D02*
X115240000Y-71292164D01*
X115960000Y-71507836D02*
X115960000Y-71292164D01*
%TO.C,R1*%
X172427836Y-64885000D02*
X172212164Y-64885000D01*
X172427836Y-65605000D02*
X172212164Y-65605000D01*
%TO.C,R5*%
X133640000Y-73492164D02*
X133640000Y-73707836D01*
X134360000Y-73492164D02*
X134360000Y-73707836D01*
%TO.C,C21*%
X146612164Y-81040000D02*
X146827836Y-81040000D01*
X146612164Y-81760000D02*
X146827836Y-81760000D01*
%TO.C,J11*%
X142305000Y-72115000D02*
X143000000Y-72115000D01*
X142305000Y-72800000D02*
X142305000Y-72115000D01*
X142305000Y-73485000D02*
X142305000Y-73360000D01*
X142305000Y-73485000D02*
X142391724Y-73485000D01*
X142305000Y-73485000D02*
X143695000Y-73485000D01*
X143608276Y-73485000D02*
X143695000Y-73485000D01*
X143695000Y-73485000D02*
X143695000Y-73360000D01*
%TO.C,C6*%
X118772164Y-63240000D02*
X118987836Y-63240000D01*
X118772164Y-63960000D02*
X118987836Y-63960000D01*
%TO.C,R2*%
X172212164Y-66685000D02*
X172427836Y-66685000D01*
X172212164Y-67405000D02*
X172427836Y-67405000D01*
%TO.C,R4*%
X171040000Y-76352836D02*
X171040000Y-76137164D01*
X171760000Y-76352836D02*
X171760000Y-76137164D01*
%TO.C,R7*%
X132107836Y-77040000D02*
X131892164Y-77040000D01*
X132107836Y-77760000D02*
X131892164Y-77760000D01*
%TD*%
M02*
